<?xml version="1.0" standalone="no"?>
<!DOCTYPE svg PUBLIC "-//W3C//DTD SVG 20010904//EN"
 "http://www.w3.org/TR/2001/REC-SVG-20010904/DTD/svg10.dtd">
<svg version="1.0" xmlns="http://www.w3.org/2000/svg"
 width="700.000000pt" height="700.000000pt" viewBox="0 0 700.000000 700.000000"
 preserveAspectRatio="xMidYMid meet">
<metadata>
Created by potrace 1.14, written by Peter Selinger 2001-2017
</metadata>
<g transform="translate(0.000000,700.000000) scale(0.100000,-0.100000)"
fill="#000000" stroke="none">
<path d="M5870 5685 c-98 -20 -411 -136 -685 -253 l-69 -30 -71 25 c-273 99
-658 192 -970 234 -193 26 -637 37 -822 20 -621 -58 -1187 -274 -1700 -648
-196 -142 -338 -266 -540 -469 l-193 -194 -307 -162 c-169 -90 -316 -171 -325
-180 -10 -10 -18 -31 -18 -47 0 -56 7 -56 286 -36 l254 18 8 31 c5 17 28 104
53 193 24 89 45 161 47 159 8 -8 -69 -421 -80 -431 -7 -7 -114 -90 -237 -184
-212 -162 -226 -171 -268 -171 -72 0 -121 -63 -97 -125 4 -9 50 -53 103 -97
84 -70 321 -295 321 -305 0 -1 -8 -3 -17 -3 -10 0 -49 30 -87 68 -38 37 -67
60 -64 52 3 -8 53 -175 113 -370 101 -334 107 -358 102 -417 l-6 -63 36 0 c24
0 45 -8 61 -23 22 -20 33 -22 150 -22 l125 0 23 -107 c27 -130 44 -166 98
-216 56 -52 138 -82 221 -82 45 0 231 35 601 115 l537 115 41 -47 c194 -223
397 -412 563 -524 176 -119 346 -176 498 -166 198 12 345 97 623 358 337 316
408 374 579 475 196 115 298 151 720 254 155 38 318 81 360 96 245 83 390 215
438 399 8 34 15 101 15 156 0 170 -42 343 -147 608 -56 142 -63 166 -50 175 8
6 57 40 108 76 119 83 256 213 332 315 159 212 253 517 227 730 -24 194 -97
346 -232 483 -183 185 -423 264 -658 217z m-2054 -614 c-7 -11 -149 -92 -329
-186 -133 -69 -147 -79 -147 -103 -1 -37 -39 -128 -80 -187 -75 -109 -251
-259 -431 -367 -146 -88 -316 -168 -358 -168 -53 0 -61 16 -12 24 53 8 122 72
151 138 29 68 32 193 6 234 -10 14 -16 27 -14 29 23 24 345 177 598 286 63 28
201 97 307 155 247 134 325 171 309 145z m-1693 -832 c9 -32 -8 -21 -27 18
-18 38 -18 38 2 20 11 -10 22 -27 25 -38z m-123 30 c-107 -43 -367 -71 -412
-44 -12 7 21 10 110 12 86 1 155 8 212 21 94 22 128 26 90 11z m218 -119 c18
-22 29 -40 25 -40 -13 0 -83 60 -83 71 0 21 27 6 58 -31z m-974 -530 l0 -51
-259 -259 c-169 -169 -263 -256 -269 -250 -7 7 1 21 20 42 17 18 122 132 234
253 112 121 216 233 233 248 23 22 28 34 25 58 -3 20 -1 26 6 19 5 -5 10 -33
10 -60z"/>
</g>
</svg>
