<svg width="49" height="53" viewBox="0 0 49 53" fill="none" xmlns="http://www.w3.org/2000/svg">
<path fill-rule="evenodd" clip-rule="evenodd" d="M48.1001 2.70006C48.5419 3.03143 48.6314 3.65823 48.3001 4.10006L39.3001 16.1001C38.9687 16.5419 38.3419 16.6314 37.9001 16.3001C37.4582 15.9687 37.3687 15.3419 37.7001 14.9001L46.7001 2.90006C47.0314 2.45823 47.6582 2.36869 48.1001 2.70006Z" fill="#434242"/>
<path fill-rule="evenodd" clip-rule="evenodd" d="M23.6001 39.2001C24.0419 39.5314 24.1314 40.1582 23.8001 40.6001L14.8001 52.6001C14.4687 53.0419 13.8419 53.1314 13.4001 52.8001C12.9582 52.4687 12.8687 51.8419 13.2001 51.4001L22.2001 39.4001C22.5314 38.9582 23.1582 38.8687 23.6001 39.2001Z" fill="#434242"/>
<path fill-rule="evenodd" clip-rule="evenodd" d="M17.9767 28.7685C17.9466 29.32 17.4752 29.7427 16.9237 29.7126L1.94597 28.8963C1.3945 28.8662 0.971817 28.3948 1.00187 27.8433C1.03193 27.2919 1.50335 26.8692 2.05481 26.8992L17.0326 27.7156C17.584 27.7456 18.0067 28.217 17.9767 28.7685Z" fill="#434242"/>
<path fill-rule="evenodd" clip-rule="evenodd" d="M27.2077 16.2792C26.7148 16.5284 26.1133 16.3308 25.8641 15.8379L19.0972 2.451C18.848 1.95811 19.0456 1.35656 19.5385 1.10741C20.0314 0.858258 20.6329 1.05585 20.8821 1.54874L27.6491 14.9356C27.8982 15.4285 27.7006 16.03 27.2077 16.2792Z" fill="#434242"/>
</svg>
