<svg width="584" height="464" viewBox="0 0 584 464" fill="none" xmlns="http://www.w3.org/2000/svg">
<path d="M509.512 143.645C512.248 115.407 518.793 88.6625 507.221 61.4846C485.97 11.584 421.914 -14.8714 372.131 8.74222C346.672 20.82 324.903 38.3887 296.865 44.8551C221.189 62.3034 104.384 -30.658 63.1954 77.5842C49.068 114.709 54.7334 163.658 80.3243 194.689C88.5332 204.647 98.5622 213.329 104.638 224.709C121.26 255.885 97.7305 290.143 87.0746 319.224C61.8815 387.945 156.88 425.973 208.424 432.981C293.694 444.577 363.994 347.1 448.747 386.837C507.812 414.533 559.645 347.1 548.796 279.667C541.696 235.522 505.751 193.268 509.114 148.281C509.234 146.715 509.367 145.174 509.512 143.633V143.645Z" fill="#F4F4F9"/>
<path d="M70.7245 178.344C93.7122 178.344 112.347 159.728 112.347 136.764C112.347 113.8 93.7122 95.1841 70.7245 95.1841C47.7368 95.1841 29.1016 113.8 29.1016 136.764C29.1016 159.728 47.7368 178.344 70.7245 178.344Z" fill="#CDCDDF"/>
<path d="M67.6268 174.213C90.6145 174.213 109.25 155.597 109.25 132.633C109.25 109.67 90.6145 91.0537 67.6268 91.0537C44.6391 91.0537 26.0039 109.67 26.0039 132.633C26.0039 155.597 44.6391 174.213 67.6268 174.213Z" fill="white"/>
<path d="M67.627 170.083C88.3313 170.083 105.115 153.316 105.115 132.634C105.115 111.951 88.3313 95.1841 67.627 95.1841C46.9228 95.1841 30.1387 111.951 30.1387 132.634C30.1387 153.316 46.9228 170.083 67.627 170.083Z" fill="#222222" stroke="#222222" stroke-linecap="round" stroke-linejoin="round"/>
<path d="M63.2273 104.48C63.2273 104.48 59.0928 94.1485 51.8482 86.9236C44.6037 79.6865 15.1434 75.0385 15.1434 75.0385C15.1434 75.0385 21.3513 80.7221 28.0654 90.0183C34.7916 99.3144 57.0195 120.496 57.0195 120.496C57.0195 120.496 46.1587 111.199 36.3346 110.164C26.5104 109.128 1.69099 114.294 0.148061 114.294C-1.39487 114.294 9.45385 118.424 17.2047 122.037C24.9555 125.649 54.9461 128.756 54.9461 128.756C54.9461 128.756 42.0241 132.369 33.2367 135.475C24.4492 138.57 16.1801 161.305 16.1801 161.305C16.1801 161.305 27.5592 150.973 37.3833 148.396C47.2074 145.819 61.1661 141.159 61.1661 141.159C61.1661 141.159 52.3786 150.973 50.3053 157.692C48.232 164.411 49.787 179.897 49.787 179.897C49.787 179.897 54.4399 165.435 60.1294 159.751C65.819 154.068 72.0269 144.254 72.0269 144.254C72.0269 144.254 75.6431 149.937 79.7777 158.716C83.9122 167.494 86.5039 180.403 86.5039 180.403C86.5039 180.403 93.2301 165.941 92.7117 158.716C92.1934 151.491 84.4426 138.57 84.4426 138.57C84.4426 138.57 89.6138 134.958 97.3646 138.052C105.115 141.147 118.568 154.068 118.568 154.068C118.568 154.068 115.47 137.029 110.299 130.31C105.128 123.59 82.8997 121.531 82.8997 121.531C82.8997 121.531 95.3034 114.294 103.066 112.753C110.817 111.199 121.16 114.824 121.16 114.824C121.16 114.824 109.262 98.2908 99.9563 97.2673C90.6505 96.2317 76.6918 110.694 76.6918 110.694C76.6918 110.694 79.7897 95.1961 80.8264 90.0303C81.863 84.8644 79.7897 71.9558 79.7897 71.9558C79.7897 71.9558 74.1002 75.0505 67.386 84.8644C60.6598 94.6784 63.2514 104.492 63.2514 104.492L63.2273 104.48Z" fill="#BEF72E"/>
<path opacity="0.5" d="M63.2273 104.48C63.2273 104.48 59.0928 94.1485 51.8482 86.9236C44.6037 79.6865 15.1434 75.0385 15.1434 75.0385C15.1434 75.0385 21.3513 80.7221 28.0654 90.0183C34.7916 99.3144 57.0195 120.496 57.0195 120.496C57.0195 120.496 46.1587 111.199 36.3346 110.164C26.5104 109.128 1.69099 114.294 0.148061 114.294C-1.39487 114.294 9.45385 118.424 17.2047 122.037C24.9555 125.649 54.9461 128.756 54.9461 128.756C54.9461 128.756 42.0241 132.369 33.2367 135.475C24.4492 138.57 16.1801 161.305 16.1801 161.305C16.1801 161.305 27.5592 150.973 37.3833 148.396C47.2074 145.819 61.1661 141.159 61.1661 141.159C61.1661 141.159 52.3786 150.973 50.3053 157.692C48.232 164.411 49.787 179.897 49.787 179.897C49.787 179.897 54.4399 165.435 60.1294 159.751C65.819 154.068 72.0269 144.254 72.0269 144.254C72.0269 144.254 75.6431 149.937 79.7777 158.716C83.9122 167.494 86.5039 180.403 86.5039 180.403C86.5039 180.403 93.2301 165.941 92.7117 158.716C92.1934 151.491 84.4426 138.57 84.4426 138.57C84.4426 138.57 89.6138 134.958 97.3646 138.052C105.115 141.147 118.568 154.068 118.568 154.068C118.568 154.068 115.47 137.029 110.299 130.31C105.128 123.59 82.8997 121.531 82.8997 121.531C82.8997 121.531 95.3034 114.294 103.066 112.753C110.817 111.199 121.16 114.824 121.16 114.824C121.16 114.824 109.262 98.2908 99.9563 97.2673C90.6505 96.2317 76.6918 110.694 76.6918 110.694C76.6918 110.694 79.7897 95.1961 80.8264 90.0303C81.863 84.8644 79.7897 71.9558 79.7897 71.9558C79.7897 71.9558 74.1002 75.0505 67.386 84.8644C60.6598 94.6784 63.2514 104.492 63.2514 104.492L63.2273 104.48Z" fill="#222222"/>
<path d="M56.6579 108.936C56.6579 108.936 53.9819 98.1342 55.6453 88.0433C57.3088 77.9524 78.5241 57 78.5241 57C78.5241 57 76.8003 65.2244 76.7762 76.7001C76.7401 88.1637 71.0505 118.328 71.0505 118.328C71.0505 118.328 74.4377 104.444 81.8148 97.8813C89.192 91.3186 112.36 81.0592 113.626 80.144C114.891 79.2409 108.479 88.9224 104.296 96.3761C100.113 103.83 77.5597 123.819 77.5597 123.819C77.5597 123.819 90.1684 119.219 99.1246 116.618C108.069 114.017 128.067 127.648 128.067 127.648C128.067 127.648 112.794 125.89 103.307 129.515C93.8208 133.139 79.7656 137.498 79.7656 137.498C79.7656 137.498 92.6395 140.352 98.2326 144.603C103.838 148.854 111.625 162.34 111.625 162.34C111.625 162.34 99.4018 153.309 91.4582 152.008C83.5265 150.708 72.7501 146.349 72.7501 146.349C72.7501 146.349 73.1238 153.068 74.8958 162.617C76.6677 172.154 82.1041 184.16 82.1041 184.16C82.1041 184.16 68.2057 176.333 64.3966 170.155C60.5996 163.978 59.358 148.974 59.358 148.974C59.358 148.974 53.0416 149.046 48.5575 156.091C44.0613 163.123 40.6861 181.45 40.6861 181.45C40.6861 181.45 33.2488 165.796 33.538 157.331C33.8153 148.866 50.667 134.235 50.667 134.235C50.667 134.235 36.3708 135.596 29.1624 138.847C21.954 142.11 15.6738 151.069 15.6738 151.069C15.6738 151.069 15.6738 130.719 22.6411 124.457C29.5964 118.196 49.3772 121.808 49.3772 121.808C49.3772 121.808 37.8052 111.031 33.9599 107.442C30.1026 103.854 24.2443 92.1615 24.2443 92.1615C24.2443 92.1615 30.6692 91.3668 41.8675 95.4248C53.0537 99.4829 56.682 108.96 56.682 108.96L56.6579 108.936Z" fill="#BEF72E"/>
<path d="M170.09 147.727H443.321C450.421 147.727 456.183 153.482 456.183 160.575V337.587C456.183 345.342 449.879 351.639 442.116 351.639H171.296C163.533 351.639 157.229 345.342 157.229 337.587V160.575C157.229 153.482 162.99 147.727 170.09 147.727Z" fill="white" stroke="#222222" stroke-linecap="round" stroke-linejoin="round"/>
<path d="M270.091 167.8H253.264V178.842H270.091V167.8Z" fill="#222222"/>
<path d="M215.571 235.919H199.949V251.405H215.571V235.919Z" fill="#222222"/>
<path d="M284.592 181.503H268.85V196.989H284.592V181.503Z" fill="#222222"/>
<path d="M250.599 167.8H233.771V178.842H250.599V167.8Z" fill="#222222"/>
<path d="M302.999 181.503H287.256V196.989H302.999V181.503Z" fill="#222222"/>
<path d="M289.583 167.8H272.756V178.842H289.583V167.8Z" fill="#222222"/>
<path d="M206.132 217.773H176.527V233.258H206.132V217.773Z" fill="#222222"/>
<path d="M247.792 181.503H232.049V196.989H247.792V181.503Z" fill="#222222"/>
<path d="M197.297 235.919H176.527V251.405H197.297V235.919Z" fill="#222222"/>
<path d="M309.062 167.8H292.234V178.842H309.062V167.8Z" fill="#222222"/>
<path d="M210.991 181.503H195.248V196.989H210.991V181.503Z" fill="#222222"/>
<path d="M211.628 167.8H194.801V178.842H211.628V167.8Z" fill="#222222"/>
<path d="M231.121 167.8H214.293V178.842H231.121V167.8Z" fill="#222222"/>
<path d="M229.385 181.503H213.643V196.989H229.385V181.503Z" fill="#222222"/>
<path d="M266.186 181.503H250.443V196.989H266.186V181.503Z" fill="#222222"/>
<path d="M387.017 167.8H370.189V178.842H387.017V167.8Z" fill="#222222"/>
<path d="M406.496 167.8H389.668V178.842H406.496V167.8Z" fill="#222222"/>
<path d="M394.997 181.503H379.254V196.989H394.997V181.503Z" fill="#222222"/>
<path d="M413.403 181.503H397.66V196.989H413.403V181.503Z" fill="#222222"/>
<path d="M442.514 235.919H419.334V251.405H442.514V235.919Z" fill="#222222"/>
<path d="M425.988 167.8H409.16V178.842H425.988V167.8Z" fill="#222222"/>
<path d="M192.595 181.503H176.527V196.989H192.595V181.503Z" fill="#222222"/>
<path d="M328.554 167.8H311.727V178.842H328.554V167.8Z" fill="#222222"/>
<path d="M348.033 167.8H331.205V178.842H348.033V167.8Z" fill="#222222"/>
<path d="M339.801 181.503H324.059V196.989H339.801V181.503Z" fill="#222222"/>
<path d="M376.602 181.503H360.859V196.989H376.602V181.503Z" fill="#222222"/>
<path d="M321.393 181.503H305.65V196.989H321.393V181.503Z" fill="#222222"/>
<path d="M358.196 181.503H342.453V196.989H358.196V181.503Z" fill="#222222"/>
<path d="M367.525 167.8H350.697V178.842H367.525V167.8Z" fill="#222222"/>
<path d="M343.55 235.919H327.928V251.405H343.55V235.919Z" fill="#222222"/>
<path d="M425.517 217.773H409.895V233.258H425.517V217.773Z" fill="#222222"/>
<path d="M407.232 217.773H391.609V233.258H407.232V217.773Z" fill="#222222"/>
<path d="M416.683 235.919H401.061V251.405H416.683V235.919Z" fill="#222222"/>
<path d="M398.396 235.919H382.773V251.405H398.396V235.919Z" fill="#222222"/>
<path d="M361.835 235.919H346.213V251.405H361.835V235.919Z" fill="#222222"/>
<path d="M380.11 235.919H364.488V251.405H380.11V235.919Z" fill="#222222"/>
<path d="M388.958 217.773H373.336V233.258H388.958V217.773Z" fill="#222222"/>
<path d="M370.671 217.773H355.049V233.258H370.671V217.773Z" fill="#222222"/>
<path d="M442.527 167.8H428.652V178.842H442.527V167.8Z" fill="#222222"/>
<path d="M192.149 167.8H176.527V178.842H192.149V167.8Z" fill="#222222"/>
<path d="M442.526 254.054H176.527V270.154H442.526V254.054Z" fill="#222222"/>
<path d="M442.514 181.503H416.055V196.989H442.514V181.503Z" fill="#222222"/>
<path d="M442.526 217.773H428.182V233.258H442.526V217.773Z" fill="#222222"/>
<path d="M423.758 215.015H421.094V199.638H405.471V215.015H402.82V199.638H387.197V215.015H384.533V199.638H368.911V215.015H366.247V199.638H350.625V215.015H347.973V199.638H332.351V215.015H329.687V199.638H314.065V215.015H311.401V199.638H295.779V215.015H293.127V199.638H277.505V215.015H274.841V199.638H259.219V215.015H256.555V199.638H240.933V215.015H238.281V199.638H222.659V215.015H219.995V199.638H204.372V215.015H201.708V199.638H176.527V215.124H442.514V199.638H423.758V215.015Z" fill="#222222"/>
<path d="M297.538 217.773H281.916V233.258H297.538V217.773Z" fill="#222222"/>
<path d="M352.386 217.773H336.764V233.258H352.386V217.773Z" fill="#222222"/>
<path d="M260.978 217.773H245.355V233.258H260.978V217.773Z" fill="#222222"/>
<path d="M270.417 235.919H254.795V251.405H270.417V235.919Z" fill="#222222"/>
<path d="M279.265 217.773H263.643V233.258H279.265V217.773Z" fill="#222222"/>
<path d="M242.692 217.773H227.07V233.258H242.692V217.773Z" fill="#222222"/>
<path d="M233.857 235.919H218.234V251.405H233.857V235.919Z" fill="#222222"/>
<path d="M252.144 235.919H236.521V251.405H252.144V235.919Z" fill="#222222"/>
<path d="M315.825 217.773H300.203V233.258H315.825V217.773Z" fill="#222222"/>
<path d="M325.263 235.919H309.641V251.405H325.263V235.919Z" fill="#222222"/>
<path d="M334.11 217.773H318.488V233.258H334.11V217.773Z" fill="#222222"/>
<path d="M288.702 235.919H273.08V251.405H288.702V235.919Z" fill="#222222"/>
<path d="M306.989 235.919H291.367V251.405H306.989V235.919Z" fill="#222222"/>
<path d="M224.419 217.773H208.797V233.258H224.419V217.773Z" fill="#222222"/>
<path d="M473.252 36.9436H138.557C131.517 36.9436 126.406 43.6147 128.226 50.3941L152.696 141.417C153.95 146.089 158.181 149.328 163.026 149.328H197.188V155.59H416.236V149.328H448.782C453.615 149.328 457.858 146.089 459.112 141.417L483.582 50.3941C485.402 43.6026 480.291 36.9436 473.252 36.9436Z" fill="#222222" stroke="#222222" stroke-linecap="round" stroke-linejoin="round"/>
<path d="M435.401 141.308H176.406L150.514 48.1904H461.293L435.401 141.308Z" fill="#333232" stroke="#222222" stroke-linecap="round" stroke-linejoin="round"/>
<g clip-path="url(#clip0_99_333)">
<path d="M331.08 112.29C331.08 112.29 346.97 118.64 356.73 123.32C356.73 123.32 346.01 119.41 331.08 112.29Z" fill="#F5FFFF"/>
<path d="M340.5 108.13C340.5 108.13 356.75 111.08 367.13 113.57C367.13 113.57 356.39 111.91 340.5 108.13Z" fill="#F5FFFF"/>
<path d="M343.359 103.29C343.359 103.29 359.639 103.71 370.529 104.53C370.529 104.53 360.029 104.52 343.359 103.29Z" fill="#F5FFFF"/>
<path d="M352.131 93.7999C352.131 93.7999 365.361 90.7099 374.751 88.8599C374.751 88.8599 366.521 90.9499 352.131 93.7999Z" fill="#F5FFFF"/>
<path d="M341.17 90.9597C341.17 90.9597 358.33 84.8997 370.71 81.1497C370.71 81.1497 360.16 85.1797 341.17 90.9597Z" fill="#F5FFFF"/>
<path d="M273.061 97.9797C273.061 97.9797 258.691 96.2597 249.381 94.6597C249.381 94.6597 258.771 95.5497 273.061 97.9797Z" fill="#F5FFFF"/>
<path d="M350.279 99.6198C350.279 99.6198 361.209 99.5198 368.589 99.9198C368.589 99.9198 361.569 100.2 350.279 99.6198Z" fill="#F5FFFF"/>
<path d="M324.529 85.0198C324.529 85.0198 330.279 80.9798 335.189 78.4998C335.189 78.4998 332.009 81.1898 324.529 85.0198Z" fill="#F5FFFF"/>
<path d="M291.39 90.6897C291.39 90.6897 281.35 85.4497 275.58 81.6597C275.58 81.6597 282.46 84.8797 291.39 90.6897Z" fill="#F5FFFF"/>
<path d="M340.24 111.18C340.24 111.18 346.32 112.7 349.68 114.1C349.68 114.1 345.42 113.3 340.24 111.18Z" fill="#F5FFFF"/>
<path d="M293.46 112.02C293.46 112.02 289.81 120.69 285.91 126.49C285.91 126.49 287.6 120.86 293.46 112.02Z" fill="#F5FFFF"/>
<path d="M307.859 112.39C307.859 112.39 311.559 119.14 312.659 123.83C312.659 123.83 309.609 119.53 307.859 112.39Z" fill="#F5FFFF"/>
<path d="M301.32 114.15C301.32 114.15 301.82 116.93 300.93 118.79C300.93 118.79 300.03 117 301.32 114.15Z" fill="#F5FFFF"/>
<path d="M248.97 117.33C248.97 117.33 245.94 118.95 243 119.72C243 119.72 244.52 118.53 248.97 117.33Z" fill="#F5FFFF"/>
<path d="M328.039 89.5297C328.039 89.5297 355.729 75.4997 375.419 66.4097C375.419 66.4097 358.419 75.4497 328.039 89.5297Z" fill="#F5FFFF"/>
<path d="M314.09 82.1297C314.09 82.1297 317.51 72.5297 317.98 66.6697C317.98 66.6697 314.75 73.0997 314.09 82.1297Z" fill="#F5FFFF"/>
<path d="M298.259 86.6098C298.259 86.6098 286.399 73.1698 279.779 63.9998C279.779 63.9998 287.929 72.4398 298.259 86.6098Z" fill="#F5FFFF"/>
<path d="M273.34 89.2997C273.34 89.2997 252.07 80.5897 238.5 74.4797C238.5 74.4797 252.38 79.8897 273.34 89.2997Z" fill="#F5FFFF"/>
<path d="M270.261 96.1299C270.261 96.1299 247.241 91.7799 232.381 88.3699C232.381 88.3699 247.381 90.9199 270.261 96.1299Z" fill="#F5FFFF"/>
<path d="M263.56 98.5398C263.56 98.5398 240.44 97.6498 225 96.5098C225 96.5098 239.88 96.8298 263.56 98.5398Z" fill="#F5FFFF"/>
<path d="M272.23 103.13C272.23 103.13 249.58 105.31 233.93 106.27C233.93 106.27 248.31 104.62 272.23 103.13Z" fill="#F5FFFF"/>
<path d="M243.399 115.79C243.399 115.79 233.379 118.46 225.859 119.8C225.859 119.8 231.939 117.86 243.399 115.79Z" fill="#F5FFFF"/>
<path d="M279.111 111.43C279.111 111.43 268.381 117.21 259.961 120.81C259.961 120.81 266.321 116.94 279.111 111.43Z" fill="#F5FFFF"/>
<path d="M302.589 83.7898C302.589 83.7898 303.249 85.1298 297.719 85.0998C297.719 85.0998 302.469 85.1098 302.349 86.3698C302.349 86.3698 302.779 85.3798 307.139 85.1598C307.139 85.1598 303.449 85.3998 302.589 83.7898Z" fill="#F5FFFF"/>
<path d="M325.96 85.3098C325.96 85.3098 326.45 86.2898 322.43 86.2598C322.43 86.2598 325.88 86.2698 325.8 87.1898C325.8 87.1898 326.1 86.4698 329.27 86.3098C329.27 86.3098 326.6 86.4798 325.96 85.3098Z" fill="#F5FFFF"/>
<path d="M332.169 91.3298C332.169 91.3298 332.409 91.7998 330.469 91.7898C330.469 91.7898 332.129 91.7898 332.089 92.2398C332.089 92.2398 332.239 91.8898 333.759 91.8098C333.759 91.8098 332.469 91.8898 332.159 91.3298H332.169Z" fill="#F5FFFF"/>
<path d="M278.479 86.3098C278.479 86.3098 278.709 86.7798 276.779 86.7698C276.779 86.7698 278.439 86.7698 278.389 87.2098C278.389 87.2098 278.539 86.8598 280.069 86.7898C280.069 86.7898 278.779 86.8698 278.489 86.3098H278.479Z" fill="#F5FFFF"/>
<path d="M290.518 83.0198C290.518 83.0198 290.838 83.6698 288.148 83.6598C288.148 83.6598 290.458 83.6598 290.398 84.2798C290.398 84.2798 290.608 83.7998 292.728 83.6898C292.728 83.6898 290.938 83.8098 290.518 83.0198Z" fill="#F5FFFF"/>
<path d="M308.94 81.4497C308.94 81.4497 309.16 81.8897 307.34 81.8797C307.34 81.8797 308.91 81.8797 308.87 82.2997C308.87 82.2997 309.01 81.9697 310.45 81.8997C310.45 81.8997 309.24 81.9797 308.95 81.4497H308.94Z" fill="#F5FFFF"/>
<path d="M301.619 80.0298C301.619 80.0298 301.759 80.3198 300.559 80.3198C300.559 80.3198 301.599 80.3198 301.569 80.5998C301.569 80.5998 301.659 80.3798 302.619 80.3398C302.619 80.3398 301.819 80.3898 301.629 80.0398L301.619 80.0298Z" fill="#F5FFFF"/>
<path d="M307.349 78.4697C307.349 78.4697 307.439 78.6497 306.709 78.6397C306.709 78.6397 307.339 78.6397 307.319 78.8097C307.319 78.8097 307.379 78.6797 307.949 78.6497C307.949 78.6497 307.459 78.6797 307.349 78.4697Z" fill="#F5FFFF"/>
<path d="M297.049 86.7697C297.049 86.9397 296.559 87.0797 295.959 87.0797C295.359 87.0797 294.869 86.9397 294.879 86.7697C294.889 86.5997 295.369 86.4597 295.969 86.4597C296.569 86.4597 297.049 86.5997 297.049 86.7697Z" fill="#F5FFFF"/>
<path d="M298.31 86.6896C298.31 86.6896 298.19 86.7696 298.04 86.7696C297.89 86.7696 297.77 86.7396 297.77 86.6896C297.77 86.6396 297.89 86.6096 298.04 86.6096C298.19 86.6096 298.31 86.6396 298.31 86.6896Z" fill="#F5FFFF"/>
<path d="M293.309 86.1498C293.309 86.1998 293.159 86.2398 292.969 86.2398C292.779 86.2398 292.639 86.1998 292.639 86.1498C292.639 86.0998 292.789 86.0598 292.969 86.0598C293.149 86.0598 293.299 86.0998 293.299 86.1498H293.309Z" fill="#F5FFFF"/>
<path d="M315.29 84.6397C315.29 84.7397 315 84.8197 314.64 84.8197C314.28 84.8197 313.99 84.7397 313.99 84.6397C313.99 84.5397 314.28 84.4597 314.63 84.4597C314.98 84.4597 315.28 84.5397 315.28 84.6397H315.29Z" fill="#F5FFFF"/>
<path d="M314.78 86.0598C314.78 86.1798 314.43 86.2798 314.01 86.2798C313.59 86.2798 313.24 86.1798 313.24 86.0598C313.24 85.9398 313.59 85.8398 314.01 85.8398C314.43 85.8398 314.78 85.9398 314.79 86.0598H314.78Z" fill="#F5FFFF"/>
<path d="M297.86 81.8696C297.86 81.9896 297.5 82.0996 297.06 82.0996C296.62 82.0996 296.26 81.9996 296.26 81.8696C296.26 81.7396 296.62 81.6396 297.06 81.6396C297.5 81.6396 297.86 81.7396 297.86 81.8696Z" fill="#F5FFFF"/>
<path d="M318.959 81.8698C318.959 82.0498 318.459 82.1898 317.839 82.1898C317.219 82.1898 316.719 82.0498 316.719 81.8698C316.719 81.6898 317.219 81.5498 317.839 81.5498C318.459 81.5498 318.959 81.6898 318.959 81.8698Z" fill="#F5FFFF"/>
<path d="M289.989 80.7797C289.989 80.8497 289.799 80.8997 289.559 80.8997C289.319 80.8997 289.129 80.8497 289.129 80.7797C289.129 80.7097 289.319 80.6597 289.559 80.6597C289.799 80.6597 289.989 80.7097 289.989 80.7797Z" fill="#F5FFFF"/>
<path d="M283.53 81.8697C283.53 81.9497 283.3 82.0097 283.02 82.0097C282.74 82.0097 282.52 81.9497 282.52 81.8697C282.52 81.7897 282.75 81.7297 283.03 81.7297C283.31 81.7297 283.53 81.7897 283.53 81.8697Z" fill="#F5FFFF"/>
<path d="M313.94 102.05H294.58C290.46 102.05 286.87 101.26 285.8 100.13L283.35 97.5298C281.21 95.2598 287.22 93.0398 295.45 93.0398H313.07C321.3 93.0398 327.3 95.2698 325.17 97.5298L322.72 100.13C321.65 101.26 318.06 102.05 313.94 102.05Z" stroke="#A4D22F" stroke-width="1.35" stroke-miterlimit="10"/>
<path d="M286.279 89.2898V89.9098C286.269 91.2798 288.819 92.3898 291.969 92.3898H316.539C319.699 92.3898 322.239 91.2798 322.229 89.9098V89.2898H286.279Z" fill="#BEF72E"/>
<path d="M302.03 92.3796C296.17 92.3796 291.56 93.7996 291.96 95.4596C293.31 101.06 298.3 105.23 304.26 105.23C310.22 105.23 315.21 101.06 316.55 95.4596C316.95 93.7996 312.33 92.3796 306.48 92.3796H302.03Z" fill="#BEF72E"/>
<path d="M323.029 89.0998C323.029 89.3898 322.199 89.6298 321.179 89.6298H287.319C286.299 89.6298 285.469 89.3898 285.469 89.0998C285.469 88.8098 286.299 88.5698 287.329 88.5698H321.179C322.199 88.5698 323.039 88.8098 323.039 89.0998H323.029Z" fill="#A4D22F"/>
<path d="M308.909 104.82C308.909 104.94 308.569 105.04 308.159 105.04H300.369C299.949 105.04 299.609 104.94 299.619 104.82C299.619 104.7 299.959 104.6 300.379 104.6H308.159C308.579 104.6 308.919 104.7 308.919 104.82H308.909Z" fill="#BEF72E"/>
<path d="M308.909 104.82C308.909 104.94 308.569 105.04 308.159 105.04H300.369C299.949 105.04 299.609 104.94 299.619 104.82C299.619 104.7 299.959 104.6 300.379 104.6H308.159C308.579 104.6 308.919 104.7 308.919 104.82H308.909Z" fill="#BEF72E"/>
<path d="M308.269 105.68C308.779 105.84 309.349 105.94 309.949 105.94C309.979 105.94 309.999 105.94 310.029 105.94H297.999C298.519 105.94 299.009 105.87 299.469 105.75C294.719 106.18 291.229 107.34 290.709 109.58H317.819C317.269 107.22 313.419 106.05 308.269 105.68Z" fill="#BEF72E"/>
<path d="M310.299 105.29C310.299 105.47 309.859 106.19 309.319 106.19H299.189C298.649 106.19 298.209 105.47 298.209 105.29C298.209 105.11 298.649 104.97 299.189 104.97H309.309C309.849 104.97 310.289 105.12 310.289 105.29H310.299Z" fill="#BEF72E"/>
<path d="M312.319 93.3398H295.829C295.399 93.3398 295.059 92.9898 295.059 92.5498C295.059 92.1098 295.409 91.7598 295.829 91.7598H312.309C312.739 91.7598 313.079 92.1098 313.079 92.5498C313.079 92.9898 312.739 93.3398 312.309 93.3398H312.319Z" fill="#BEF72E"/>
<path d="M298.318 97.9993L298.86 98.7704H300.636L299.206 99.2282L299.748 99.9993L298.318 99.5173L296.888 99.9993L297.43 99.2282L296 98.7704H297.776L298.318 97.9993Z" fill="#333131"/>
<path d="M304.492 95.9993L305.048 96.7612H306.818L305.378 97.2374L305.933 97.9993L304.492 97.5231L303.067 97.9993L303.622 97.2374L302.182 96.7612H303.952L304.492 95.9993Z" fill="#333131"/>
<path d="M310.682 97.9993L311.224 98.7704H313L311.57 99.2282L312.112 99.9993L310.682 99.5173L309.252 99.9993L309.794 99.2282L308.364 98.7704H310.125L310.682 97.9993Z" fill="#333131"/>
</g>
<path d="M558.005 257.9V337.1H499.705V257.9C499.705 244.2 510.805 233 524.605 233H526.005L526.705 245.7C522.905 246.5 520.105 249.8 520.105 253.6C520.105 257.8 523.405 261.3 527.605 261.7L529.405 292H532.905L530.805 261.4C534.405 260.5 537.005 257.3 537.005 253.5C537.005 249.4 533.805 245.9 529.705 245.4L528.805 233H533.005C546.805 233 558.005 244.1 558.005 257.9Z" fill="#BEF72E"/>
<path d="M537.006 253.6C537.006 249.5 533.806 246 529.706 245.5L528.806 233H525.906L526.606 245.7C522.806 246.5 520.006 249.8 520.006 253.6C520.006 257.8 523.306 261.3 527.506 261.7L529.306 292H532.806L530.706 261.4C534.406 260.5 537.006 257.4 537.006 253.6ZM530.606 258.7C530.006 258.9 529.306 259.1 528.606 259.1C528.206 259.1 527.906 259.1 527.506 259C525.006 258.5 523.106 256.3 523.106 253.6C523.106 251.2 524.706 249.1 526.906 248.4C527.406 248.2 528.006 248.1 528.606 248.1C529.106 248.1 529.506 248.2 529.906 248.3C532.306 248.9 534.106 251.1 534.106 253.6C534.106 255.9 532.706 257.9 530.606 258.7Z" fill="#F5F4F9"/>
<path d="M534.105 253.6C534.105 256 532.705 258.1 530.605 259C530.005 259.3 529.305 259.4 528.605 259.4C528.205 259.4 527.905 259.4 527.505 259.3C525.005 258.8 523.105 256.4 523.105 253.6C523.105 251.1 524.705 248.9 526.905 248.1C527.405 247.9 528.005 247.8 528.605 247.8C529.105 247.8 529.505 247.9 529.905 248C532.305 248.6 534.105 250.9 534.105 253.6Z" fill="#8A53FF"/>
<path d="M583.604 313.989C583.304 312.589 582.904 311.089 582.304 309.689C581.904 308.689 581.804 307.689 582.104 306.689L582.804 304.189C583.404 301.989 583.204 299.589 582.204 297.489L576.004 283.989C575.304 282.589 574.104 281.489 572.604 281.089C569.904 280.389 567.004 280.389 563.904 280.989L564.004 265.589C564.004 263.589 563.704 261.489 563.004 259.589C560.904 253.689 554.404 250.889 548.804 252.989C547.604 253.489 546.704 254.689 546.604 256.089C545.404 271.689 542.604 286.189 535.304 297.789C533.204 301.189 528.204 300.689 526.804 296.789C523.604 288.089 521.704 274.389 520.004 260.189C520.704 246.789 520.104 238.989 515.604 236.589C513.304 235.389 510.404 236.089 508.604 238.089C499.504 248.089 501.604 281.489 503.304 317.389C499.704 315.189 499.504 311.389 499.704 307.289V283.289C497.404 282.189 494.704 282.989 493.404 285.289C491.504 288.489 489.004 291.989 486.004 295.689C482.704 299.789 480.904 304.989 481.004 310.289C481.204 324.989 482.504 341.589 485.104 360.089C486.404 369.289 488.804 378.389 492.204 386.989C493.704 390.789 494.804 394.789 495.404 398.889L503.804 457.889H560.504C554.304 438.789 550.704 420.889 552.504 405.289C552.004 401.889 552.604 398.389 554.204 395.389C560.304 383.989 565.004 372.989 566.604 362.989C568.804 346.989 573.604 332.989 582.004 321.589C583.404 319.389 584.104 316.689 583.604 313.989ZM555.304 305.889C555.504 304.589 560.704 294.089 561.104 290.289C561.104 290.289 561.504 296.189 563.304 296.789C563.404 297.089 555.904 303.589 555.304 305.889Z" fill="#B287FD"/>
<path d="M581.104 308.6C577.704 315.5 573.304 321.9 568.604 328L568.704 327.7C568.104 330.1 567.404 332.4 566.504 334.7C566.604 332.2 566.804 329.8 567.204 327.3L567.304 327.1C571.404 320.6 575.804 314.2 581.104 308.6Z" fill="#785CFF"/>
<path d="M555.304 305.3C554.604 308.9 553.104 312.2 551.304 315.4L551.404 314.8C551.604 316.8 551.704 318.8 551.404 320.9C550.504 319 550.004 316.9 549.504 314.9C551.004 311.5 552.804 308.1 555.304 305.3Z" fill="#785CFF"/>
<path d="M503.105 318.1C499.305 324.5 495.205 330.7 493.005 337.9C492.405 330.2 497.105 322.7 503.105 318.1Z" fill="#785CFF"/>
<path d="M563.904 271.5C566.504 279.2 564.404 288 560.004 294.6C561.704 286.9 563.604 279.5 563.904 271.5Z" fill="#785CFF"/>
<path d="M512.103 237.4C512.103 237.4 506.903 238.5 507.003 247.9C507.303 248.7 514.803 249.5 516.703 247.6C516.903 247.6 518.603 237.6 512.103 237.4Z" fill="#785CFF"/>
<path d="M493.904 284.4C493.904 284.4 494.004 292 490.004 294.6C489.604 294.9 489.004 294.9 488.604 294.6C488.004 294.2 487.404 293.7 487.404 293.7L493.904 284.4Z" fill="#785CFF"/>
<path d="M167.6 271.088L182 278.488L175.8 315.588L168.3 274.688L167.6 271.088Z" fill="#785CFF"/>
<path d="M135 297.188C135 297.688 134.5 297.888 134.1 297.788C129 295.388 125 296.588 123.2 304.088C123.2 304.088 123.2 304.088 123.2 304.188C123.2 304.388 123.2 304.488 123.2 304.688C123.2 323.188 125.7 341.488 130.3 359.288L136 381.388C138.9 392.488 138.8 404.288 136 415.488C132.4 429.488 127.7 443.588 122 457.788H179.3L196.1 403.388C197.9 397.588 200.6 392.288 204.2 387.688C210.9 379.088 216.9 369.688 222.5 359.588C224.6 355.888 225.8 351.688 226.1 347.388C226.5 343.088 225.7 338.888 226.3 335.788C227.1 331.588 227.6 327.388 227.3 323.088C226.2 308.488 226.1 306.188 225.7 301.488C225 296.388 224.3 292.988 223.4 290.688C222.5 287.988 219.2 287.388 217.4 289.488C211.7 296.188 209.9 305.088 211.2 315.688C211.4 317.288 211.2 318.888 210.5 320.388C208.7 324.288 207.9 329.088 207.9 334.588C207.9 337.388 205 339.288 202.8 337.688C200.5 335.988 198.9 332.488 197.8 327.788C195.9 320.188 195.6 312.288 196.9 304.488C197.8 298.588 198.5 293.088 198.3 288.888C198.1 285.288 198.3 281.788 198.7 278.188C199.4 271.688 199.5 263.988 199.3 255.888C200 248.988 199.3 243.688 195.7 241.188C194 239.788 191.5 239.588 189.5 240.788C185.3 243.288 185.2 249.688 185.2 256.188C185.2 257.488 185.1 258.688 184.9 259.988L182 278.488C179.4 284.188 179.5 293.688 176.9 305.288C176.8 305.588 176.7 305.888 176.5 306.188C175.7 307.288 174.1 306.588 174.2 305.188L175.3 284.988C175.6 280.388 173.9 275.888 170.6 272.988C167.8 270.588 164.6 269.888 160.9 270.088C156.9 270.788 155.2 275.088 153.7 280.988C153.5 281.788 152.5 282.188 152 281.488C151.8 281.188 151.5 280.988 151.3 280.688C145.7 275.288 136.7 278.888 135.8 286.988C135.8 287.088 135.8 287.088 135.8 287.188L135 297.188Z" fill="#B287FD"/>
<path d="M153.301 281.788C153.901 289.788 153.501 297.888 152.501 305.788V305.988L152.401 306.088C151.101 308.188 149.801 310.188 148.301 312.188C149.101 309.888 150.101 307.588 151.101 305.388L151.001 305.688C151.101 297.688 151.701 289.588 153.301 281.788Z" fill="#785CFF"/>
<path d="M134.599 296.988C135.799 304.288 135.799 311.788 135.199 319.188V319.388C134.299 320.788 133.299 322.088 132.199 323.388C132.699 321.888 133.399 320.388 134.099 318.888L133.999 319.188C133.299 311.788 133.299 304.288 134.599 296.988Z" fill="#785CFF"/>
<path d="M196.401 317.688C198.701 326.688 200.801 342.988 210.101 347.188C198.901 345.188 195.801 327.088 196.401 317.688Z" fill="#785CFF"/>
<path d="M195.399 248.888V252.088C195.399 253.288 194.899 254.288 194.199 254.788C192.699 255.688 190.099 256.488 187.299 252.988C186.799 252.288 186.499 251.288 186.599 250.288C186.799 247.188 187.299 241.588 190.899 241.688C190.899 241.688 190.899 241.688 191.099 241.688C193.599 242.188 195.399 245.288 195.399 248.888Z" fill="#785CFF"/>
<path d="M222.699 289.088C222.699 289.088 216.499 289.788 220.399 300.388C220.399 300.388 222.199 303.188 225.999 302.788C225.399 296.588 224.099 290.088 222.699 289.088Z" fill="#785CFF"/>
<defs>
<clipPath id="clip0_99_333">
<rect width="150.42" height="62.49" fill="white" transform="translate(225 63.9998)"/>
</clipPath>
</defs>
</svg>
