<svg width="24" height="25" viewBox="0 0 24 25" xmlns="http://www.w3.org/2000/svg">
<path fill-rule="evenodd" clip-rule="evenodd" d="M14.7952 0.181147C15.1777 0.36101 15.4058 0.76193 15.365 1.18263L14.6168 8.89643L22.3306 9.64462C22.7152 9.68192 23.0439 9.93745 23.1749 10.301C23.3059 10.6645 23.2157 11.0709 22.9433 11.3449L10.4184 23.9446C10.1204 24.2444 9.66615 24.3244 9.28366 24.1446C8.90117 23.9647 8.67306 23.5638 8.71387 23.1431L9.46206 15.4293L1.74826 14.6811C1.36367 14.6438 1.03499 14.3883 0.904007 14.0248C0.773026 13.6613 0.863185 13.2548 1.13559 12.9808L13.6605 0.381089C13.9585 0.0813263 14.4127 0.00128379 14.7952 0.181147ZM4.04172 12.8942L10.6505 13.5352C10.9144 13.5608 11.1574 13.6902 11.326 13.895C11.4946 14.0997 11.5749 14.3631 11.5493 14.6271L10.975 20.5479L20.0372 11.4316L13.4284 10.7905C12.8787 10.7372 12.4763 10.2484 12.5296 9.69867L13.1039 3.77787L4.04172 12.8942Z" />
</svg>
