<svg width="22" height="22" viewBox="0 0 22 22" xmlns="http://www.w3.org/2000/svg">
<path fill-rule="evenodd" clip-rule="evenodd" d="M0.177734 9.43766C0.177734 4.54764 4.14188 0.583496 9.0319 0.583496C13.9219 0.583496 17.8861 4.54764 17.8861 9.43766C17.8861 11.5073 17.176 13.4111 15.9861 14.9187L20.706 19.6386C21.1128 20.0454 21.1128 20.7049 20.706 21.1117C20.2992 21.5185 19.6396 21.5185 19.2328 21.1117L14.513 16.3919C13.0054 17.5817 11.1016 18.2918 9.0319 18.2918C4.14188 18.2918 0.177734 14.3277 0.177734 9.43766ZM13.8858 14.1582C13.8619 14.1782 13.8386 14.1995 13.8162 14.2219C13.7937 14.2444 13.7725 14.2676 13.7525 14.2916C12.5329 15.4779 10.8677 16.2085 9.0319 16.2085C5.29247 16.2085 2.26107 13.1771 2.26107 9.43766C2.26107 5.69824 5.29247 2.66683 9.0319 2.66683C12.7713 2.66683 15.8027 5.69824 15.8027 9.43766C15.8027 11.2735 15.0721 12.9386 13.8858 14.1582Z"/>
</svg>
