<svg width="893" height="769" viewBox="0 0 893 769" xmlns="http://www.w3.org/2000/svg">
<path d="M116.253 309.467C95.4535 302.015 74.7823 296.233 66.6936 286.983L66.5652 286.854C64.8961 284.927 65.5381 282.101 67.7207 280.816C71.5725 278.632 76.0662 278.118 81.7155 280.173C82.9994 283.257 85.4389 285.826 88.5203 287.368C99.1769 292.636 107.779 299.317 114.199 307.54C114.712 308.311 115.483 308.953 116.253 309.467ZM233.09 453.623C231.421 452.981 229.624 452.338 227.698 451.824C226.542 451.439 225.387 451.182 224.36 450.925C225.9 445.914 227.826 442.959 227.826 442.959C229.367 446.428 231.036 450.026 233.09 453.623ZM271.094 506.686C264.546 507.842 258.127 507.2 252.734 506.044C249.781 505.401 247.085 504.373 244.389 503.089C247.085 502.703 248.754 502.061 248.883 501.161C249.011 499.491 244.004 497.821 237.584 497.307C237.07 497.307 236.428 497.307 235.915 497.178C234.374 495.765 232.962 494.223 231.55 492.553C231.55 492.553 250.166 493.838 259.539 492.553C263.262 497.178 267.114 501.932 271.094 506.686ZM259.539 492.553C250.166 493.838 231.55 492.553 231.55 492.553C230.009 490.626 228.597 488.442 227.441 486.129C226.799 484.716 226.285 483.431 225.772 482.146C225.9 482.146 226.029 482.275 226.157 482.275C233.219 484.33 239.381 484.716 239.767 483.174C240.28 481.632 234.888 478.677 227.698 476.621C226.285 476.236 224.873 475.85 223.589 475.593C222.434 471.225 222.048 467.242 222.177 463.645C222.177 460.947 222.434 458.505 222.947 456.321C223.846 456.707 225.002 457.092 226.157 457.349C230.009 458.505 233.732 459.148 236.172 459.276C242.463 469.812 250.423 480.99 259.539 492.553ZM616.47 368.697C691.323 366.77 767.845 354.179 830.115 412.766C855.665 435.507 874.924 463.259 886.223 497.564C908.563 565.53 864.268 637.994 793.395 647.502C739.085 654.825 679.126 637.737 653.704 593.539C653.704 593.282 653.704 593.154 653.704 592.897C651.008 569.513 674.504 551.911 696.459 560.52C735.105 575.937 793.01 612.683 825.365 585.702C835.765 577.094 841.029 563.732 839.873 550.241C830.757 435.764 746.789 406.085 627.769 420.603L622.119 411.61L616.47 368.697ZM431.457 498.463L416.82 504.502C407.832 508.228 401.284 516.194 399.744 525.701C399.744 525.701 399.744 525.83 399.744 525.958C399.615 526.601 399.615 527.371 399.487 528.014C399.487 528.142 399.487 528.142 399.487 528.271L399.359 529.299L374.579 516.964L374.065 515.68C372.91 512.725 370.984 510.026 368.673 507.971L346.461 488.185L340.94 453.366L380.228 450.668L406.934 460.69C413.482 463.131 418.617 468.142 421.314 474.566L431.457 498.463ZM198.039 270.409L187.768 270.152C183.146 271.95 178.78 274.52 174.672 277.732C172.232 279.531 168.766 278.503 167.738 275.676C165.299 268.867 162.218 262.828 157.852 258.331C164.529 259.231 170.05 258.588 174.158 255.762C176.983 253.835 180.706 253.835 183.659 255.505L199.58 264.756C202.276 266.297 201.121 270.409 198.039 270.409ZM397.433 283.899C361.226 288.525 349.285 287.625 319.884 288.653L315.775 299.317L276.615 292.636L249.781 281.715L226.799 265.655C214.473 253.835 201.121 246.126 186.484 243.942C179.551 242.914 173.131 239.702 167.995 234.948C159.778 227.239 152.075 221.2 145.655 218.888C140.519 217.089 135.255 219.787 134.1 225.055C134.1 225.183 134.1 225.183 134.1 225.312C133.073 230.579 135.127 235.847 138.85 239.702L156.697 257.175C154.257 254.862 151.433 253.064 148.223 251.779C144.885 250.494 141.033 252.678 140.648 256.276C140.648 256.404 140.648 256.404 140.648 256.404C139.364 266.683 148.094 283.642 154.129 298.675L137.309 269.509C136.026 267.325 135.384 264.756 135.384 262.314C135.384 260.002 135.255 257.818 134.87 255.762C134.228 251.779 132.944 248.31 130.761 245.483C127.937 241.886 122.288 242.143 119.72 245.997C118.307 248.181 117.409 250.88 117.023 253.835C116.767 255.376 116.767 257.047 116.767 258.717C116.895 263.856 118.307 268.867 120.618 273.492C124.085 280.559 127.038 287.24 128.836 292.893C122.031 294.178 113.814 287.24 105.34 279.274C99.8189 272.85 92.2437 270.923 82.7427 273.364C80.8168 273.878 79.918 275.805 80.56 277.604L81.7155 280.173C82.9994 283.257 85.4389 285.826 88.5203 287.368C99.1769 292.636 107.779 299.317 114.199 307.54C114.712 308.311 115.483 308.953 116.253 309.467C117.537 310.366 119.206 310.88 121.004 310.88L222.305 308.311L286.887 352.894C290.867 355.592 294.462 358.547 297.8 362.144C298.185 362.53 298.57 363.044 298.956 363.429C305.247 369.982 311.41 374.736 317.316 377.048C318.343 377.434 318.471 378.719 317.701 379.361L299.341 394.136C298.57 394.779 299.212 396.063 300.111 395.807L328.357 387.584C328.999 387.327 329.641 387.841 329.641 388.483V402.231C329.641 403.13 330.925 403.515 331.31 402.616L342.866 380.389C343.508 379.232 345.305 379.489 345.562 380.774L347.488 390.539C347.616 391.567 349.029 391.567 349.285 390.539L352.495 371.01C353.266 366.898 354.806 363.044 357.246 359.703C359.942 355.849 362.638 352.123 365.206 348.268C365.206 348.268 395.507 300.73 397.818 283.899C397.689 283.899 397.561 283.899 397.433 283.899ZM494.112 713.669C493.727 720.094 492.315 726.389 490.132 732.813C490.004 733.199 489.875 733.713 489.747 734.098C488.078 732.299 484.868 730.244 481.145 728.316C474.982 725.104 469.332 723.691 468.562 725.104C467.92 726.518 472.285 730.244 478.448 733.456C482.172 735.383 485.638 736.668 487.949 737.053C487.179 738.081 486.152 739.109 485.125 739.88C482.814 741.55 479.989 742.578 477.036 742.706C474.725 751.315 471.387 758.766 464.967 762.749C463.555 760.694 460.602 757.739 456.878 754.784C450.972 750.158 445.323 747.332 444.424 748.616C443.397 749.901 447.377 754.655 453.283 759.409C456.108 761.721 459.061 763.52 461.244 764.548C457.777 765.961 453.54 766.475 448.404 766.09L440.444 764.034C437.619 766.09 433.768 766.989 429.274 767.118C428.889 764.934 426.321 761.593 422.598 758.638C417.59 754.655 412.455 752.985 411.042 754.655C409.63 756.454 412.583 761.079 417.59 764.934C418.232 765.447 418.746 765.833 419.388 766.347C418.874 766.218 418.361 766.09 417.847 766.09L408.474 758.381C401.798 752.856 397.946 744.633 397.946 736.025V731.271C397.946 717.909 396.534 704.547 393.452 691.571C386.134 660.607 374.322 632.341 359.043 606.259L359.814 605.36C389.344 602.019 404.751 588.143 403.21 561.676C415.536 569.899 423.111 581.334 426.578 595.467C438.005 618.465 451.229 638.379 468.305 652.255C483.841 668.573 491.929 684.89 493.855 701.207C492.186 699.922 490.004 698.509 487.436 697.224C481.658 694.14 476.394 692.984 475.624 694.397C474.853 695.811 478.962 699.408 484.739 702.363C488.463 704.29 491.929 705.447 494.241 705.704C494.369 708.402 494.369 710.971 494.112 713.669ZM617.754 333.236C616.599 340.431 614.93 349.168 613.004 358.675V358.932L595.927 427.413H596.312C595.927 428.441 595.671 429.469 595.414 430.497C594.258 434.351 593.745 438.334 593.745 442.317V463.388C593.745 464.03 592.974 464.159 592.718 463.645L587.325 450.925C587.068 450.411 586.298 450.54 586.298 451.182C585.014 463.388 574.357 468.784 561.39 472.51C558.95 473.152 557.281 470.326 558.95 468.527L571.276 455.165C562.545 462.488 551.632 466.343 539.435 468.142L540.975 468.912C542.901 469.812 542.773 472.51 540.847 473.281L509.134 486.386L504.64 493.709C500.147 500.904 497.707 509.256 497.707 517.735V529.299C491.287 533.153 482.3 534.823 471.13 534.438L431.457 498.463C430.686 491.782 430.43 485.23 430.301 478.934C430.301 467.371 433.768 456.193 440.316 446.685L450.202 446.043L476.651 460.304L509.134 427.413L518.635 416.364L539.435 391.952L538.536 377.177C537.766 363.558 538.022 350.838 540.847 340.431C564.343 359.703 589.765 358.804 617.754 333.236ZM385.107 28.2213C385.877 36.1871 372.139 45.1808 362.253 50.7055C360.199 51.7334 358.145 52.2473 355.962 52.1188C353.394 51.8619 350.826 50.834 348.9 49.0353V48.9068C348.13 48.2644 347.488 47.365 346.846 46.3372L345.947 44.7954C327.972 50.0631 327.459 44.7954 327.459 44.7954L342.609 35.6732C346.461 33.2321 350.698 31.5618 355.191 30.5339L400.386 20.2554C394.865 23.2105 389.857 25.7801 385.107 28.2213ZM492.957 105.182C493.085 105.182 493.213 105.182 493.213 105.182L472.542 59.1853C481.915 53.0182 490.132 45.1808 493.855 31.5618C498.991 12.675 481.401 -4.54147 462.656 1.2402C456.493 3.03894 449.817 5.99401 442.627 9.71997C388.959 -9.42376 342.737 -0.687029 305.889 42.7397L302.936 56.3587L288.299 68.436L315.647 63.0397C318.343 62.3973 320.14 65.7379 318.214 67.6651L302.807 83.7253C302.294 84.3677 301.523 84.7531 300.753 84.8816L300.111 85.0101C299.726 85.1385 299.469 85.1385 299.212 85.1385C298.185 85.1385 297.158 84.7531 296.388 84.1107L291.38 79.6138L300.111 106.595C300.496 107.494 301.01 108.265 301.652 108.779C302.807 109.678 304.22 110.064 305.632 109.678L310.126 108.779L311.795 115.203C313.207 120.599 318.6 123.811 323.992 122.655L357.888 115.203L399.744 164.669C400.257 165.054 400.386 165.439 400.386 165.439C403.852 172.634 410.529 180.215 418.489 187.024L418.874 187.153C436.592 202.314 462.528 203.727 481.53 190.365C505.796 173.534 512.857 146.938 492.957 105.182Z" fill="#B287FD"/>
<path d="M401.055 20C395.534 22.9551 390.399 25.5247 385.777 27.9658C376.661 32.4627 369.086 35.9317 362.666 38.6298C356.76 41.0709 351.753 42.8697 347.772 44.1545C347.387 44.283 346.874 44.4115 346.489 44.5399C328.642 49.8077 328 44.5399 328 44.5399L343.15 35.4178C347.13 32.9766 351.367 31.3064 355.733 30.2785L401.055 20Z" fill="#434242"/>
<path d="M305.247 96.4447L303.707 108.393L299.085 107.88L301.011 93.2327L297.287 84.6244L301.652 82.8257L305.247 91.177L324.25 100.685C326.689 101.841 329.257 102.226 331.696 101.969C334.136 101.712 336.575 100.685 338.629 99.0143L361.869 79.8706L364.822 83.4681L341.583 102.612C338.758 104.924 335.548 106.209 332.21 106.595C328.872 106.98 325.405 106.466 322.195 104.924L305.247 96.4447Z" fill="#434242"/>
<path d="M318.407 67.7061L303 83.7663C302.358 84.4087 301.716 84.7942 300.817 84.9226L300.175 85.0511C299.918 85.1796 299.533 85.1796 299.276 85.1796C298.249 85.1796 297.35 84.7942 296.58 84.1517L291.444 79.6549L284.896 73.7448C283.227 72.203 283.998 69.3764 286.309 68.9909L288.491 68.477L315.711 63.0808C318.535 62.4384 320.204 65.7789 318.407 67.7061Z" fill="#434242"/>
<path d="M305.72 43L285.82 53.7924C284.407 54.5633 284.921 56.7475 286.59 56.7475L302.639 56.619L305.72 43Z" fill="#434242"/>
<path d="M532.373 242.4C532.887 259.359 534.299 275.677 537.509 290.452C535.326 299.446 535.326 317.433 535.454 335.42" stroke="#206EF8" stroke-width="2.04802" stroke-miterlimit="10"/>
<path d="M508.878 426.771L476.266 459.662L449.817 445.401L439.931 446.043L379.844 450.026L340.555 452.724L346.205 487.542L368.288 507.329C370.728 509.384 372.525 512.082 373.809 515.038L374.323 516.322L383.695 539.449L401.157 550.884L402.826 561.034C404.366 587.501 389.088 601.377 359.558 604.718C355.449 605.231 351.212 605.488 346.59 605.617C343.765 605.617 341.069 603.69 340.299 600.863L338.886 595.595C338.373 593.925 337.346 592.64 335.805 591.741L304.092 574.139C301.909 572.854 300.625 570.67 300.754 568.229L301.139 558.593C301.267 556.666 300.369 554.738 298.828 553.453L293.307 548.828C292.023 547.672 291.124 546.13 290.996 544.331L290.226 530.584C290.226 529.042 289.584 527.629 288.685 526.601C282.394 519.663 276.488 512.725 270.71 506.044C266.73 501.29 262.878 496.536 259.283 491.911C250.167 480.348 242.207 469.17 235.916 458.634C234.76 456.707 233.733 454.78 232.706 452.981C230.78 449.384 228.982 445.786 227.57 442.317C227.185 441.418 226.671 440.39 226.286 439.49C218.069 418.548 226.543 394.779 246.059 383.73C260.952 375.25 278.799 368.569 298.699 362.787C304.991 369.34 311.025 374.093 316.931 376.406C317.958 376.792 318.215 378.076 317.316 378.719L298.956 393.623C298.186 394.137 298.828 395.421 299.855 395.164L328.101 386.942C328.743 386.685 329.257 387.199 329.257 387.841V401.588C329.257 402.488 330.541 402.873 331.054 401.974L342.61 379.747C343.123 378.59 344.921 378.847 345.178 380.132L347.103 389.897C347.36 390.925 348.773 390.925 348.901 389.897L352.239 370.367C352.881 366.256 354.55 362.402 356.99 359.061C359.686 355.207 362.382 351.481 364.822 347.626H364.95C381.513 344.543 398.589 341.716 415.537 338.89L420.287 331.052L426.065 334.65L437.492 325.271L441.215 332.08L449.817 328.74L459.96 345.571C475.624 377.562 484.997 423.045 508.878 426.771Z" fill="#434242"/>
<path d="M632.519 316.533C627.383 322.7 622.376 328.097 617.368 332.594C589.507 358.161 560.49 361.502 542.002 340.945C540.59 339.403 540.461 339.788 540.461 340.816L538.664 368.311C538.279 374.35 538.279 380.517 538.792 386.556C538.921 388.098 539.049 389.639 539.177 391.31C530.447 402.359 523.513 408.526 518.249 415.721L508.877 426.77C484.996 423.044 474.082 378.461 458.418 346.469C455.337 340.302 452.898 333.75 449.816 328.739L447.762 324.371L454.053 320.388L449.816 312.679L459.574 305.484C453.411 301.244 450.33 294.178 449.816 284.927L413.866 260.387L415.407 290.452C380.741 297.518 348.771 290.58 319.626 288.01C317.443 287.754 315.261 287.625 313.078 287.368L337.601 234.305V228.01L343.379 226.725L350.184 185.996C350.954 178.673 355.833 172.506 362.766 170.193C390.242 161.456 397.432 162.741 399.358 164.026L400.128 164.797C403.466 171.992 410.271 179.572 418.232 186.382L418.488 186.639C436.207 201.671 462.142 203.084 481.272 189.722C505.538 172.891 512.472 146.296 492.699 104.539C492.699 104.539 492.828 104.539 492.956 104.539C523 113.533 550.091 125.482 572.303 142.184C604.914 166.596 623.66 205.397 624.173 246.254C624.302 260.515 624.045 272.85 623.146 282.1C628.282 288.01 630.464 302.4 632.519 316.533Z" fill="white"/>
<path d="M627.513 419.961C627.641 422.017 626.999 424.072 625.587 425.871L622.249 430.111C619.681 426.642 615.572 424.586 611.335 424.586C610.693 424.586 609.923 424.586 609.281 424.715L595.928 426.771H595.543L612.619 358.29V358.033L614.16 352.38L616.214 368.055L621.735 410.967L624.945 414.051C626.486 415.721 627.384 417.777 627.513 419.961Z" fill="#434242"/>
<path d="M598.495 667.416C591.177 677.952 580.007 684.89 567.424 686.945C555.612 689.001 543.286 689.001 530.447 687.716C519.405 686.56 509.262 680.65 502.714 671.656C496.038 662.405 490.517 652.512 486.023 641.977C469.461 627.972 454.952 606.002 440.958 582.105C440.316 580.948 439.288 580.177 438.004 579.792L425.807 576.58C424.01 576.066 423.111 574.01 423.881 572.34L424.266 571.569C425.294 569.385 424.652 566.815 422.597 565.402L401.156 550.884C399.872 543.946 399.102 537.136 399.102 530.584C399.102 529.556 399.102 528.528 399.102 527.629C399.102 527.5 399.102 527.5 399.23 527.372C399.23 526.729 399.358 525.958 399.487 525.316C399.487 525.187 399.487 525.059 399.487 525.059C400.899 515.551 407.575 507.585 416.435 503.859L431.071 497.821L470.745 533.796L499.119 542.661L497.322 528.656V517.093C497.322 508.613 499.761 500.262 504.255 493.067L508.877 485.744L540.59 472.638C542.388 471.868 542.516 469.169 540.718 468.27L539.178 467.499C551.247 465.7 562.16 461.846 571.019 454.523L558.565 467.885C556.896 469.683 558.693 472.51 561.004 471.868C574.101 468.142 584.629 462.745 585.913 450.54C586.041 449.897 586.811 449.769 586.94 450.283L592.332 463.002C592.589 463.516 593.359 463.388 593.359 462.745V441.674C593.359 437.692 594.001 433.709 595.029 429.854C595.285 428.826 595.67 427.798 595.927 426.771L609.28 424.715C609.922 424.586 610.692 424.586 611.334 424.586C615.571 424.586 619.68 426.642 622.248 430.111C633.033 558.207 623.018 632.084 598.495 667.416Z" fill="#434242"/>
<path d="M197.783 269.766L187.511 269.509C182.889 271.308 178.524 273.878 174.287 277.09C171.847 278.888 168.509 277.861 167.482 275.034C164.914 268.224 161.833 262.186 157.596 257.689C164.144 258.588 169.793 257.946 173.902 255.119C176.598 253.192 180.45 253.192 183.403 254.862L199.323 264.113C202.02 265.655 200.864 269.766 197.783 269.766Z" fill="#434242"/>
<path d="M128.45 292.251C121.645 293.536 113.428 286.598 105.082 278.632C99.5616 272.208 91.9864 270.28 82.357 272.722C80.5595 273.236 79.5324 275.163 80.3027 276.961L81.3299 279.531C75.809 277.475 71.1868 277.989 67.3351 280.174C65.1524 281.458 64.6388 284.285 66.3079 286.212V286.341L35.6221 283.129C33.5678 283 31.8987 281.587 31.2568 279.66C31.1284 279.017 31 278.375 31 277.732C31 275.677 32.0271 273.749 33.8246 272.593L67.4635 251.137C69.261 249.98 71.3152 249.466 73.4979 249.595L116.766 253.192C116.509 254.734 116.381 256.404 116.509 258.075C116.638 263.214 118.05 268.225 120.233 272.85C123.828 279.917 126.652 286.598 128.45 292.251Z" fill="#434242"/>
<path d="M153.744 298.032L136.924 268.867C135.769 266.683 135.127 264.113 134.998 261.672C134.998 259.36 134.87 257.175 134.613 255.12L140.263 255.762C138.979 266.041 147.838 283 153.744 298.032Z" fill="#434242"/>
<path d="M239.509 482.531C238.996 484.073 232.833 483.688 225.771 481.632C225.643 481.632 225.515 481.504 225.386 481.504C218.453 479.448 213.189 476.621 213.703 475.079C213.959 473.795 218.068 473.795 223.204 474.951C224.616 475.208 225.9 475.593 227.441 475.979C234.502 478.035 239.895 480.99 239.509 482.531Z" fill="#434242"/>
<path d="M248.496 500.519C248.496 501.418 246.699 502.061 244.131 502.446C242.077 502.703 239.509 502.703 236.813 502.575C230.393 502.061 225.386 500.391 225.514 498.72C225.643 497.307 230.008 496.408 235.657 496.536C236.171 496.665 236.684 496.665 237.198 496.665C243.617 497.179 248.625 498.849 248.496 500.519Z" fill="#434242"/>
<path d="M235.915 458.634C233.347 458.505 229.752 457.863 225.772 456.707C224.616 456.45 223.589 456.064 222.562 455.679C217.041 453.88 213.318 451.567 213.703 450.154C214.088 448.869 218.454 448.998 223.975 450.283C225.13 450.54 226.157 450.797 227.441 451.182C229.367 451.696 231.164 452.338 232.705 452.981C233.732 454.78 234.759 456.707 235.915 458.634Z" fill="#434242"/>
<path d="M490.773 736.025C490.388 736.539 489.233 736.668 487.692 736.411C485.253 736.025 481.786 734.74 478.191 732.813C472.028 729.601 467.534 725.875 468.305 724.462C469.075 723.049 474.596 724.462 480.887 727.674C484.611 729.601 487.692 731.657 489.361 733.456C490.517 734.483 491.03 735.383 490.773 736.025Z" fill="#434242"/>
<path d="M496.294 704.547C496.038 705.061 495.139 705.19 493.855 705.061C491.672 704.804 488.206 703.648 484.482 701.721C478.705 698.766 474.596 695.168 475.366 693.755C476.008 692.342 481.401 693.498 487.178 696.581C489.618 697.866 491.929 699.279 493.47 700.564C495.652 702.235 496.679 703.776 496.294 704.547Z" fill="#434242"/>
<path d="M465.352 764.805C464.838 765.447 463.169 765.062 460.986 763.905C458.675 762.878 455.851 761.079 452.898 758.766C446.992 754.012 443.011 749.258 444.038 747.974C445.066 746.689 450.586 749.515 456.493 754.141C460.216 757.096 463.169 760.051 464.581 762.107C465.48 763.391 465.737 764.291 465.352 764.805Z" fill="#434242"/>
<path d="M428.76 768.274C427.476 769.687 423.496 768.659 419.131 765.704C418.489 765.19 417.847 764.805 417.205 764.291C412.326 760.437 409.373 755.811 410.785 754.013C412.069 752.342 417.205 754.013 422.212 757.995C425.936 760.951 428.504 764.291 429.017 766.475C429.146 767.246 429.017 767.76 428.76 768.274Z" fill="#434242"/>
<path d="M363.409 43.125C363.409 47.4933 359.942 51.0908 355.706 51.4763C353.009 51.2193 350.57 50.1914 348.644 48.3927L348.516 48.2642C347.745 47.6218 347.103 46.7224 346.59 45.6946L345.562 44.1528C345.948 44.0243 346.461 43.8959 346.846 43.7674C350.827 42.4826 355.834 40.6838 361.74 38.2427C362.767 39.656 363.409 41.3262 363.409 43.125Z" fill="#434242"/>
<path fill-rule="evenodd" clip-rule="evenodd" d="M48.1001 233.7C48.5419 234.031 48.6314 234.658 48.3001 235.1L39.3001 247.1C38.9687 247.542 38.3419 247.631 37.9001 247.3C37.4582 246.969 37.3687 246.342 37.7001 245.9L46.7001 233.9C47.0314 233.458 47.6582 233.369 48.1001 233.7Z" fill="#434242"/>
<path fill-rule="evenodd" clip-rule="evenodd" d="M23.6001 270.2C24.0419 270.531 24.1314 271.158 23.8001 271.6L14.8001 283.6C14.4687 284.042 13.8419 284.131 13.4001 283.8C12.9582 283.469 12.8687 282.842 13.2001 282.4L22.2001 270.4C22.5314 269.958 23.1582 269.869 23.6001 270.2Z" fill="#434242"/>
<path fill-rule="evenodd" clip-rule="evenodd" d="M17.9767 259.768C17.9466 260.32 17.4752 260.743 16.9237 260.713L1.94597 259.896C1.3945 259.866 0.971817 259.395 1.00187 258.843C1.03193 258.292 1.50335 257.869 2.05481 257.899L17.0326 258.716C17.584 258.746 18.0067 259.217 17.9767 259.768Z" fill="#434242"/>
<path fill-rule="evenodd" clip-rule="evenodd" d="M27.2077 247.279C26.7148 247.528 26.1133 247.331 25.8641 246.838L19.0972 233.451C18.848 232.958 19.0456 232.357 19.5385 232.107C20.0314 231.858 20.6329 232.056 20.8821 232.549L27.6491 245.936C27.8982 246.429 27.7006 247.03 27.2077 247.279Z" fill="#434242"/>
</svg>
