<svg width="45" height="45" viewBox="0 0 45 45" xmlns="http://www.w3.org/2000/svg">
<path fill-rule="evenodd" clip-rule="evenodd" d="M25.0928 10.5009C24.7333 9.45652 23.5952 8.9013 22.5507 9.26082C21.5063 9.62034 20.9511 10.7585 21.3106 11.8029L22.4512 15.1163L17.5836 16.7919L16.4405 13.4712C16.0809 12.4267 14.9428 11.8715 13.8984 12.231C12.854 12.5906 12.2988 13.7287 12.6583 14.7731L13.8014 18.0938L10.4882 19.2343C9.44382 19.5938 8.8886 20.732 9.24812 21.7764C9.60765 22.8208 10.7458 23.376 11.7902 23.0165L15.1033 21.876L16.7791 26.7441L13.457 27.8876C12.4126 28.2472 11.8574 29.3853 12.2169 30.4297C12.5764 31.4741 13.7145 32.0293 14.7589 31.6698L18.081 30.5263L19.2216 33.8398C19.5811 34.8842 20.7193 35.4394 21.7637 35.0799C22.8081 34.7204 23.3633 33.5822 23.0038 32.5378L21.8632 29.2243L26.7308 27.5487L27.874 30.8696C28.2335 31.914 29.3716 32.4692 30.416 32.1097C31.4604 31.7501 32.0157 30.612 31.6561 29.5676L30.513 26.2468L33.8256 25.1065C34.87 24.747 35.4252 23.6088 35.0657 22.5644C34.7062 21.52 33.5681 20.9648 32.5237 21.3243L29.2111 22.4646L27.5353 17.5965L30.8569 16.4532C31.9013 16.0936 32.4565 14.9555 32.097 13.9111C31.7375 12.8667 30.5993 12.3115 29.5549 12.671L26.2334 13.8143L25.0928 10.5009ZM23.7531 18.8985L18.8855 20.5741L20.5612 25.4421L25.4289 23.7665L23.7531 18.8985Z" />
<path fill-rule="evenodd" clip-rule="evenodd" d="M33.2208 1.64256C37.7053 4.06723 40.4402 9.03531 42.5519 16.0954C44.6665 23.1196 45.0867 28.7537 42.6479 33.2391C40.2125 37.7181 35.2497 40.4533 28.233 42.5657C21.2082 44.6806 15.5736 45.1011 11.088 42.6621C6.60898 40.2267 3.87382 35.2639 1.76135 28.2472C-0.353536 21.2224 -0.773992 15.5878 1.66501 11.1021C4.10036 6.62317 9.06314 3.88801 16.0799 1.77554C23.0974 -0.337158 28.7331 -0.783809 33.2208 1.64256ZM31.3184 5.1612C28.3123 3.5359 24.0388 3.55675 17.233 5.60572C10.4264 7.65492 6.81836 9.99809 5.17913 13.0129C3.54355 16.021 3.54476 20.2955 5.59154 27.0941C7.64074 33.9007 9.98391 37.5087 12.9987 39.1479C16.0068 40.7835 20.2813 40.7823 27.0799 38.7355C33.8865 36.6863 37.4945 34.3432 39.1338 31.3284C40.7693 28.3203 40.7681 24.0457 38.7214 17.2472L38.7203 17.2437C36.6705 10.39 34.3271 6.78795 31.3184 5.1612Z" />
</svg>
