<svg width="26" height="21" viewBox="0 0 26 21" fill="none" xmlns="http://www.w3.org/2000/svg">
<path d="M19.0604 5.89634L18.866 3.40391C18.7587 2.02738 17.5557 0.998524 16.1792 1.10589L3.71704 2.07793C2.34051 2.1853 1.31165 3.38824 1.41902 4.76477L2.00224 12.2421C2.10961 13.6186 3.31255 14.6474 4.68908 14.5401L7.18151 14.3457M10.0628 19.1361L22.5249 18.1641C23.9014 18.0567 24.9303 16.8538 24.8229 15.4772L24.2397 7.99996C24.1323 6.62343 22.9294 5.59457 21.5529 5.70194L9.09071 6.67397C7.71418 6.78134 6.68532 7.98428 6.79269 9.36081L7.37592 16.8381C7.48328 18.2146 8.68622 19.2435 10.0628 19.1361ZM18.3002 12.2246C18.4076 13.6012 17.3787 14.8041 16.0022 14.9115C14.6257 15.0188 13.4227 13.99 13.3154 12.6134C13.208 11.2369 14.2369 10.034 15.6134 9.9266C16.9899 9.81923 18.1929 10.8481 18.3002 12.2246Z" stroke="#8A53FF" stroke-width="2" stroke-linecap="round" stroke-linejoin="round"/>
</svg>
