<svg width="22" height="13" viewBox="0 0 22 13" xmlns="http://www.w3.org/2000/svg">
<path fill-rule="evenodd" clip-rule="evenodd" d="M17.1111 12.8613C16.6969 12.8613 16.3611 12.5255 16.3611 12.1113L16.3611 2.90298L13.7705 5.67862C13.4879 5.98144 13.0133 5.9978 12.7105 5.71517C12.4077 5.43255 12.3913 4.95796 12.6739 4.65514L16.5628 0.488479C16.7047 0.336503 16.9032 0.250218 17.1111 0.250218C17.319 0.250218 17.5176 0.336502 17.6594 0.488479L21.5483 4.65514C21.8309 4.95796 21.8145 5.43255 21.5117 5.71518C21.2089 5.9978 20.7343 5.98144 20.4517 5.67862L17.8611 2.90298L17.8611 12.1113C17.8611 12.5255 17.5253 12.8613 17.1111 12.8613ZM4.88889 12.8613C4.681 12.8613 4.48244 12.775 4.3406 12.6231L0.451706 8.4564C0.16908 8.15359 0.185445 7.679 0.48826 7.39637C0.791072 7.11375 1.26566 7.13011 1.54829 7.43292L4.13889 10.2086L4.13889 1.00022C4.13889 0.586006 4.47467 0.250219 4.88889 0.250219C5.3031 0.250219 5.63889 0.586006 5.63889 1.00022L5.63889 10.2086L8.22948 7.43292C8.51211 7.13011 8.9867 7.11375 9.28951 7.39637C9.59233 7.679 9.60869 8.15359 9.32607 8.4564L5.43718 12.6231C5.29533 12.775 5.09677 12.8613 4.88889 12.8613Z"/>
</svg>
