<svg width="15" height="15" viewBox="0 0 15 15" fill="none" xmlns="http://www.w3.org/2000/svg">
<path d="M0.305097 0.305097C0.711893 -0.101699 1.37144 -0.101699 1.77824 0.305097L7.29167 5.81853L12.8051 0.305097C13.2119 -0.101699 13.8714 -0.101699 14.2782 0.305097C14.685 0.711893 14.685 1.37144 14.2782 1.77824L8.76481 7.29167L14.2782 12.8051C14.685 13.2119 14.685 13.8714 14.2782 14.2782C13.8714 14.685 13.2119 14.685 12.8051 14.2782L7.29167 8.76481L1.77824 14.2782C1.37144 14.685 0.711893 14.685 0.305097 14.2782C-0.101699 13.8714 -0.101699 13.2119 0.305097 12.8051L5.81853 7.29167L0.305097 1.77824C-0.101699 1.37144 -0.101699 0.711893 0.305097 0.305097Z" fill="#222222"/>
</svg>
