<svg width="19" height="19" viewBox="0 0 19 19" xmlns="http://www.w3.org/2000/svg">
<path fill-rule="evenodd" clip-rule="evenodd" d="M0 1C0 0.447715 0.447715 0 1 0H5.16667C5.71895 0 6.16667 0.447715 6.16667 1C6.16667 1.55228 5.71895 2 5.16667 2H3.41421L6.91544 5.50123C7.30596 5.89175 7.30596 6.52492 6.91544 6.91544C6.52492 7.30596 5.89175 7.30596 5.50123 6.91544L2 3.41421V5.16667C2 5.71895 1.55228 6.16667 1 6.16667C0.447715 6.16667 0 5.71895 0 5.16667V1ZM13.5 0H17.6667C18.219 0 18.6667 0.447715 18.6667 1V5.16667C18.6667 5.71895 18.219 6.16667 17.6667 6.16667C17.1144 6.16667 16.6667 5.71895 16.6667 5.16667V3.41421L13.1654 6.91544C12.7749 7.30596 12.1418 7.30596 11.7512 6.91544C11.3607 6.52492 11.3607 5.89175 11.7512 5.50123L15.2525 2H13.5C12.9477 2 12.5 1.55228 12.5 1C12.5 0.447715 12.9477 0 13.5 0ZM6.91544 11.7512C7.30596 12.1418 7.30596 12.7749 6.91544 13.1654L3.41421 16.6667H5.16667C5.71895 16.6667 6.16667 17.1144 6.16667 17.6667C6.16667 18.219 5.71895 18.6667 5.16667 18.6667H1C0.447715 18.6667 0 18.219 0 17.6667V13.5C0 12.9477 0.447715 12.5 1 12.5C1.55228 12.5 2 12.9477 2 13.5V15.2525L5.50123 11.7512C5.89175 11.3607 6.52492 11.3607 6.91544 11.7512ZM11.7512 11.7512C12.1418 11.3607 12.7749 11.3607 13.1654 11.7512L16.6667 15.2525V13.5C16.6667 12.9477 17.1144 12.5 17.6667 12.5C18.219 12.5 18.6667 12.9477 18.6667 13.5V17.6667C18.6667 18.219 18.219 18.6667 17.6667 18.6667H13.5C12.9477 18.6667 12.5 18.219 12.5 17.6667C12.5 17.1144 12.9477 16.6667 13.5 16.6667H15.2525L11.7512 13.1654C11.3607 12.7749 11.3607 12.1418 11.7512 11.7512Z" />
</svg>
