<svg width="23" height="23" viewBox="0 0 23 23" xmlns="http://www.w3.org/2000/svg">
<path fill-rule="evenodd" clip-rule="evenodd" d="M5.09866 19.7776C5.09866 18.274 6.31752 17.0552 7.82107 17.0552C9.32461 17.0552 10.5435 18.274 10.5435 19.7776C10.5435 21.2811 9.32461 22.5 7.82107 22.5C6.31752 22.5 5.09866 21.2811 5.09866 19.7776ZM7.82107 18.8211C7.2928 18.8211 6.86455 19.2493 6.86455 19.7776C6.86455 20.3059 7.2928 20.7341 7.82107 20.7341C8.34934 20.7341 8.77759 20.3059 8.77759 19.7776C8.77759 19.2493 8.34934 18.8211 7.82107 18.8211Z"/>
<path fill-rule="evenodd" clip-rule="evenodd" d="M16.1354 19.7776C16.1354 18.274 17.3543 17.0552 18.8579 17.0552C20.3614 17.0552 21.5803 18.274 21.5803 19.7776C21.5803 21.2811 20.3614 22.5 18.8579 22.5C17.3543 22.5 16.1354 21.2811 16.1354 19.7776ZM18.8579 18.8211C18.3296 18.8211 17.9013 19.2493 17.9013 19.7776C17.9013 20.3059 18.3296 20.7341 18.8579 20.7341C19.3861 20.7341 19.8144 20.3059 19.8144 19.7776C19.8144 19.2493 19.3861 18.8211 18.8579 18.8211Z"/>
<path fill-rule="evenodd" clip-rule="evenodd" d="M0.5 1.38294C0.5 0.895307 0.895307 0.5 1.38294 0.5H3.45368C4.81873 0.502068 5.97119 1.51474 6.14882 2.86815L6.44312 5.09866H21.6171C21.8816 5.09866 22.1322 5.21729 22.2999 5.42191C22.4676 5.62652 22.5348 5.89555 22.4828 6.15496L20.9379 13.8702C20.6816 15.1606 19.5394 16.0826 18.2249 16.0619H8.51422C7.14055 16.0715 5.97464 15.056 5.79597 13.6935L4.39805 3.09878C4.33572 2.62337 3.93097 2.26689 3.45156 2.26589H1.38294C0.895307 2.26589 0.5 1.87058 0.5 1.38294ZM6.67612 6.86455L7.54676 13.4631C7.60957 13.9423 8.02009 14.3001 8.50338 14.296L8.51087 14.296L18.2324 14.296L18.2494 14.2961C18.7126 14.305 19.1156 13.9806 19.2059 13.5261L19.2061 13.5248L20.5398 6.86455H6.67612Z"/>
</svg>
