<svg width="23" height="23" viewBox="0 0 23 23" xmlns="http://www.w3.org/2000/svg">
<path d="M20.5406 8.03676C21.9272 8.03676 22.5188 9.79951 21.4129 10.636L17.9843 13.2294C17.1269 13.8779 16.7674 14.9937 17.0849 16.0207L18.3678 20.1702C18.7839 21.5163 17.2254 22.602 16.1069 21.7452L13.0532 19.4058C12.1367 18.7037 10.8633 18.7037 9.94682 19.4058L6.86977 21.763C5.7529 22.6186 4.19587 21.5371 4.60777 20.1918L5.87301 16.0595C6.18529 15.0396 5.83084 13.933 4.98409 13.2843L1.52008 10.6306C0.422877 9.7901 1.01728 8.03676 2.39944 8.03676H6.47492C7.59488 8.03676 8.58418 7.30711 8.91498 6.23712L10.1185 2.34417C10.5385 0.985639 12.4615 0.985637 12.8815 2.34417L14.085 6.23712C14.4158 7.30711 15.4051 8.03676 16.5251 8.03676H20.5406Z" stroke="#FFCE31" stroke-width="1.10801"/>
</svg>
