<svg width="20" height="20" viewBox="0 0 20 20" xmlns="http://www.w3.org/2000/svg">
<path fill-rule="evenodd" clip-rule="evenodd" d="M10.0001 0.916656C4.98349 0.916656 0.916748 4.9834 0.916748 9.99998C0.916748 15.0166 4.98349 19.0833 10.0001 19.0833C15.0166 19.0833 19.0834 15.0166 19.0834 9.99998C19.0834 4.9834 15.0166 0.916656 10.0001 0.916656ZM2.41674 9.99998C2.41674 5.81183 5.81191 2.41666 10.0001 2.41666C14.1882 2.41666 17.5834 5.81183 17.5834 9.99998C17.5834 14.1881 14.1882 17.5833 10.0001 17.5833C5.81191 17.5833 2.41674 14.1881 2.41674 9.99998ZM15.5 8.27553C15.7902 7.98001 15.7859 7.50515 15.4904 7.21491C15.1949 6.92467 14.72 6.92895 14.4298 7.22447L8.87498 12.9552L6.28507 10.3182C5.99483 10.0227 5.51998 10.0184 5.22446 10.3086C4.92894 10.5989 4.92466 11.0737 5.2149 11.3692L8.3399 14.5511C8.48092 14.6946 8.67373 14.7755 8.87498 14.7755C9.07624 14.7755 9.26905 14.6946 9.41007 14.5511L15.5 8.27553Z"/>
</svg>
