<svg width="50" height="40" viewBox="0 0 50 40" fill="none" xmlns="http://www.w3.org/2000/svg">
<path fill-rule="evenodd" clip-rule="evenodd" d="M24.5617 28.512C22.3222 30.3037 19.6328 31.4178 16.8006 31.7272C13.9685 32.0366 11.1079 31.5288 8.54589 30.2616C5.9839 28.9945 3.82385 27.0192 2.31263 24.5616C0.801412 22.1039 0 19.2631 0 16.3638C0 13.4645 0.801412 10.6237 2.31263 8.16604C3.82385 5.70841 5.9839 3.73314 8.54589 2.46599C11.1079 1.19885 13.9685 0.690949 16.8006 1.00036C19.6327 1.30976 22.3222 2.42392 24.5616 4.21552C26.8009 2.42392 29.4903 1.30975 32.3224 1.00035C35.1545 0.69095 38.015 1.19885 40.577 2.46601C43.1389 3.73317 45.2989 5.70844 46.81 8.16606C48.3212 10.6237 49.1225 13.4645 49.1223 16.3637C49.1225 19.263 48.3212 22.1038 46.81 24.5614C45.2989 27.0191 43.1389 28.9943 40.577 30.2615C38.015 31.5286 35.1545 32.0365 32.3224 31.7271C29.4904 31.4177 26.801 30.3036 24.5617 28.512ZM18.7637 16.3638C18.7616 14.0239 19.2825 11.7142 20.2871 9.6095C21.2916 7.50489 22.7533 5.66045 24.5616 4.21583C26.3683 5.66191 27.8289 7.50663 28.8332 9.6109C29.8376 11.7152 30.3594 14.0242 30.3594 16.3637C30.3594 18.7033 29.8376 21.0123 28.8332 23.1166C27.8289 25.2209 26.3683 27.0656 24.5615 28.5117C22.7533 27.0671 21.2915 25.2227 20.2871 23.1181C19.2825 21.0134 18.7616 18.7037 18.7637 16.3638ZM27.0452 28.3479C28.7055 29.3379 30.5591 29.963 32.4862 30.1736C35.0319 30.4517 37.6032 29.9951 39.906 28.8561C42.2089 27.7171 44.1505 25.9416 45.5088 23.7325C46.8671 21.5234 47.5874 18.9699 47.5873 16.3638C47.5874 13.7577 46.8671 11.2041 45.5088 8.995C44.1505 6.78591 42.2089 5.01039 39.906 3.87137C37.6032 2.73236 35.0319 2.27582 32.4862 2.55393C30.5591 2.76446 28.7055 3.38956 27.0452 4.37957C28.3367 5.70472 29.4086 7.24063 30.214 8.92813C31.3199 11.2452 31.8945 13.7877 31.8945 16.3637C31.8945 18.9398 31.3199 21.4822 30.214 23.7994C29.4086 25.4869 28.3367 27.0228 27.0452 28.3479Z" fill="white"/>
<path d="M47.6746 25.4406V25.938H47.5669V25.4406H47.3698V25.3392H47.8716V25.4406H47.6746Z" fill="white"/>
<path d="M48.6489 25.3382V25.938H48.5403V25.4846L48.3744 25.8756H48.2618L48.0958 25.4856V25.938H47.9872V25.3382H48.1411L48.3181 25.7508L48.495 25.3382H48.6489Z" fill="white"/>
<path d="M8.93612 37.0093V39.5843H8.05071V37.3011C8.05071 36.6059 7.76401 36.2197 7.16535 36.2197C7.02672 36.2132 6.88839 36.2376 6.76005 36.2914C6.6317 36.3451 6.51647 36.4268 6.42245 36.5306C6.32842 36.6345 6.25788 36.7581 6.21578 36.8927C6.17367 37.0273 6.16103 37.1696 6.17874 37.3097V39.5843H5.29333V37.3011C5.29333 36.6059 4.99815 36.2197 4.41632 36.2197C4.27732 36.2117 4.13832 36.2352 4.00931 36.2885C3.88029 36.3417 3.76446 36.4233 3.67014 36.5276C3.57581 36.6318 3.50533 36.756 3.46376 36.8912C3.42219 37.0264 3.41055 37.1693 3.4297 37.3097V39.5843H2.54429V35.4816H3.42131V35.9879C3.54891 35.7905 3.72495 35.6304 3.93202 35.5236C4.13908 35.4167 4.36998 35.3667 4.60186 35.3785C4.86787 35.367 5.13202 35.4286 5.36649 35.557C5.60097 35.6854 5.79708 35.8758 5.9342 36.1081C6.08464 35.8686 6.29543 35.6746 6.5446 35.5463C6.79377 35.418 7.0722 35.3601 7.35085 35.3785C7.56377 35.3657 7.77691 35.3993 7.97609 35.4769C8.17526 35.5546 8.35589 35.6746 8.5059 35.8289C8.65592 35.9832 8.77189 36.1683 8.84608 36.3719C8.92026 36.5754 8.95096 36.7927 8.93612 37.0093Z" fill="white"/>
<path d="M20.6067 35.4816H22.0402V36.2969H20.6067V38.1509C20.6067 38.5628 20.75 38.8375 21.1886 38.8375C21.4623 38.8283 21.7292 38.7486 21.9644 38.6058L22.2173 39.3697C21.8885 39.5784 21.5086 39.6885 21.1211 39.6873C20.0839 39.6873 19.7213 39.1207 19.7213 38.168V36.2969H18.9033V35.4816H19.7213V34.237H20.6067V35.4816Z" fill="white"/>
<path d="M28.9075 35.5303C29.0945 35.4245 29.306 35.3721 29.5198 35.3785C29.7326 35.3794 29.9436 35.4172 30.1438 35.4901L29.874 36.3313C29.6997 36.2606 29.5135 36.2256 29.326 36.2283C28.7525 36.2283 28.4658 36.6059 28.4658 37.2839V39.5843H27.5888V35.4816H28.4574V35.9794C28.565 35.7912 28.7205 35.636 28.9075 35.5303Z" fill="white"/>
<path d="M16.5675 35.3785C17.1447 35.3583 17.7155 35.5072 18.2119 35.8077L17.8324 36.5287C17.4498 36.3046 17.0174 36.1835 16.576 36.1768C16.0953 36.1768 15.8086 36.357 15.8086 36.6575C15.8086 36.9321 16.1122 37.0093 16.4917 37.0608L16.9049 37.1208C17.7818 37.2496 18.313 37.6273 18.313 38.3483C18.313 39.1293 17.6385 39.6873 16.4748 39.6873C15.852 39.7047 15.2401 39.5182 14.7293 39.1551L15.1424 38.4598C15.5294 38.7519 16.0016 38.9031 16.4832 38.889C17.0819 38.889 17.4024 38.7087 17.4024 38.3911C17.4024 38.1594 17.1746 38.0306 16.694 37.962L16.2808 37.902C15.3786 37.7733 14.8895 37.3612 14.8895 36.6917C14.8895 35.8763 15.5472 35.3785 16.5675 35.3785Z" fill="white"/>
<path d="M41.0924 35.5303C41.2794 35.4245 41.491 35.3721 41.7048 35.3785C41.9175 35.3794 42.1285 35.4172 42.3288 35.4901L42.059 36.3313C41.8847 36.2606 41.6984 36.2256 41.5108 36.2283C40.9374 36.2283 40.6507 36.6059 40.6507 37.2839V39.5843H39.7738V35.4816H40.6423V35.9794C40.7499 35.7912 40.9054 35.636 41.0924 35.5303Z" fill="white"/>
<path d="M30.5459 38.3792C30.4415 38.1101 30.3936 37.8218 30.4052 37.5328C30.3936 37.2438 30.4415 36.9555 30.5459 36.6865C30.6503 36.4174 30.8089 36.1736 31.0114 35.9707C31.214 35.7678 31.456 35.6103 31.722 35.5083C31.9879 35.4063 32.2718 35.3621 32.5556 35.3785C33.0821 35.3516 33.5994 35.5261 34.0059 35.8678L33.5843 36.5888C33.2811 36.3535 32.9115 36.2241 32.5302 36.2197C32.2016 36.24 31.893 36.3872 31.6673 36.6312C31.4417 36.8752 31.316 37.1977 31.316 37.5329C31.316 37.868 31.4417 38.1905 31.6673 38.4345C31.893 38.6786 32.2016 38.8258 32.5302 38.8461C32.9115 38.8417 33.2811 38.7122 33.5843 38.477L34.0059 39.198C33.5994 39.5397 33.0821 39.7142 32.5556 39.6873C32.2718 39.7037 31.9878 39.6595 31.7219 39.5575C31.456 39.4555 31.2139 39.298 31.0114 39.095C30.8088 38.8921 30.6503 38.6483 30.5459 38.3792Z" fill="white"/>
<path fill-rule="evenodd" clip-rule="evenodd" d="M38.6185 35.4816V39.5843H37.7415V39.0864C37.5918 39.2827 37.3981 39.4398 37.1766 39.5443C36.9551 39.6488 36.7121 39.6979 36.4682 39.6873C35.9248 39.6601 35.4124 39.4213 35.0373 39.0203C34.6621 38.6192 34.4529 38.0867 34.4529 37.5329C34.4529 36.9791 34.6621 36.4466 35.0373 36.0455C35.4124 35.6445 35.9248 35.4057 36.4682 35.3785C36.7121 35.3679 36.955 35.4169 37.1766 35.5215C37.3981 35.626 37.5918 35.783 37.7415 35.9794V35.4816H38.6185ZM35.5936 36.8632C35.4516 37.0579 35.3687 37.2907 35.3551 37.5328C35.3439 37.7024 35.3673 37.8725 35.4239 38.0325C35.4805 38.1924 35.569 38.3387 35.6839 38.462C35.7988 38.5854 35.9375 38.6832 36.0914 38.7493C36.2452 38.8154 36.4109 38.8484 36.5779 38.8461C36.8161 38.8452 37.0489 38.7734 37.2475 38.6395C37.4462 38.5056 37.6019 38.3155 37.6957 38.0925C37.7894 37.8696 37.817 37.6236 37.775 37.3849C37.733 37.1462 37.6233 36.9252 37.4595 36.7492C37.2956 36.5732 37.0847 36.4499 36.8527 36.3944C36.6208 36.3389 36.378 36.3538 36.1543 36.4371C35.9305 36.5204 35.7356 36.6685 35.5936 36.8632Z" fill="white"/>
<path fill-rule="evenodd" clip-rule="evenodd" d="M23.3368 36.0587C23.711 35.6516 24.2255 35.4078 24.7724 35.3785C25.9023 35.3785 26.6781 36.254 26.6865 37.5328C26.6865 37.653 26.6781 37.7646 26.6697 37.8761H23.6761C23.7096 38.1702 23.8542 38.4394 24.0792 38.6268C24.3043 38.8143 24.5922 38.9052 24.882 38.8804C25.3087 38.8739 25.7211 38.7229 26.0541 38.4513L26.4842 39.1121C26.0214 39.504 25.433 39.7088 24.8314 39.6873C24.2839 39.6735 23.763 39.4445 23.3778 39.0482C22.9926 38.6519 22.7732 38.1192 22.7656 37.5618C22.758 37.0044 22.9627 36.4657 23.3368 36.0587ZM25.4678 36.46C25.2765 36.2734 25.0204 36.1715 24.7555 36.1768C24.4846 36.1675 24.2209 36.2665 24.0207 36.4525C23.8206 36.6386 23.7 36.897 23.6846 37.1724H25.7758C25.7698 36.9028 25.659 36.6466 25.4678 36.46Z" fill="white"/>
<path fill-rule="evenodd" clip-rule="evenodd" d="M46.7558 33.8336V39.5843H45.8788V39.0864C45.7292 39.2827 45.5354 39.4398 45.3139 39.5443C45.0924 39.6488 44.8495 39.6979 44.6056 39.6873C44.0621 39.6602 43.5498 39.4214 43.1746 39.0203C42.7994 38.6193 42.5901 38.0867 42.5901 37.5329C42.5901 36.9791 42.7994 36.4466 43.1746 36.0455C43.5498 35.6445 44.0621 35.4056 44.6056 35.3785C44.8495 35.3679 45.0924 35.4169 45.3139 35.5215C45.5354 35.626 45.7291 35.783 45.8788 35.9794V33.8336H46.7558ZM43.7311 36.8633C43.589 37.058 43.5061 37.2907 43.4925 37.5328C43.4813 37.7024 43.5047 37.8725 43.5613 38.0324C43.6179 38.1924 43.7064 38.3386 43.8212 38.462C43.9361 38.5854 44.0748 38.6832 44.2287 38.7493C44.3825 38.8154 44.5482 38.8484 44.7152 38.8461C44.9534 38.8452 45.1862 38.7734 45.3848 38.6395C45.5834 38.5057 45.7392 38.3155 45.8329 38.0926C45.9267 37.8697 45.9543 37.6237 45.9123 37.385C45.8703 37.1463 45.7607 36.9254 45.5968 36.7494C45.4329 36.5733 45.222 36.45 44.9901 36.3945C44.7582 36.3391 44.5154 36.3539 44.2917 36.4372C44.068 36.5205 43.8731 36.6686 43.7311 36.8633Z" fill="white"/>
<path fill-rule="evenodd" clip-rule="evenodd" d="M48.3518 39.2391C48.3198 39.2154 48.2807 39.2039 48.2413 39.2065H48.0695V39.5853H48.149V39.4434H48.1854L48.2983 39.5853H48.3935L48.2718 39.4424C48.3043 39.4402 48.3353 39.427 48.3597 39.4049C48.3698 39.3949 48.3779 39.3829 48.3832 39.3695C48.3885 39.3562 48.391 39.3419 48.3906 39.3275C48.3913 39.3107 48.3882 39.294 48.3814 39.2786C48.3747 39.2633 48.3646 39.2497 48.3518 39.2391ZM48.149 39.3785V39.2775H48.2404C48.2579 39.2767 48.2753 39.281 48.2905 39.29C48.2965 39.294 48.3014 39.2996 48.3047 39.3062C48.308 39.3128 48.3095 39.3201 48.3091 39.3275C48.3096 39.335 48.3081 39.3425 48.3048 39.3493C48.3033 39.3524 48.3014 39.3553 48.2992 39.3579C48.2967 39.361 48.2938 39.3637 48.2905 39.3659C48.2753 39.375 48.2579 39.3794 48.2404 39.3785H48.149Z" fill="white"/>
<path fill-rule="evenodd" clip-rule="evenodd" d="M48.3764 39.0217C48.3262 39.0002 48.2722 38.9893 48.2177 38.9897C48.1623 38.9892 48.1074 39.0001 48.0563 39.0217C48.0077 39.0419 47.9635 39.0716 47.9262 39.1091C47.8893 39.1464 47.8598 39.1905 47.8392 39.2391C47.8182 39.289 47.8074 39.3428 47.8074 39.3972C47.8074 39.4516 47.8182 39.5054 47.8392 39.5554C47.8712 39.6303 47.9242 39.694 47.9915 39.7384C48.0588 39.7828 48.1375 39.8061 48.2177 39.8053C48.2722 39.8056 48.3263 39.7946 48.3764 39.7727C48.4246 39.7519 48.4685 39.7221 48.506 39.6848C48.5429 39.6478 48.5726 39.6038 48.5933 39.5554C48.6144 39.5054 48.6253 39.4516 48.6253 39.3972C48.6253 39.3428 48.6144 39.289 48.5933 39.2391C48.5727 39.1904 48.5431 39.1463 48.506 39.1091C48.4686 39.0719 48.4246 39.0422 48.3764 39.0217ZM48.3386 39.6903C48.3005 39.7071 48.2593 39.7156 48.2177 39.7153C48.1754 39.7156 48.1335 39.7071 48.0945 39.6903C48.0573 39.6744 48.0235 39.6513 47.9949 39.6223C47.9366 39.5625 47.9039 39.4817 47.9039 39.3974C47.9039 39.3132 47.9366 39.2324 47.9949 39.1725C48.0234 39.1436 48.0573 39.1207 48.0945 39.1051C48.1336 39.0886 48.1755 39.0803 48.2177 39.0806C48.2592 39.0803 48.3004 39.0886 48.3386 39.1051C48.3752 39.121 48.4085 39.1439 48.4367 39.1725C48.4949 39.2324 48.5276 39.3132 48.5276 39.3974C48.5276 39.4817 48.4949 39.5625 48.4367 39.6223C48.4085 39.6511 48.3752 39.6741 48.3386 39.6903Z" fill="white"/>
<path fill-rule="evenodd" clip-rule="evenodd" d="M13.8776 35.4816V39.5843H13.0006V39.0864C12.8509 39.2827 12.6572 39.4398 12.4356 39.5443C12.2141 39.6488 11.9712 39.6979 11.7273 39.6873C11.1839 39.6601 10.6715 39.4213 10.2964 39.0203C9.92119 38.6192 9.71194 38.0867 9.71194 37.5329C9.71194 36.9791 9.92119 36.4466 10.2964 36.0455C10.6715 35.6445 11.1839 35.4057 11.7273 35.3785C11.9712 35.3679 12.2141 35.4169 12.4356 35.5215C12.6572 35.626 12.8509 35.783 13.0006 35.9794V35.4816H13.8776ZM10.8528 36.8633C10.7108 37.058 10.6279 37.2907 10.6142 37.5328C10.603 37.7024 10.6264 37.8725 10.683 38.0324C10.7396 38.1924 10.8281 38.3386 10.943 38.462C11.0579 38.5854 11.1966 38.6832 11.3504 38.7493C11.5043 38.8154 11.6699 38.8483 11.8369 38.8461C12.0751 38.8452 12.3079 38.7734 12.5065 38.6396C12.7052 38.5057 12.8609 38.3155 12.9547 38.0926C13.0484 37.8697 13.076 37.6237 13.0341 37.385C12.9921 37.1463 12.8824 36.9254 12.7186 36.7494C12.5547 36.5733 12.3438 36.45 12.1119 36.3945C11.88 36.3391 11.6372 36.3539 11.4134 36.4372C11.1897 36.5205 10.9948 36.6686 10.8528 36.8633Z" fill="white"/>
</svg>
