<svg width="20" height="22" viewBox="0 0 20 22" xmlns="http://www.w3.org/2000/svg">
<path fill-rule="evenodd" clip-rule="evenodd" d="M10 20.25C10.8372 20.25 11.5 19.5821 11.5 18.7778C11.5 17.9734 10.8372 17.3056 10 17.3056C9.16276 17.3056 8.5 17.9734 8.5 18.7778C8.5 19.5821 9.16276 20.25 10 20.25ZM12.9039 19.5278C12.5677 20.811 11.389 21.75 10 21.75C8.611 21.75 7.43233 20.811 7.09611 19.5278L1 19.5278C0.585787 19.5278 0.25 19.192 0.25 18.7778C0.25 18.3636 0.585786 18.0278 1 18.0278L7.09611 18.0278C7.43233 16.7446 8.611 15.8056 10 15.8056C11.389 15.8056 12.5677 16.7446 12.9039 18.0278L19 18.0278C19.4142 18.0278 19.75 18.3636 19.75 18.7778C19.75 19.192 19.4142 19.5278 19 19.5278L12.9039 19.5278ZM3.25 12.4722C4.08724 12.4722 4.75 11.8043 4.75 11C4.75 10.1957 4.08724 9.52778 3.25 9.52778C2.41276 9.52778 1.75 10.1957 1.75 11C1.75 11.8043 2.41276 12.4722 3.25 12.4722ZM6.15389 11.75C5.81767 13.0332 4.63899 13.9722 3.25 13.9722C1.60196 13.9722 0.249999 12.6503 0.249999 11C0.249999 9.34973 1.60196 8.02778 3.25 8.02778C4.63899 8.02778 5.81767 8.96681 6.15389 10.25L19 10.25C19.4142 10.25 19.75 10.5858 19.75 11C19.75 11.4142 19.4142 11.75 19 11.75L6.15389 11.75ZM16.75 4.69444C17.5872 4.69444 18.25 4.02655 18.25 3.22222C18.25 2.41789 17.5872 1.75 16.75 1.75C15.9128 1.75 15.25 2.41789 15.25 3.22222C15.25 4.02655 15.9128 4.69444 16.75 4.69444ZM19.75 3.22222C19.75 4.87249 18.398 6.19444 16.75 6.19444C15.361 6.19444 14.1823 5.25541 13.8461 3.97222L0.999998 3.97222C0.585785 3.97222 0.249998 3.63644 0.249998 3.22222C0.249998 2.80801 0.585785 2.47222 0.999998 2.47222L13.8461 2.47222C14.1823 1.18903 15.361 0.25 16.75 0.25C18.398 0.249998 19.75 1.57195 19.75 3.22222Z"/>
</svg>
