<svg width="173" height="173" viewBox="0 0 173 173" fill="none" xmlns="http://www.w3.org/2000/svg">
<path d="M79.0652 22.265C83.0355 26.6647 89.9394 26.6657 93.9111 22.2673L110.522 3.8721C116.828 -3.11194 128.412 1.68767 127.93 11.0854L126.663 35.8387C126.36 41.7578 131.242 46.6402 137.161 46.3371L161.915 45.0695C171.312 44.5882 176.112 56.1719 169.128 62.4783L150.733 79.0888C146.334 83.0605 146.335 89.9644 150.735 93.9347L169.126 110.531C176.111 116.835 171.316 128.419 161.919 127.942L137.157 126.684C131.239 126.384 126.36 131.265 126.663 137.183L127.93 161.914C128.411 171.311 116.827 176.111 110.521 169.127L93.9111 150.733C89.9394 146.334 83.0355 146.335 79.0652 150.735L62.4696 169.125C56.1656 176.111 44.5809 171.315 45.0585 161.918L46.3157 137.179C46.6164 131.263 41.7372 126.384 35.8211 126.684L11.0822 127.941C1.68479 128.419 -3.11056 116.834 3.8751 110.53L22.2651 93.9347C26.6648 89.9644 26.6658 83.0605 22.2674 79.0888L3.87284 62.479C-3.11129 56.1725 1.68852 44.5887 11.0863 45.0701L35.817 46.3371C41.7345 46.6402 46.6163 41.7605 46.3157 35.8428L45.0578 11.0813C44.5805 1.68394 56.165 -3.11121 62.4689 3.87436L79.0652 22.265Z" fill="#B8EF2C"/>
</svg>
