<svg width="50" height="15" viewBox="0 0 50 15" fill="none" xmlns="http://www.w3.org/2000/svg">
<path d="M4.69449 0.511126C4.66894 0.511561 4.64527 0.511964 4.62366 0.512093L0 0.512136V14.1485H4.46794V6.10639H4.76755L7.25821 14.1485H10.6198L13.1104 6.11235H13.41V14.1485H17.878V0.512136L13.4943 0.512131C13.4603 0.512131 13.4233 0.511622 13.3835 0.511076C12.7592 0.502506 11.4717 0.484832 10.9375 2.2877C10.6055 3.40819 9.99553 5.50229 9.10759 8.56998H8.77039C7.9424 5.6602 7.33902 3.56611 6.96023 2.2877C6.42511 0.481672 5.19702 0.502573 4.69449 0.511126Z" fill="white"/>
<path d="M24.2939 8.55424V0.512136H19.7326V14.1485H24.0562C24.0562 14.1485 25.3691 14.0294 25.9572 12.7194L28.9274 6.10639H29.2839V14.1485H33.8451V0.512136H29.5215C29.5215 0.512136 28.2681 0.625276 27.6799 1.94127L24.6503 8.55424H24.2939Z" fill="white"/>
<path d="M44.7644 10.0864C46.9766 10.0864 48.9746 8.7952 49.6109 6.99222H35.6436V14.1485H39.981V10.0864H44.7644Z" fill="white"/>
<path d="M35.4161 0.512133H44.9736C48.651 0.512133 50.4286 3.62379 49.9122 6.14699H40.9645C38.258 6.14699 35.6435 3.54805 35.4161 0.512133Z" fill="white"/>
</svg>
