<svg width="1384" height="1379" viewBox="0 0 1384 1379" fill="none" xmlns="http://www.w3.org/2000/svg">
<path fill-rule="evenodd" clip-rule="evenodd" d="M443.559 782.868C372.248 793.576 315.98 796.09 272.386 792.777C220.816 788.857 191.868 777.167 176.302 766.089C154.797 750.785 139.045 720.082 161.137 642.618C182.747 566.847 235.03 472.877 304.274 374.871C372.647 278.1 453.888 182.487 528.246 104.152L419.453 0.883719C341.203 83.3197 255.116 184.5 181.767 288.316C109.289 390.897 45.4577 501.307 16.8891 601.479C-11.1969 699.959 -11.1909 816.763 89.3276 888.3C134.774 920.643 193.403 937.206 261.018 942.346C312.297 946.243 371.61 943.794 439.476 934.913C453.948 1091.84 527.475 1247.95 673.608 1378.78L773.662 1267.03C653.031 1159.03 596.11 1033.44 587.824 908.673C1017.71 816.722 1270.07 630.892 1353.45 457.977C1398.07 365.432 1399.75 256.625 1316.64 187.947C1241.2 125.615 1124.67 123.382 998.764 161.973C740.837 241.033 544.461 438.675 469.638 670.735C457.801 707.447 449.041 744.945 443.559 782.868ZM602.408 751.645C980.064 661.902 1166.04 501.277 1218.33 392.829C1246.68 334.038 1230 310.946 1221.09 303.577C1204.49 289.862 1151.97 271.901 1042.72 305.387C830.354 370.483 671.764 532.652 612.4 716.766C608.682 728.3 605.346 739.932 602.408 751.645Z" fill="#EEEEF9"/>
</svg>
