<svg width="21" height="19" viewBox="0 0 21 19" xmlns="http://www.w3.org/2000/svg">
<path d="M10.5 2.02765C8.14418 -0.083106 4.52125 -0.00653458 2.25736 2.25736C-0.0857865 4.6005 -0.0857865 8.3995 2.25736 10.7426L9.08579 17.5711C9.86684 18.3521 11.1332 18.3521 11.9142 17.5711L18.7426 10.7426C21.0858 8.3995 21.0858 4.6005 18.7426 2.25736C16.4787 -0.00653458 12.8558 -0.083106 10.5 2.02765ZM9.32843 3.67157L9.79289 4.13604C10.1834 4.52656 10.8166 4.52656 11.2071 4.13604L11.6716 3.67157C13.2337 2.10948 15.7663 2.10948 17.3284 3.67157C18.8905 5.23367 18.8905 7.76633 17.3284 9.32843L10.5 16.1569L3.67157 9.32843C2.10948 7.76633 2.10948 5.23367 3.67157 3.67157C5.23367 2.10948 7.76633 2.10948 9.32843 3.67157Z"/>
</svg>
