<svg width="22" height="24" viewBox="0 0 22 24" xmlns="http://www.w3.org/2000/svg">
<path fill-rule="evenodd" clip-rule="evenodd" d="M12.0833 1.5835C12.0833 1.03121 12.531 0.583496 13.0833 0.583496H18.2917C19.9945 0.583496 21.375 1.96395 21.375 3.66683V20.3335C21.375 22.0364 19.9945 23.4168 18.2917 23.4168H13.0833C12.531 23.4168 12.0833 22.9691 12.0833 22.4168C12.0833 21.8645 12.531 21.4168 13.0833 21.4168H18.2917C18.89 21.4168 19.375 20.9318 19.375 20.3335V3.66683C19.375 3.06852 18.89 2.5835 18.2917 2.5835H13.0833C12.531 2.5835 12.0833 2.13578 12.0833 1.5835ZM9.25123 7.12639C9.64175 6.73587 10.2749 6.73587 10.6654 7.12639L14.8321 11.2931C15.0196 11.4806 15.125 11.7349 15.125 12.0002C15.125 12.2654 15.0196 12.5197 14.8321 12.7073L10.6654 16.8739C10.2749 17.2645 9.64175 17.2645 9.25123 16.8739C8.8607 16.4834 8.8607 15.8502 9.25123 15.4597L11.7108 13.0002L1.625 13.0002C1.07272 13.0002 0.625 12.5524 0.625 12.0002C0.625 11.4479 1.07272 11.0002 1.625 11.0002L11.7108 11.0002L9.25123 8.5406C8.8607 8.15008 8.8607 7.51691 9.25123 7.12639Z"/>
</svg>
