<svg width="50" height="17" viewBox="0 0 50 17" fill="none" xmlns="http://www.w3.org/2000/svg">
<path d="M24.7568 0.285219L21.4163 15.9023H17.3758L20.7166 0.285219H24.7568ZM41.7547 10.3694L43.8812 4.50484L45.1049 10.3694H41.7547ZM46.2641 15.9023H50L46.7361 0.285219H43.29C42.5134 0.285219 41.8586 0.735526 41.5688 1.42996L35.5065 15.9023H39.7497L40.592 13.57H45.7748L46.2641 15.9023ZM35.7169 10.8039C35.7345 6.68226 30.0193 6.45395 30.0575 4.61232C30.0698 4.05277 30.6037 3.45669 31.7706 3.30425C32.3491 3.22978 33.9456 3.16937 35.7552 4.00325L36.463 0.690215C35.4911 0.338609 34.2403 0 32.6839 0C28.6898 0 25.8801 2.12158 25.8576 5.16203C25.8319 7.41041 27.8647 8.66404 29.393 9.41291C30.9687 10.1783 31.4966 10.669 31.4889 11.3529C31.478 12.4007 30.2325 12.8647 29.0726 12.8823C27.0403 12.9139 25.8622 12.3329 24.9233 11.8952L24.1898 15.3189C25.1354 15.7516 26.8776 16.1282 28.6817 16.1475C32.928 16.1475 35.7043 14.0509 35.7169 10.8039ZM18.9835 0.285219L12.4372 15.9023H8.16702L4.94531 3.43878C4.75001 2.67234 4.57966 2.39064 3.98568 2.06678C3.01411 1.5392 1.41029 1.04568 0 0.738688L0.0955423 0.285219H6.97029C7.84597 0.285219 8.63383 0.867949 8.8344 1.87675L10.5362 10.9145L14.739 0.285219H18.9835Z" fill="white"/>
</svg>
