<svg width="285" height="224" viewBox="0 0 285 224" fill="none" xmlns="http://www.w3.org/2000/svg">
<path fill-rule="evenodd" clip-rule="evenodd" d="M172.613 1.99999L6.72326e-08 2L0 0L172.613 -5.80262e-06C234.405 -7.87984e-06 284.485 50.13 284.485 111.98C284.485 173.829 234.405 223.959 172.613 223.959L7.52869e-06 223.959L7.46145e-06 221.959L172.613 221.959C233.299 221.959 282.485 172.727 282.485 111.98C282.485 51.2328 233.299 1.99999 172.613 1.99999Z" fill="#9E71FC"/>
<path fill-rule="evenodd" clip-rule="evenodd" d="M171.591 29.8483L6.72326e-08 29.8483L0 27.8483L171.591 27.8483C218.01 27.8483 255.642 65.5176 255.642 111.98C255.642 158.442 218.01 196.111 171.591 196.111L5.65638e-06 196.111L5.58915e-06 194.111L171.591 194.111C216.904 194.111 253.642 157.339 253.642 111.98C253.642 66.6203 216.904 29.8483 171.591 29.8483Z" fill="#9E71FC"/>
<path fill-rule="evenodd" clip-rule="evenodd" d="M0 55.9119L165.313 55.9119C196.252 55.9119 221.327 81.0127 221.327 111.98C221.327 142.947 196.252 168.048 165.313 168.048L3.76959e-06 168.048L3.70236e-06 166.048L165.313 166.048C195.146 166.048 219.327 141.844 219.327 111.98C219.327 82.1154 195.146 57.9119 165.313 57.9119L6.72326e-08 57.9119L0 55.9119Z" fill="#9E71FC"/>
</svg>
