<svg width="19" height="19" viewBox="0 0 19 19" xmlns="http://www.w3.org/2000/svg">
<path fill-rule="evenodd" clip-rule="evenodd" d="M0 9.08333C0 4.06674 4.06674 0 9.08331 0C14.0999 0 18.1666 4.06674 18.1666 9.08333C18.1666 14.0999 14.0999 18.1667 9.08331 18.1667C4.06674 18.1667 0 14.0999 0 9.08333ZM9.08331 1.5C4.89516 1.5 1.5 4.89517 1.5 9.08333C1.5 13.2715 4.89516 16.6667 9.08331 16.6667C13.2715 16.6667 16.6666 13.2715 16.6666 9.08333C16.6666 4.89517 13.2715 1.5 9.08331 1.5ZM5.97549 5.16737C5.75233 4.94421 5.39052 4.94421 5.16737 5.16737C4.94421 5.39052 4.94421 5.75233 5.16737 5.97549L8.19188 9L5.16737 12.0245C4.94421 12.2477 4.94421 12.6095 5.16737 12.8326C5.39052 13.0558 5.75233 13.0558 5.97549 12.8326L9 9.80812L12.0245 12.8326C12.2477 13.0558 12.6095 13.0558 12.8326 12.8326C13.0558 12.6095 13.0558 12.2477 12.8326 12.0245L9.80812 9L12.8326 5.97549C13.0558 5.75233 13.0558 5.39052 12.8326 5.16737C12.6095 4.94421 12.2477 4.94421 12.0245 5.16737L9 8.19188L5.97549 5.16737Z"/>
</svg>
