<svg width="23" height="26" viewBox="0 0 23 26" fill="none" xmlns="http://www.w3.org/2000/svg">
<path d="M19.5409 20.7395C15.9511 24.9366 9.63861 25.4288 5.44158 21.839C3.34307 20.0441 2.17076 17.5685 1.97179 15.017C1.77282 12.4656 2.54722 9.83817 4.34213 7.73965C4.34213 7.73965 5.32178 9.74057 7.91139 10.7924C7.71703 8.3 8.0486 4.51276 10.9521 1.77881C13.6565 4.07551 16.3381 4.84116 18.4415 6.6402C20.54 8.43511 21.7123 10.9107 21.9113 13.4622C22.1102 16.0136 21.3358 18.641 19.5409 20.7395Z" stroke="#8A53FF" stroke-width="2" stroke-linecap="round" stroke-linejoin="round"/>
<path d="M9.60122 18.3355C11.1751 19.6817 13.5423 19.4971 14.8885 17.9232C15.5616 17.1363 15.852 16.1511 15.7774 15.1943C15.7028 14.2375 15.2631 13.3091 14.4762 12.636C13.6942 11.9672 12.7164 11.6762 11.7653 11.7457L10.7924 15.5829L8.30005 15.7773C8.37467 16.7341 8.81429 17.6625 9.60122 18.3355Z" stroke="#8A53FF" stroke-width="2" stroke-linecap="round" stroke-linejoin="round"/>
</svg>
