<svg width="351" height="97" viewBox="0 0 351 97" fill="none" xmlns="http://www.w3.org/2000/svg">
<path fill-rule="evenodd" clip-rule="evenodd" d="M175.549 5.49953C176.93 5.47252 178.027 4.33155 178 2.9511C177.973 1.57065 176.832 0.473476 175.452 0.500488C144.555 1.10507 101.445 3.78577 62.1867 14.5381C42.4196 19.9522 23.2022 30.0713 11.6325 41.896C5.84888 47.807 1.78501 54.342 0.755146 61.1132C-0.296538 68.0278 1.87268 74.8268 7.82605 80.9458C12.0483 85.2855 19.0995 87.84 25.9728 89.4701C32.9622 91.1277 40.3089 91.9447 45.5451 92.4867C45.8095 92.5141 46.0685 92.4992 46.3155 92.4475C136.465 101.126 254.333 98.1834 336.689 60.4184C339.449 59.1529 342.947 57.4209 345.695 55.1013C348.443 52.7817 350.854 49.5068 350.456 45.2026C350.053 40.8316 347.029 37.4841 343.891 35.0171C340.873 32.6446 337.271 30.7225 334.493 29.2401L334.492 29.24L334.034 28.9952C285.918 3.2775 222.279 4.45145 169.398 12.9158C168.035 13.134 167.107 14.4161 167.325 15.7795C167.543 17.1428 168.825 18.0711 170.189 17.8529C222.795 9.43249 285.055 8.48588 331.677 33.4049L332.036 33.5969C334.893 35.1226 338.141 36.8572 340.801 38.948C343.622 41.1653 345.268 43.3913 345.478 45.6625C345.658 47.6138 344.654 49.4368 342.47 51.2807C340.286 53.1245 337.335 54.6214 334.605 55.8734C251.372 94.0404 130.623 96.2584 39.885 86.777C39.7523 86.7632 39.621 86.7599 39.4919 86.7667C35.5703 86.2645 31.2675 85.5871 27.1266 84.605C20.369 83.0024 14.5628 80.6999 11.4098 77.4591C6.42389 72.3345 4.90757 67.0639 5.6983 61.865C6.51084 56.5227 9.81732 50.9005 15.2063 45.3928C25.9816 34.3801 44.3181 24.6163 63.5075 19.3605C102.163 8.77322 144.781 6.1016 175.549 5.49953Z" fill="#BEF72E"/>
</svg>
