<svg width="20" height="12" viewBox="0 0 20 12" xmlns="http://www.w3.org/2000/svg">
<path fill-rule="evenodd" clip-rule="evenodd" d="M14.5303 0.46967C14.2374 0.176777 13.7626 0.176777 13.4697 0.46967C13.1768 0.762563 13.1768 1.23744 13.4697 1.53033L17.1893 5.25H1C0.585786 5.25 0.25 5.58579 0.25 6C0.25 6.41421 0.585786 6.75 1 6.75H17.1893L13.4697 10.4697C13.1768 10.7626 13.1768 11.2374 13.4697 11.5303C13.7626 11.8232 14.2374 11.8232 14.5303 11.5303L19.5303 6.53033C19.6768 6.38388 19.75 6.19194 19.75 6C19.75 5.89831 19.7298 5.80134 19.6931 5.71291C19.6565 5.62445 19.6022 5.54158 19.5303 5.46967L14.5303 0.46967Z" fill="#8A53FF"/>
</svg>
