<svg width="190" height="160" viewBox="0 0 190 160" fill="none" xmlns="http://www.w3.org/2000/svg">
<path d="M80.6362 16.7306C84.1583 16.916 87.6803 17.2868 91.017 17.4722C110.666 18.7699 129.204 23.7755 146.072 33.9719C163.868 44.5392 177.585 58.9996 185.371 78.4656C194.454 100.898 190.191 120.178 172.395 136.678C170.541 138.347 168.502 140.015 166.463 141.684C154.414 150.768 140.511 156.144 125.681 158.369C101.212 162.077 77.2995 159.481 54.1281 150.397C40.0399 144.835 27.9907 136.678 18.9075 124.257C3.33632 102.937 1.48261 80.3195 14.2732 56.9604C18.9075 48.4324 25.0248 40.8314 32.0689 34.1573C33.3665 32.8596 34.8495 31.5619 35.7763 29.3372C34.4787 29.3372 33.1811 29.1518 32.0689 29.5226C24.4687 32.118 16.6831 34.7135 9.26821 37.6798C3.70707 39.9044 1.66798 40.0898 0.37038 37.4944C-0.741849 34.8989 0.555751 32.8596 5.56078 30.0788C14.8294 24.517 25.2101 21.7362 35.7763 19.8823C39.113 19.3261 42.4497 18.7699 45.7864 18.3992C51.1622 17.843 55.9818 16.3599 60.9868 13.9498C84.3436 2.64098 108.813 -1.99378 134.579 0.787074C144.775 1.89942 154.599 4.86566 163.497 10.6128C165.166 11.7251 167.019 12.8374 167.946 14.506C168.688 15.8037 168.502 18.0284 167.575 19.1407C167.019 19.8823 164.795 19.8823 163.312 19.6969C162.57 19.6969 162.014 18.9553 161.273 18.5845C152.746 12.6521 142.921 10.0566 132.911 9.12964C116.228 7.64652 99.7295 9.50042 83.7875 14.3206C82.8607 14.506 81.9338 15.0621 81.007 15.4329C81.007 15.4329 81.007 15.8037 80.6362 16.7306ZM108.442 151.324C112.52 150.953 120.12 150.582 127.721 149.099C144.404 145.948 159.234 139.088 170.912 126.111C179.068 117.027 182.961 106.46 180.922 94.0384C178.698 81.2465 172.766 70.1231 164.424 60.4828C151.633 45.4662 135.135 36.0112 116.228 30.6349C97.6904 25.2586 78.7825 25.2586 59.6892 26.0002C57.8355 26.0002 55.7964 26.9271 54.1281 27.8541C39.113 37.4944 27.0639 49.7301 19.4636 65.8591C12.7903 80.1342 12.6049 94.5946 19.4636 108.684C26.8785 123.886 38.9276 134.268 54.3135 140.942C70.4408 147.802 87.3096 150.768 108.442 151.324Z" fill="#BEF72E"/>
</svg>
