<svg width="896" height="583" viewBox="0 0 896 583" fill="none" xmlns="http://www.w3.org/2000/svg">
<path d="M161.418 82.9555C161.418 82.9555 157.565 77.4972 146.648 51.1692C140.227 35.4367 138.943 15.5302 127.063 14.2459C115.183 12.9616 95.9187 15.8512 90.7815 29.9784C85.6443 44.1056 88.8551 53.7378 91.4237 59.8382C93.9923 65.9386 105.551 73.3233 105.551 73.3233L161.418 82.9555Z" fill="#45108A"/>
<path opacity="0.5" d="M91.8529 60.0609C94.4215 66.1613 105.98 73.546 105.98 73.546L126.85 72.9038L138.087 66.4824C137.124 66.4824 124.281 39.1912 119.786 26.9904C116.254 17.3582 96.0268 20.2479 91.2107 29.2379C91.2107 29.559 90.8897 29.8801 90.8897 30.2011C89.9265 33.0908 89.2843 35.6594 88.6422 38.228C88.3211 40.7965 88.3211 43.6862 88 46.5758C88.9632 52.0341 90.5686 56.5291 91.8529 60.0609Z" fill="#21005B"/>
<path opacity="0.5" d="M91.4549 44.2651C94.3446 31.1012 92.7393 37.5226 95.3079 50.0445C99.1607 70.5931 131.589 70.9142 131.589 70.9142L103.656 73.4828C103.656 73.4828 99.8028 71.5563 96.271 66.7402C92.7392 61.9242 89.8496 50.6866 91.4549 44.2651Z" fill="#23074D"/>
<path d="M848.193 243.813C758.293 84.2394 594.867 107.678 564.686 136.253C534.505 165.15 529.689 269.498 587.482 276.883C645.596 284.268 655.228 265.324 647.201 231.612C647.201 231.612 659.723 253.766 651.697 268.856C651.697 268.856 672.887 252.482 661.971 221.659C651.054 190.836 665.823 188.267 675.456 186.019C685.088 183.451 761.503 190.514 810.628 265.324C859.752 339.813 868.099 412.697 856.541 465.995C846.266 513.514 805.811 540.163 750.266 547.869C694.72 555.574 644.954 541.768 644.954 541.768C644.954 541.768 630.827 478.517 576.886 431.64C509.782 373.526 425.34 379.305 415.066 379.947C404.791 380.59 386.811 422.008 386.811 422.008L310.396 401.459C310.396 401.459 280.215 342.061 234.944 312.201C198.663 288.442 205.405 288.121 164.95 296.79L154.676 277.846L170.729 289.405C170.729 289.405 158.208 268.214 154.676 255.692C151.786 244.776 156.602 239.639 157.886 238.675C164.308 240.923 171.371 242.849 177.472 242.849C191.599 243.17 206.368 230.649 206.368 230.649C206.368 230.649 210.542 228.722 216.001 221.337C221.459 213.632 228.843 199.505 229.486 196.615C229.807 193.725 192.883 149.417 192.883 149.417C192.883 149.417 206.689 111.209 206.368 108.641C206.047 106.072 181.325 76.5336 175.224 73.965C141.833 59.8378 90.4611 50.5267 90.4611 50.5267C90.4611 50.5267 81.7921 46.0317 71.5178 39.2892C64.4542 34.7942 20.7883 21.9512 15.9722 24.5198C11.1561 27.0884 20.1462 34.152 19.8251 53.7375C19.504 73.3229 18.5408 64.0118 24.6412 68.5068C30.7416 73.0018 30.0995 88.7344 30.0995 88.7344C30.0995 88.7344 20.4673 126.3 3.45048 143.317L19.8251 138.822C19.8251 138.822 12.1194 146.849 10.8351 150.059C9.8719 153.591 26.5676 191.478 28.8151 193.083C30.7416 194.688 33.6313 195.652 33.9524 195.652C37.1631 207.852 44.8688 237.712 44.5478 248.308C44.2267 261.793 36.5209 325.365 35.2366 328.897C33.9523 332.429 12.7616 349.445 5.05585 363.894C-2.97097 378.663 9.22967 491.681 44.8688 524.751C80.5078 557.822 153.07 573.554 201.231 579.655C249.392 585.755 557.943 581.581 575.602 579.976C593.261 578.37 622.158 569.701 622.158 569.701C622.158 569.701 765.998 586.397 825.397 558.143C884.153 529.246 938.093 403.386 848.193 243.813Z" fill="#903FF7"/>
<path opacity="0.19" d="M123.85 36.7207C119.998 27.4096 151.463 70.1123 151.463 70.1123L138.299 66.9016C138.299 66.9016 127.703 46.0318 123.85 36.7207Z" fill="white"/>
<g opacity="0.72">
<mask id="mask0_2793_5294" style="mask-type:luminance" maskUnits="userSpaceOnUse" x="2" y="24" width="894" height="559">
<path d="M848.193 243.813C758.293 84.2394 594.867 107.678 564.686 136.253C534.505 165.15 529.689 269.498 587.482 276.883C645.596 284.268 655.228 265.324 647.201 231.612C647.201 231.612 659.723 253.766 651.697 268.856C651.697 268.856 672.887 252.482 661.971 221.659C651.054 190.836 665.823 188.267 675.456 186.019C685.088 183.451 761.503 190.514 810.628 265.324C859.752 339.813 868.099 412.697 856.541 465.995C846.266 513.514 805.811 540.163 750.266 547.869C694.72 555.574 644.954 541.768 644.954 541.768C644.954 541.768 630.827 478.517 576.886 431.64C509.782 373.526 425.34 379.305 415.066 379.947C404.791 380.59 386.811 422.008 386.811 422.008L310.396 401.459C310.396 401.459 280.215 342.061 234.944 312.201C198.663 288.442 205.405 288.121 164.95 296.79L154.676 277.846L170.729 289.405C170.729 289.405 158.208 268.214 154.676 255.692C151.786 244.776 156.602 239.639 157.886 238.675C164.308 240.923 171.371 242.849 177.472 242.849C191.599 243.17 206.368 230.649 206.368 230.649C206.368 230.649 210.542 228.722 216.001 221.337C221.459 213.632 228.843 199.505 229.486 196.615C229.807 193.725 192.883 149.417 192.883 149.417C192.883 149.417 206.689 111.209 206.368 108.641C206.047 106.072 181.325 76.5336 175.224 73.965C141.833 59.8378 90.4611 50.5267 90.4611 50.5267C90.4611 50.5267 81.7921 46.0317 71.5178 39.2892C64.4542 34.7942 20.7883 21.9512 15.9722 24.5198C11.1561 27.0884 20.1462 34.152 19.8251 53.7375C19.504 73.3229 18.5408 64.0118 24.6412 68.5068C30.7416 73.0018 30.0995 88.7344 30.0995 88.7344C30.0995 88.7344 20.4673 126.3 3.45048 143.317L19.8251 138.822C19.8251 138.822 12.1194 146.849 10.8351 150.059C9.8719 153.591 26.5676 191.478 28.8151 193.083C30.7416 194.688 33.6313 195.652 33.9524 195.652C37.1631 207.852 44.8688 237.712 44.5478 248.308C44.2267 261.793 36.5209 325.365 35.2366 328.897C33.9523 332.429 12.7616 349.445 5.05585 363.894C-2.97097 378.663 9.22967 491.681 44.8688 524.751C80.5078 557.822 153.07 573.554 201.231 579.655C249.392 585.755 557.943 581.581 575.602 579.976C593.261 578.37 622.158 569.701 622.158 569.701C622.158 569.701 765.998 586.397 825.397 558.143C884.153 529.246 938.093 403.386 848.193 243.813Z" fill="white"/>
</mask>
<g mask="url(#mask0_2793_5294)">
<path opacity="0.54" d="M1166.7 317.017C1172.15 316.696 1165.73 328.254 1161.88 326.007C1157.71 324.081 1158.35 317.659 1166.7 317.017ZM673.849 157.444C676.739 156.159 670.959 150.701 669.033 153.27C666.464 156.802 670.959 158.728 673.849 157.444ZM1203.62 308.99C1195.27 316.696 1203.3 319.907 1215.82 318.943C1228.02 317.98 1220.32 311.559 1222.24 307.385C1224.49 303.853 1210.04 303.532 1203.62 308.99ZM110.687 479.801C107.156 484.938 111.008 493.607 118.072 490.717C125.136 487.828 119.677 483.012 118.072 477.874C114.54 467.6 114.219 474.664 110.687 479.801ZM1240.86 331.144C1230.59 325.044 1227.38 320.87 1219.03 326.007C1210.68 330.823 1202.01 332.749 1217.1 334.997C1232.52 337.245 1250.5 336.923 1240.86 331.144ZM477.674 394.395C485.7 403.064 487.948 407.881 497.259 405.312C506.57 402.743 515.56 403.386 501.433 396.964C487.306 390.864 469.968 386.048 477.674 394.395ZM1245.36 310.274C1235.73 310.274 1226.42 315.091 1230.91 317.659C1235.41 320.228 1238.94 321.191 1245.04 323.438C1251.14 325.365 1254.67 310.274 1245.36 310.274ZM1252.74 294.863C1249.21 289.084 1241.51 294.542 1245.36 298.716C1249.53 302.569 1256.28 300.642 1252.74 294.863ZM1196.56 334.355C1203.3 333.392 1206.83 326.649 1201.05 325.044C1195.27 323.438 1191.42 316.696 1184.03 320.87C1176.65 325.044 1159.63 333.392 1175.37 336.602C1175.37 336.281 1189.81 335.318 1196.56 334.355ZM606.745 493.928C606.745 495.212 607.387 496.497 608.029 497.139C608.671 497.781 609.635 498.423 610.598 498.423C611.561 498.423 612.524 498.102 613.488 497.46C614.451 496.818 614.772 495.533 614.451 494.249C614.13 492.965 613.488 491.359 612.845 490.396C611.882 489.112 610.919 488.149 609.956 487.828C608.992 487.507 608.029 487.828 607.708 489.112C606.745 490.717 606.424 492.323 606.745 493.928ZM675.454 168.36C675.454 169.644 676.097 170.929 676.739 171.571C677.381 172.213 678.344 172.855 679.308 172.855C680.271 172.855 681.234 172.534 682.197 171.892C683.16 171.25 683.481 169.966 683.16 168.681C682.839 167.397 682.197 165.792 681.555 164.828C680.592 163.544 679.628 162.581 678.665 162.26C677.702 161.939 676.739 162.26 676.418 163.544C675.776 165.149 675.454 167.076 675.454 168.36ZM263.518 438.382C265.766 438.382 266.729 437.419 267.05 436.135C267.371 435.172 267.371 433.887 266.729 432.282C266.408 430.998 265.123 430.035 263.839 429.071C261.913 427.787 260.307 427.466 258.702 428.108C257.097 428.75 255.812 429.714 254.849 430.356C253.886 430.998 253.886 432.282 255.17 433.887C256.454 435.493 258.06 436.777 259.344 437.419C260.949 438.382 262.234 438.704 263.518 438.382ZM319.706 436.777C322.917 437.098 324.522 436.135 324.522 434.208C324.843 432.924 324.522 431.319 323.559 429.714C322.916 428.108 321.632 426.824 320.027 425.54C317.137 422.971 315.532 422.971 313.926 423.934C312.321 424.897 311.037 426.182 309.432 426.824C307.826 427.466 308.468 429.392 310.074 431.64C311.358 433.245 312.963 434.53 314.569 435.493C316.495 436.135 318.101 436.777 319.706 436.777ZM170.728 544.979C174.902 546.584 176.828 545.621 177.47 543.052C177.792 541.768 177.792 539.841 177.149 537.594C176.507 535.668 175.544 533.741 174.26 531.815C171.691 527.641 169.765 527.32 167.838 527.962C165.912 528.604 164.307 530.53 162.38 530.53C160.454 530.53 160.454 533.42 162.059 536.31C163.022 538.236 164.307 539.841 165.591 541.447C167.196 543.373 169.123 544.336 170.728 544.979ZM614.772 462.463C618.946 458.61 618.946 456.042 616.698 454.115C614.13 452.51 608.992 451.546 602.892 451.867C596.792 452.189 595.508 454.115 595.829 456.363C595.829 458.61 597.434 461.179 596.15 463.426C594.865 465.674 598.076 466.637 602.25 466.637C604.176 466.637 606.745 466.316 608.992 465.674C611.24 464.71 613.166 463.747 614.772 462.463ZM94.3127 505.808C94.9549 508.055 95.918 509.661 97.2022 510.303C98.1655 510.945 99.4499 510.945 100.734 510.303C101.376 509.982 102.018 509.661 102.661 509.018C104.908 507.092 106.513 504.523 107.477 501.313C107.477 500.992 107.798 500.35 107.798 500.028C109.082 495.212 108.119 493.607 106.513 492.002C104.266 490.396 102.018 490.075 100.734 488.791C99.4499 487.828 97.5233 490.075 95.5969 493.607C93.6704 497.139 93.0284 501.955 94.3127 505.808ZM475.747 490.396C477.674 491.038 479.279 491.038 480.563 490.396C481.527 490.075 482.49 489.112 482.811 487.828C483.132 487.186 483.132 486.543 483.132 485.901C483.453 482.691 482.169 480.443 480.242 478.196C479.921 477.874 479.6 477.553 479.279 477.232C476.71 474.343 474.463 474.022 472.216 474.022C468.684 474.022 467.078 474.985 466.115 475.627C465.152 476.269 466.115 479.159 467.399 482.691C469.326 486.222 472.537 489.433 475.747 490.396ZM132.841 462.142C133.484 463.747 134.447 464.71 135.731 465.353C136.694 465.674 137.657 465.995 138.942 465.674C139.584 465.674 140.226 465.353 140.547 465.032C143.758 463.426 144.4 461.179 144.4 458.61C144.4 458.289 144.4 457.968 144.4 457.647C144.079 454.757 142.795 452.831 141.831 450.904C139.905 447.051 138.621 446.409 137.658 446.73C136.694 447.051 135.089 449.941 133.484 452.831C131.878 455.72 131.557 459.252 132.841 462.142ZM259.344 473.058C260.307 473.7 263.518 474.664 266.087 475.948C268.655 477.232 272.187 477.232 274.756 475.948C276.04 475.306 277.003 474.343 277.324 473.379C277.645 472.416 277.645 471.132 277.003 469.527C275.398 466.637 273.471 466.316 271.224 466.958C268.976 467.6 266.408 469.205 264.16 469.848C259.023 471.453 258.381 472.095 259.344 473.058ZM280.535 454.115C282.14 454.115 283.104 453.152 283.104 450.904C283.746 449.62 283.746 448.015 283.746 446.088C283.746 445.125 283.425 444.162 283.104 443.199C282.14 440.63 280.214 439.667 277.966 439.025C275.398 438.061 273.15 438.061 271.866 439.025C268.013 439.346 267.05 440.309 267.692 441.914C268.013 442.878 268.334 443.841 268.976 445.125C269.939 446.73 271.224 448.336 272.829 450.262C274.756 452.189 277.966 454.115 280.535 454.115ZM247.785 421.687C249.07 422.971 249.712 422.329 251.959 418.797C252.923 417.513 254.207 416.228 255.17 414.302C255.812 413.339 256.133 412.376 256.454 411.412C257.418 408.523 257.097 405.954 256.454 404.028C255.491 400.817 254.528 398.891 251.959 400.175C249.391 399.212 248.107 399.854 246.822 401.459C246.18 402.743 245.217 403.707 244.896 404.991C243.933 407.238 243.933 409.486 244.575 412.697C245.217 416.228 246.18 420.081 247.785 421.687ZM72.8008 345.271C74.7272 345.271 74.4061 343.666 71.5164 338.529C70.5532 336.923 69.59 334.997 68.3057 333.071C67.6635 332.107 67.0216 331.144 66.0583 330.181C64.1319 327.612 61.5633 325.686 59.6369 324.402C56.1051 322.154 53.5365 321.833 54.1786 325.686C53.2154 327.933 53.5363 329.86 53.8574 331.786C54.1785 333.392 54.8206 334.997 55.4628 336.281C56.7471 338.85 58.6735 340.455 62.5264 341.74C66.7004 343.345 70.5533 345.271 72.8008 345.271ZM389.7 488.149C391.305 493.607 393.553 494.891 396.442 493.286C399.011 491.681 401.901 487.507 404.148 481.727C406.396 475.948 405.432 474.343 403.185 473.379C401.258 472.416 398.048 472.737 396.763 470.811C395.479 468.884 392.91 471.132 391.305 474.985C390.342 476.911 389.7 479.159 389.379 481.406C389.057 483.654 389.058 485.901 389.7 488.149ZM355.345 551.079C354.703 552.684 356.308 553.005 362.087 552.042C364.014 551.721 366.261 551.721 368.509 551.079C369.793 550.758 371.078 550.437 372.041 550.116C375.251 549.153 377.82 547.547 379.746 546.263C383.278 543.694 384.241 541.447 380.389 540.484C378.783 538.878 376.857 538.236 374.609 538.236C372.683 537.915 371.077 537.915 369.793 538.236C366.904 538.557 364.656 539.841 362.087 542.731C359.198 545.942 355.987 549.153 355.345 551.079ZM1272.97 301.927C1271.04 304.174 1269.44 306.1 1268.16 308.027C1266.87 309.632 1265.59 311.238 1264.94 312.843C1263.34 315.733 1263.34 318.622 1265.27 323.117C1267.19 327.612 1268.48 331.786 1269.44 333.392C1270.72 334.997 1271.69 333.392 1273.93 326.007C1274.9 322.154 1275.86 318.301 1276.5 314.769C1277.15 311.238 1277.47 307.706 1277.79 305.137C1277.79 300 1276.5 297.753 1272.97 301.927ZM600.966 563.28C601.608 564.564 603.534 563.922 608.672 560.39C611.561 558.464 614.451 556.216 617.019 553.969C619.588 552.042 621.193 549.795 622.478 547.868C624.725 544.337 625.046 542.41 620.551 542.731C618.625 543.052 616.377 543.052 614.772 543.052C612.524 543.373 610.277 544.015 608.672 544.979C605.461 546.905 603.534 549.795 602.571 553.969C601.608 558.464 600.324 562.317 600.966 563.28ZM280.535 522.504C281.819 522.825 283.424 521.54 286.635 517.687C288.562 515.44 290.809 512.871 292.736 509.982C294.341 507.734 294.983 505.487 295.304 503.56C295.625 500.35 295.304 498.744 292.094 499.386C290.488 499.707 288.562 499.707 286.956 500.35C285.03 500.992 283.425 502.276 282.14 503.881C279.893 507.092 278.609 510.945 278.93 515.119C278.93 519.293 279.251 522.182 280.535 522.504ZM125.136 544.979C126.741 544.336 128.346 543.052 130.915 540.163C132.841 538.236 134.768 535.989 136.694 533.741C137.979 532.136 138.3 530.209 138.3 528.283C138.3 526.035 137.337 524.751 135.089 524.43C133.484 524.109 131.557 523.788 129.952 524.109C128.025 524.43 126.42 525.393 125.457 527.32C123.209 531.172 122.246 535.346 122.246 539.199C122.567 543.052 123.209 545.621 125.136 544.979ZM185.176 487.186C182.929 491.681 181.966 496.176 181.966 499.707C181.966 502.918 183.25 504.845 185.176 503.56C187.424 501.955 189.029 500.671 190.635 499.065C192.24 497.46 194.166 495.854 196.414 493.607C198.661 491.359 196.735 487.828 193.845 485.58C192.24 484.617 190.635 483.975 189.029 483.975C187.745 484.296 186.14 485.259 185.176 487.186ZM187.424 466.958C188.066 462.463 187.424 459.252 186.782 454.115C186.14 448.978 174.26 450.904 176.186 457.968C178.755 466.316 186.782 472.095 187.424 466.958ZM257.418 462.463C253.886 461.179 250.996 460.858 247.143 460.858C242.969 460.858 242.327 469.527 248.106 470.169C255.17 471.132 262.555 464.389 257.418 462.463ZM1228.66 300.642C1230.91 302.569 1233.48 303.211 1236.05 303.532C1239.26 303.853 1241.19 298.716 1237.65 295.826C1232.52 291.973 1224.49 297.11 1228.66 300.642ZM599.681 497.46C592.939 497.781 594.223 507.413 599.681 505.487C605.14 503.56 606.424 496.818 599.681 497.46ZM235.264 457.968C239.759 462.784 246.501 455.72 241.685 452.831C236.869 449.62 230.769 453.152 235.264 457.968ZM50.0047 387.653C50.0047 388.937 50.6468 390.222 53.5364 390.543C55.1418 390.864 60.2789 389.9 62.5264 388.295C64.4529 387.011 65.0951 384.442 62.8476 382.837C61.5633 381.874 59.9578 380.589 58.6735 380.268C57.0681 379.626 55.1418 379.947 53.5364 380.91C51.2889 383.158 49.3625 385.727 50.0047 387.653ZM469.647 393.753C470.931 391.827 470.931 390.543 466.757 388.616C465.794 388.295 457.446 387.653 453.593 388.295C449.74 388.937 447.814 392.469 450.704 394.717C452.309 396.001 453.914 397.606 455.52 398.89C457.446 400.175 459.373 400.496 461.941 399.533C464.831 398.248 468.362 396.001 469.647 393.753ZM433.366 503.881C433.045 507.092 433.687 508.697 439.787 507.092C440.429 507.092 449.74 500.35 453.593 496.818C457.767 493.286 457.125 487.507 452.309 488.47C449.74 488.791 447.172 488.47 444.603 488.47C442.035 488.791 439.787 489.433 437.861 492.644C436.255 495.533 433.687 500.671 433.366 503.881ZM265.766 376.736C260.307 372.563 253.244 374.489 256.133 379.947C257.418 382.516 257.739 385.727 258.381 388.616C259.023 391.506 260.628 394.074 264.481 395.359C268.334 396.643 275.077 398.891 279.251 399.212C283.746 399.533 285.993 397.606 281.498 390.864C281.819 390.864 271.545 381.232 265.766 376.736ZM291.13 439.025C291.451 439.025 292.736 436.777 294.02 433.887C294.662 432.282 295.304 430.677 295.625 428.75C296.268 426.182 296.589 423.613 296.589 421.687C297.231 416.228 294.02 411.733 290.488 414.944C288.562 416.549 285.993 417.513 284.067 419.118C282.14 421.045 280.856 423.292 281.177 426.824C281.498 430.356 281.819 435.814 283.104 439.346C285.03 442.556 287.277 443.841 291.13 439.025ZM310.716 453.152C311.037 452.51 310.395 450.583 309.11 448.336C308.468 447.051 307.184 445.767 305.579 445.125C303.652 444.162 301.405 443.52 299.799 442.878C295.946 441.593 292.094 442.235 292.415 445.767C292.415 447.694 292.094 450.262 292.736 452.189C293.699 454.436 295.304 456.363 297.873 457.326C300.762 458.289 304.615 459.573 307.184 459.573C310.074 458.931 312 457.647 310.716 453.152ZM340.897 465.353C342.181 465.353 343.465 464.389 345.071 463.105C346.355 462.142 346.355 460.536 346.034 458.931C345.713 457.005 344.75 455.399 343.786 453.473C342.502 450.904 340.576 448.657 338.328 449.299C336.723 449.62 334.796 449.941 333.833 451.546C332.549 453.473 332.228 455.72 332.549 457.968C332.87 460.215 333.833 462.784 335.117 464.389C336.402 465.995 338.328 466.958 340.897 465.353ZM587.16 483.333C587.802 484.938 588.765 486.222 590.049 486.864C591.333 487.828 593.26 488.149 594.865 488.149C596.471 488.149 598.076 487.828 599.681 487.186C600.966 486.543 601.287 484.938 600.323 483.654C599.36 482.369 598.076 480.443 596.471 479.159C594.865 477.874 592.618 476.59 591.013 476.269C589.407 475.948 587.802 476.269 587.481 477.553C586.517 479.801 586.517 481.727 587.16 483.333ZM89.8176 235.464C92.7073 234.18 86.928 228.722 85.0015 231.29C82.4329 235.143 86.928 236.749 89.8176 235.464ZM68.3057 263.077C68.3057 264.361 68.9479 265.645 69.5901 266.287C70.2322 266.93 71.1954 267.572 72.1586 267.572C73.1218 267.572 74.0851 267.251 75.0483 266.608C76.0116 265.966 76.3326 264.682 76.0115 263.398C75.6904 262.113 75.0483 260.508 74.4062 259.545C73.4429 258.261 72.4796 257.297 71.5164 256.976C70.5532 256.655 69.5901 256.976 69.2691 258.261C68.3058 260.187 68.3057 261.792 68.3057 263.077ZM91.423 246.381C91.423 247.665 92.0652 248.95 92.7074 249.592C93.3495 250.234 94.3127 250.876 95.2759 250.876C96.2391 250.876 97.2024 250.555 98.1656 249.913C99.1288 249.271 99.4499 247.986 99.1288 246.702C98.8077 245.418 98.1656 243.812 97.5234 242.849C96.5602 241.565 95.5969 240.602 94.6337 240.281C93.6705 239.959 92.7072 240.281 92.3862 241.565C91.744 243.491 91.423 245.097 91.423 246.381ZM76.3325 231.612C80.5065 227.759 80.5066 225.19 78.2591 223.264C75.6905 221.658 70.5534 220.695 64.453 221.016C58.3526 221.337 57.0683 223.264 57.3893 225.511C57.3893 227.759 58.9946 230.327 57.7103 232.575C56.7471 234.501 59.6368 235.786 63.8108 235.786C65.7372 235.786 68.3057 235.464 70.5532 234.822C72.8008 234.18 75.0482 233.217 76.3325 231.612ZM61.2422 266.608C54.4997 266.93 55.784 276.562 61.2422 274.635C66.7005 273.03 67.9848 266.287 61.2422 266.608ZM48.7203 252.481C49.3625 254.087 50.3258 255.371 51.6101 256.013C52.8943 256.976 54.8208 257.297 56.4262 257.297C58.0315 257.297 59.6369 256.976 61.2422 256.334C62.5265 255.692 62.8475 254.087 61.8842 252.802C61.2421 251.197 59.6369 249.592 58.0315 248.307C56.4262 247.023 54.1786 245.739 52.5732 245.418C50.9679 245.097 49.3624 245.418 49.0413 246.702C48.0781 248.949 48.0782 250.876 48.7203 252.481ZM43.9042 432.924C46.7939 431.64 41.0146 426.182 39.0881 428.75C36.5196 432.603 41.0146 434.209 43.9042 432.924ZM278.93 568.738C268.334 563.601 264.481 560.069 256.775 565.527C249.07 571.307 240.401 573.875 255.812 574.838C271.224 575.481 288.883 573.554 278.93 568.738ZM22.3923 460.536C22.3923 461.821 23.0345 463.105 23.6767 463.747C24.3188 464.389 25.282 465.032 26.2452 465.032C27.2084 465.032 28.1717 464.71 29.135 464.068C30.0982 463.426 30.4192 462.142 30.0981 460.858C29.7771 459.573 29.1349 457.968 28.4928 457.005C27.5296 455.72 26.5663 454.757 25.603 454.436C24.6398 454.115 23.6766 454.436 23.3555 455.72C22.7133 457.647 22.3923 459.252 22.3923 460.536ZM45.8306 443.841C45.8306 445.125 46.4728 446.409 47.115 447.051C47.7571 447.694 48.7203 448.336 49.6835 448.336C50.6467 448.336 51.61 448.015 52.5732 447.372C53.5365 446.73 53.8575 445.446 53.5364 444.162C53.2153 442.877 52.5732 441.272 51.9311 440.309C50.9678 439.025 50.0045 438.061 49.0413 437.74C48.0781 437.419 47.115 437.74 46.794 439.025C45.8307 440.951 45.5095 442.556 45.8306 443.841ZM30.7403 429.071C34.9143 425.218 34.9142 422.65 32.6667 420.723C30.0981 419.118 24.961 418.155 18.8606 418.476C12.7602 418.797 11.4759 420.723 11.7969 422.971C11.7969 425.218 13.4022 427.787 12.1179 430.035C11.1547 431.961 14.0445 433.245 18.2184 433.245C20.1448 433.245 22.7133 432.924 24.9609 432.282C26.8873 431.64 29.135 430.677 30.7403 429.071ZM15.6499 464.068C8.90733 464.389 10.1916 474.022 15.6499 472.095C21.1081 470.49 22.3924 463.747 15.6499 464.068ZM38.446 485.259C38.1249 487.507 38.446 488.791 42.9411 489.112C44.2253 489.112 51.931 486.543 55.4628 484.617C58.6735 482.691 59.3158 478.838 55.784 477.874C53.8575 477.232 51.931 476.269 49.6835 475.948C47.436 475.627 45.5096 475.948 43.262 477.553C41.3356 479.48 38.767 482.691 38.446 485.259ZM2.80694 449.941C3.44909 451.546 4.41219 452.831 5.69648 453.473C6.98077 454.436 8.90721 454.757 10.5126 454.757C12.1179 454.757 13.7233 454.436 15.3287 453.794C16.613 453.152 16.9341 451.546 15.9709 450.262C15.3287 448.657 13.7233 447.051 12.1179 445.767C10.5126 444.483 8.26522 443.199 6.65986 442.878C5.05449 442.556 3.44901 442.877 3.12794 444.162C2.16472 446.73 2.1648 448.336 2.80694 449.941ZM349.887 528.604C352.776 528.283 355.024 526.999 355.987 525.072C356.95 523.467 357.592 521.54 357.592 519.614C357.592 518.009 356.629 516.724 355.024 515.761C352.776 514.156 350.529 514.156 347.96 515.119C345.392 516.082 343.144 517.687 341.218 518.651C339.291 519.614 338.97 521.861 339.933 523.788C341.218 525.714 342.502 527.32 344.428 527.962C346.034 528.925 347.96 528.925 349.887 528.604ZM182.608 532.457C185.497 535.989 188.387 536.952 191.277 536.31C193.203 535.668 195.13 534.704 197.056 532.778C198.34 531.494 198.982 529.567 199.304 527.32C199.946 523.146 198.34 521.54 195.451 520.256C192.561 518.972 189.029 518.651 186.782 517.366C184.534 516.082 181.965 517.687 180.681 520.577C179.718 522.825 179.397 525.072 179.718 526.999C180.36 528.925 181.323 530.851 182.608 532.457ZM497.901 474.343C493.406 478.195 492.443 482.048 494.048 485.58C495.012 487.828 496.938 489.754 499.507 491.359C501.433 492.644 503.681 493.286 505.928 493.607C511.386 494.57 513.313 492.323 513.955 489.112C514.597 485.901 514.597 481.406 515.881 478.838C517.487 476.269 514.918 473.379 511.386 472.095C509.139 471.453 506.57 471.132 504.323 471.453C501.754 471.774 499.507 472.737 497.901 474.343ZM149.858 515.119C154.032 521.219 158.527 522.825 162.701 521.219C166.875 519.614 170.407 514.477 172.976 508.055C175.544 501.634 172.976 499.386 169.123 498.423C165.27 497.46 160.133 497.46 157.564 495.533C154.674 493.286 151.143 496.176 149.216 500.35C148.253 502.597 147.611 505.166 147.611 507.734C147.611 510.303 148.253 512.871 149.858 515.119ZM413.138 519.935C408.643 524.109 407.359 527.962 408.964 531.494C410.569 535.025 414.422 537.915 419.88 540.163C425.018 542.41 427.265 541.447 428.549 538.236C428.549 537.915 428.871 537.594 428.871 537.273C429.834 533.741 430.155 529.246 432.081 526.356C434.65 522.825 432.723 519.935 429.192 518.651C427.265 517.687 424.697 517.366 421.807 517.045C418.917 516.403 415.707 517.687 413.138 519.935ZM249.07 515.119C251.96 518.972 255.17 520.256 258.381 519.614C261.592 518.972 264.481 516.403 267.371 512.871C270.903 508.697 270.582 506.771 268.013 504.845C267.692 504.523 267.692 504.523 267.371 504.523C264.481 502.918 260.307 501.634 258.06 499.065C254.528 495.212 251.959 495.854 250.033 498.744C249.07 500.35 248.107 503.239 246.822 506.129C245.859 509.018 246.822 512.55 249.07 515.119ZM411.533 486.864C408.001 490.075 407.038 493.607 408.001 496.497C408.964 499.707 411.854 502.276 415.707 504.845C420.202 508.055 422.128 507.413 423.733 504.845C423.733 504.523 424.055 504.202 424.055 504.202C425.339 501.313 426.302 496.818 428.549 494.249C432.081 490.075 431.118 487.828 428.229 486.222C426.302 485.259 423.412 484.617 420.844 483.654C417.312 483.012 414.101 484.296 411.533 486.864ZM318.101 498.744C320.348 501.313 322.917 502.597 325.806 502.597C328.696 502.597 331.265 500.992 334.154 499.065C338.649 495.855 338.649 493.928 336.402 492.002C336.08 491.681 336.081 491.681 335.76 491.359C333.512 489.433 329.659 487.507 327.412 484.617C323.238 479.801 321.311 479.801 319.706 481.727C318.422 483.333 317.779 486.222 315.853 489.112C314.569 492.002 315.532 495.854 318.101 498.744ZM255.491 330.502C254.528 332.107 254.849 335.639 253.565 339.171C252.28 342.703 254.528 346.235 258.381 347.84C260.307 348.803 262.555 349.124 265.124 348.803C267.692 348.482 270.261 347.84 272.508 345.913C277.324 342.382 276.682 340.455 274.435 338.529C271.866 336.602 267.692 334.997 264.481 333.071C258.381 329.218 256.133 328.897 255.491 330.502ZM215.357 394.395C214.394 396.001 214.715 399.533 213.431 403.064C212.146 406.596 214.394 410.128 218.247 411.733C220.173 412.697 222.421 413.018 224.989 412.697C227.558 412.376 230.127 411.733 232.374 409.807C237.19 406.275 236.548 404.349 234.3 402.422C231.732 400.496 227.558 398.891 224.347 396.964C218.247 393.111 216.32 392.79 215.357 394.395ZM21.7501 384.763C21.108 387.011 21.7502 388.937 24.6399 391.185C25.6031 393.111 27.2084 394.717 29.456 396.322C33.3088 399.212 35.5564 398.891 37.1618 396.643C38.4461 396.001 39.7303 395.038 40.6935 394.074C42.2989 392.79 42.9411 391.185 41.9779 388.937C41.3357 387.653 41.0146 386.048 40.6935 384.763C44.5464 374.168 39.0881 378.021 32.9877 376.736C30.4191 376.094 28.4927 376.737 26.5662 378.663C23.9976 380.589 22.0712 382.516 21.7501 384.763ZM644.31 537.915C646.558 537.915 648.163 535.989 648.163 530.53C648.806 528.604 649.448 526.677 649.769 524.109C650.411 520.256 649.448 518.33 647.521 517.045C646.237 515.119 644.953 513.192 643.347 511.908C640.779 509.661 638.852 509.34 636.926 513.192C635.963 515.44 634.678 517.045 633.715 518.651C626.009 519.935 629.541 523.146 630.183 527.962C630.504 531.173 631.789 533.099 635.32 534.704C638.531 536.631 641.742 538.236 644.31 537.915ZM231.09 381.553C233.016 382.837 234.621 381.232 238.474 375.131C239.438 373.526 240.722 371.92 242.006 369.994C243.612 367.425 243.933 364.857 243.933 362.93C243.933 359.72 244.575 356.509 244.254 354.261C243.933 349.766 242.006 347.84 237.19 351.693C234.622 353.94 232.374 355.546 230.126 356.83C225.31 356.509 224.989 359.72 223.384 362.609C221.458 365.82 221.458 368.71 224.347 372.563C226.916 376.094 229.163 380.268 231.09 381.553ZM278.608 541.126C274.434 539.841 270.903 538.878 267.692 537.915C264.481 536.952 261.913 536.31 259.665 536.31C255.17 535.989 252.28 537.594 250.354 543.052C248.107 548.51 245.217 552.684 244.896 555.253C244.575 557.822 247.464 558.785 256.454 556.858C260.95 555.895 265.766 554.932 269.94 553.648C274.114 552.363 277.645 550.758 280.214 549.474C285.351 546.584 286.314 543.373 278.608 541.126ZM147.29 491.681C148.253 493.607 150.179 494.249 153.069 491.681C154.674 490.396 156.601 488.791 158.527 486.543C161.417 483.333 163.986 480.122 166.554 476.59C169.123 473.058 169.444 469.527 168.802 466.958C169.444 462.463 167.838 459.894 161.417 462.784C154.995 465.674 149.858 467.279 146.969 469.848C144.079 472.416 142.795 475.627 144.4 480.122C145.684 485.259 146.327 489.433 147.29 491.681ZM202.193 546.905C201.23 549.474 201.872 551.4 205.404 552.042C207.972 552.363 210.541 552.684 213.431 552.684C217.284 552.684 221.136 552.363 225.31 552.042C229.484 551.721 231.09 548.189 231.411 544.658C233.337 541.768 233.016 538.878 228.2 536.952C223.063 534.704 218.889 533.099 215.357 533.42C211.825 533.741 209.257 535.025 207.009 538.557C205.083 541.768 202.835 544.658 202.193 546.905ZM304.294 543.373C305.257 546.584 307.505 548.189 310.395 546.263C312.963 544.658 315.532 543.052 317.779 541.126C320.348 538.878 323.238 536.31 326.127 533.42C329.017 530.53 326.448 526.677 322.595 524.109C320.99 521.861 318.421 520.577 314.569 521.54C310.716 522.504 307.184 523.788 305.579 526.356C303.652 528.925 303.01 531.815 303.01 535.025C303.331 538.557 303.652 541.447 304.294 543.373ZM176.507 577.728C177.471 580.939 179.718 582.544 182.608 580.618C185.176 579.012 187.745 577.407 189.992 575.481C192.561 573.233 195.451 570.664 198.34 567.775C201.23 564.885 198.661 561.032 194.808 558.464C193.203 556.216 190.635 554.932 186.782 555.895C182.929 556.858 179.397 558.143 177.792 560.711C175.865 563.28 175.223 566.169 175.223 569.38C175.544 572.591 175.865 575.802 176.507 577.728ZM622.799 149.096C623.762 152.307 626.009 153.912 628.899 151.986C631.468 150.38 634.036 148.775 636.284 146.848C638.852 144.601 641.742 142.032 644.632 139.143C647.521 136.253 644.953 132.4 641.1 129.831C639.494 127.584 636.926 126.3 633.073 127.263C629.22 128.226 625.688 129.51 624.083 132.079C622.156 134.648 621.514 137.537 621.514 140.748C621.836 143.959 622.156 147.169 622.799 149.096ZM354.061 472.095C352.776 474.664 352.134 477.232 351.813 479.801C351.492 482.369 351.492 484.617 352.134 486.543C353.097 490.396 355.345 492.644 358.556 490.717C361.766 489.112 364.335 487.507 366.903 485.58C369.472 483.654 372.041 481.727 375.251 479.159C378.462 476.59 374.609 472.416 368.83 470.169C365.94 468.884 363.051 468.242 360.161 468.563C357.592 468.563 355.345 469.527 354.061 472.095ZM1239.9 347.519C1237.97 347.84 1236.37 348.482 1235.41 349.445C1234.44 350.409 1234.12 351.372 1234.44 352.656C1234.44 353.298 1234.76 353.94 1235.08 354.582C1236.05 357.472 1237.97 359.399 1240.86 360.683C1241.19 360.683 1241.51 361.004 1241.83 361.004C1245.36 362.609 1247.61 361.967 1249.53 361.004C1252.74 359.72 1253.71 358.114 1254.35 357.151C1254.99 356.188 1252.74 353.94 1250.17 351.372C1247.29 348.803 1243.43 347.198 1239.9 347.519ZM1135.87 349.445C1132.34 344.95 1129.45 344.95 1127.85 347.198C1125.92 349.766 1125.28 354.582 1125.28 361.004C1125.28 367.104 1127.2 368.389 1129.45 368.389C1131.7 368.389 1134.27 367.104 1136.52 368.068C1138.44 369.352 1139.73 366.141 1139.73 361.967C1139.73 360.041 1139.4 357.472 1139.08 355.225C1138.12 352.977 1137.48 351.051 1135.87 349.445ZM1296.73 345.592C1295.77 342.382 1294.48 341.418 1289.35 345.271C1289.02 345.592 1282.92 355.225 1280.68 360.362C1278.43 365.178 1281 370.315 1285.17 367.425C1287.42 366.141 1289.99 365.499 1292.24 364.215C1294.48 362.93 1296.41 361.325 1296.73 357.793C1297.37 354.261 1297.69 348.803 1296.73 345.592ZM1218.39 358.435C1220.96 352.977 1220.32 349.124 1217.43 346.556C1215.82 344.95 1213.25 343.987 1210.04 343.345C1207.79 343.024 1205.55 343.345 1203.3 343.987C1197.84 345.271 1197.2 347.84 1197.84 351.372C1198.48 354.904 1200.41 358.756 1200.09 361.646C1199.77 364.536 1202.98 366.141 1207.15 365.82C1209.4 365.499 1211.97 364.857 1213.89 363.572C1215.82 362.609 1217.43 360.683 1218.39 358.435ZM1116.29 359.399C1118.21 354.904 1117.89 351.372 1115.65 349.124C1113.72 346.556 1109.87 345.271 1105.37 344.308C1099.91 343.345 1098.31 344.629 1097.99 347.519C1097.99 347.84 1097.99 348.161 1097.99 348.482C1097.99 351.693 1098.95 356.188 1097.99 359.399C1096.38 364.536 1098.31 366.141 1101.52 366.462C1103.44 366.462 1106.33 365.82 1109.55 365.82C1112.76 365.178 1115 362.609 1116.29 359.399ZM1175.04 349.766C1175.37 346.877 1174.72 344.308 1174.08 341.74C1173.44 339.492 1172.48 337.245 1171.19 335.639C1168.62 332.428 1165.73 331.465 1163.49 334.355C1161.24 337.245 1159.63 339.813 1158.03 342.382C1156.42 344.95 1154.82 347.84 1152.89 351.693C1150.96 355.225 1156.42 357.472 1162.2 357.472C1165.09 357.472 1168.3 356.83 1170.87 355.546C1173.12 354.261 1175.04 352.335 1175.04 349.766ZM101.376 465.995C102.34 468.884 104.266 470.49 106.834 469.527C109.403 468.242 111.651 466.958 113.898 465.674C115.503 464.71 117.43 463.426 119.035 462.142C119.999 461.179 120.962 460.215 121.925 459.252C124.172 457.005 121.283 453.794 116.788 451.867C114.219 450.904 111.651 450.262 108.761 450.262C105.871 450.262 103.945 451.546 102.661 453.473C101.697 455.399 101.055 457.326 100.734 459.252C100.413 461.821 100.734 464.068 101.376 465.995ZM78.5801 444.483C79.5433 446.409 81.1487 447.694 83.0752 447.051C85.0016 446.409 86.9281 445.446 88.5334 444.483C90.4599 443.52 92.0652 442.556 93.6705 441.272C94.6337 440.309 95.5969 439.346 96.2391 438.382C97.5234 436.456 95.2759 433.887 92.0652 432.603C89.8176 431.64 87.2491 430.998 84.6805 431.319C81.7909 431.319 79.8644 432.282 78.5801 434.208C77.6168 435.814 76.9747 437.74 76.9747 439.346C76.9747 441.272 77.6168 442.878 78.5801 444.483ZM515.881 514.156C517.487 514.156 518.771 513.835 519.413 512.229C520.055 510.945 520.376 509.34 521.018 508.055C521.661 506.129 521.982 504.202 521.982 502.597C521.982 500.992 521.34 500.028 520.697 499.065C519.734 497.781 517.487 497.781 515.239 499.065C513.634 500.028 511.707 501.634 510.102 503.881C508.497 506.129 507.855 508.055 508.497 509.982C508.818 511.587 510.102 512.871 511.386 513.514C512.671 513.835 514.276 514.156 515.881 514.156ZM76.0115 456.041C73.1219 456.041 71.5165 457.005 70.5532 457.968C69.59 458.931 69.2689 460.536 69.9111 461.821C70.2321 463.105 71.5165 464.389 72.8008 465.032C74.4062 465.674 76.3326 465.995 78.2591 465.674C80.5066 465.031 82.1119 464.389 83.0752 463.105C84.0384 462.142 84.6805 460.858 84.6805 459.894C84.6805 458.931 83.7173 457.968 82.433 457.005C81.1487 456.363 78.9012 456.041 76.0115 456.041ZM385.526 512.55C385.526 511.587 384.241 509.34 382.636 507.734C381.352 506.45 379.746 505.808 378.462 505.166C375.894 504.523 372.362 506.129 371.078 509.661C370.114 512.229 369.151 514.798 369.151 517.045C369.151 519.293 369.793 520.898 372.041 521.54C375.251 522.825 379.425 522.182 382.636 519.614C384.563 517.687 385.847 516.082 385.526 512.55ZM761.823 195.009C760.218 200.467 761.823 202.715 764.713 203.036C767.602 203.036 772.419 201.11 777.556 197.257C782.693 193.725 782.693 191.477 781.087 189.551C779.803 187.625 777.235 186.34 776.914 184.093C776.593 181.845 773.382 182.487 769.85 184.735C768.245 186.019 766.318 187.304 764.713 189.23C763.75 190.835 762.465 192.762 761.823 195.009ZM215.999 331.465C215.678 333.071 216.963 333.392 222.742 331.465C224.668 330.823 226.595 330.502 228.842 329.539C230.126 329.218 231.09 328.576 232.374 328.254C235.264 326.97 237.511 325.044 239.438 323.438C242.648 320.549 243.291 318.301 239.438 317.659C237.511 316.375 235.585 316.054 233.658 316.054C231.732 316.054 230.126 316.375 228.842 316.696C225.952 317.338 224.026 318.943 221.779 322.154C218.889 326.007 216.32 329.539 215.999 331.465ZM104.587 295.184C105.55 296.147 107.798 295.826 112.293 294.221C115.182 293.258 118.393 292.294 121.283 291.01C123.851 290.047 125.457 288.441 126.741 286.836C128.667 284.268 129.31 282.983 126.099 281.699C124.493 281.057 122.888 280.094 121.283 279.773C119.356 279.451 117.109 279.451 115.182 280.094C111.33 281.699 108.44 284.268 106.513 287.799C104.908 291.331 103.303 294.221 104.587 295.184ZM246.822 328.254C247.786 328.897 249.712 328.897 251.638 328.576C253.244 328.254 254.207 327.291 254.849 325.686C255.491 324.081 255.491 321.833 255.812 319.907C256.133 317.017 255.491 314.127 253.244 313.485C251.638 312.843 249.712 312.201 248.106 313.164C245.859 314.127 244.575 315.733 243.612 317.98C242.969 320.228 242.006 322.796 242.327 325.044C242.648 326.649 243.933 328.254 246.822 328.254ZM160.133 336.602C163.022 337.887 165.27 337.887 167.196 336.602C168.802 335.639 170.407 334.355 171.37 332.75C172.333 331.144 172.012 329.86 171.37 327.933C170.407 325.365 168.16 324.081 165.591 323.759C163.022 323.438 160.133 323.438 157.885 323.438C155.638 323.438 154.353 324.723 154.032 327.291C154.032 329.539 154.674 331.786 155.638 333.392C156.922 334.997 158.527 335.96 160.133 336.602ZM149.216 294.542C149.858 298.074 151.464 300.321 153.711 301.927C155.959 303.532 159.169 303.532 162.701 303.532C168.159 303.211 169.123 301.605 168.48 298.716C168.48 298.395 168.481 298.074 168.159 298.074C167.196 295.184 164.949 291.331 164.628 288.12C163.664 282.02 162.059 280.736 159.49 281.699C157.564 282.341 155.317 284.589 152.106 286.194C149.216 286.836 148.253 290.689 149.216 294.542ZM89.1754 303.532C86.2858 300.321 83.7172 297.431 81.7908 295.184C79.5433 292.936 77.6169 291.01 76.0115 289.726C72.4797 287.157 68.948 287.157 64.453 290.689C59.958 294.221 55.1418 296.147 53.5364 298.395C51.9311 300.642 53.8575 302.569 62.5264 306.1C67.0214 307.706 71.5166 309.311 75.6905 310.274C79.8645 311.238 83.7172 311.88 86.6069 311.88C92.3862 311.88 94.9547 309.632 89.1754 303.532ZM113.898 325.365C113.256 328.576 114.219 331.144 117.751 331.144C120.962 331.144 123.53 331.144 126.741 330.823C130.273 330.502 133.805 329.539 137.658 328.897C141.831 327.933 141.51 323.438 139.584 319.264C139.584 316.375 137.657 314.127 134.126 312.843C130.273 311.559 126.741 310.917 123.851 312.201C120.962 313.485 118.714 315.412 117.109 318.301C115.503 320.87 114.219 323.438 113.898 325.365ZM193.524 290.368C190.956 291.973 189.029 293.579 187.424 295.505C185.818 297.431 184.855 299.358 184.213 301.284C182.929 305.137 183.892 308.027 187.424 308.348C190.956 308.669 194.166 308.669 197.056 308.348C200.267 308.027 203.477 307.706 207.651 307.385C211.825 307.064 210.541 301.284 207.009 296.468C205.404 293.9 203.156 291.652 200.588 290.368C198.34 289.405 195.772 289.084 193.524 290.368ZM199.304 341.418C199.625 340.455 199.946 337.887 199.625 335.639C199.303 333.713 198.34 332.428 197.377 331.144C195.772 329.218 191.919 328.576 188.708 331.144C186.46 333.071 184.213 334.676 183.25 336.281C182.287 337.887 181.966 339.813 183.25 341.74C185.176 344.308 189.35 346.235 193.203 345.592C195.772 345.592 197.698 344.629 199.304 341.418ZM544.457 505.808C544.457 505.166 542.53 501.955 540.604 499.065C538.999 496.818 537.072 495.212 535.467 493.928C531.935 491.359 526.156 493.286 525.514 498.423C524.871 501.634 523.587 504.845 523.266 507.413C522.945 510.303 523.587 512.55 526.477 513.835C530.009 515.44 535.467 516.082 539.641 514.477C542.852 513.192 545.099 511.266 544.457 505.808ZM224.347 525.072C224.668 524.751 226.274 520.577 227.879 515.761C228.842 512.55 229.805 509.018 230.126 506.45C231.09 500.671 224.026 495.533 218.889 499.065C215.999 500.992 212.146 502.276 208.936 503.881C206.046 505.487 203.799 507.734 205.083 511.908C206.367 516.082 208.936 522.504 212.146 526.035C215.357 529.567 218.568 530.851 224.347 525.072ZM492.764 452.189C493.727 451.225 493.406 448.978 492.122 444.483C491.159 441.593 490.195 438.382 488.911 435.172C487.948 432.603 486.343 430.998 484.737 429.714C482.49 427.466 480.884 427.145 479.6 430.035C478.958 431.64 477.995 433.245 477.674 434.851C477.353 436.777 477.032 439.025 477.995 440.951C479.6 444.804 482.169 447.694 485.7 449.62C488.911 451.546 491.801 453.152 492.764 452.189ZM537.393 414.302C534.504 413.339 532.256 413.66 530.33 414.944C528.724 415.907 527.44 417.513 526.798 419.439C526.156 421.045 526.477 422.65 527.44 424.255C528.724 426.503 530.972 427.466 533.54 427.787C536.109 427.787 538.999 427.466 541.246 427.145C543.494 427.145 544.778 425.218 544.457 422.971C544.136 420.723 543.494 418.797 542.209 417.192C540.925 415.907 539.32 414.944 537.393 414.302ZM88.8544 378.021C93.3495 378.663 96.2391 377.7 97.8444 375.131C99.1287 373.526 99.771 371.278 99.771 368.71C99.771 366.783 99.1287 364.857 97.8444 363.251C95.5969 359.72 93.0285 359.399 90.1388 360.362C87.2491 361.325 84.3594 363.251 81.7908 363.894C79.2222 364.536 78.259 367.104 79.2223 370.315C79.8644 372.563 81.1486 374.489 82.754 375.773C84.3593 377.058 86.6069 377.7 88.8544 378.021ZM178.113 429.392C181.966 432.282 185.176 433.245 188.387 431.961C191.277 430.677 193.524 427.466 195.772 423.292C198.34 418.476 197.698 416.549 194.808 415.265C194.487 415.265 194.166 414.944 193.845 414.944C190.635 413.981 186.461 413.66 183.571 411.733C179.076 408.844 176.828 410.128 175.865 413.018C175.223 414.944 174.902 417.834 174.26 420.723C173.618 423.934 175.544 427.145 178.113 429.392ZM851.081 291.973C851.403 289.726 850.76 288.763 849.476 288.12C848.513 287.799 847.228 287.478 845.623 287.799C844.339 288.12 843.055 289.084 842.091 290.047C840.486 291.973 840.165 293.579 840.165 294.863C840.486 296.468 841.128 297.753 841.77 299.037C842.091 300.321 843.697 300.321 845.302 299.358C847.228 298.395 848.513 297.11 849.476 295.826C850.439 294.542 850.76 293.258 851.081 291.973ZM508.497 554.932C511.065 553.005 511.386 551.079 510.423 549.474C509.781 548.51 508.497 547.547 506.57 546.584C504.965 545.942 503.36 545.942 501.433 545.942C497.901 545.942 496.296 547.226 495.654 548.832C495.012 550.437 495.012 552.684 494.369 553.969C493.727 555.253 495.333 556.537 497.901 556.858C499.828 557.179 502.075 557.179 503.681 556.858C505.607 556.858 507.212 555.895 508.497 554.932ZM422.77 405.633C421.486 405.633 418.275 406.275 415.386 406.275C412.496 406.275 409.285 407.881 407.68 410.128C407.038 411.091 406.396 412.376 406.396 413.66C406.396 414.944 407.038 415.907 408.322 416.871C410.891 418.797 412.817 418.155 414.422 416.549C416.028 414.944 417.633 412.376 419.56 410.77C423.733 406.596 424.055 405.633 422.77 405.633ZM869.062 277.846C869.383 276.241 868.74 275.277 866.172 274.956C864.888 274.314 863.603 273.672 861.356 273.672C860.071 273.672 859.108 273.672 858.466 273.993C855.897 274.635 854.613 276.241 853.65 278.488C852.366 280.736 851.724 282.983 852.687 284.589C852.366 288.441 853.008 289.405 854.613 289.405C855.576 289.405 856.54 289.084 857.824 288.763C859.75 288.12 861.356 287.157 863.282 285.552C866.493 283.304 868.74 280.415 869.062 277.846ZM445.245 592.497C446.851 592.497 446.851 591.534 446.53 587.681C446.209 586.076 446.209 584.15 445.888 582.223C445.566 580.939 445.245 579.976 444.924 579.012C443.64 576.444 441.714 574.838 439.787 573.554C436.897 571.628 434.65 570.986 433.687 573.554C431.118 574.517 430.476 576.123 430.797 577.728C431.118 579.012 431.439 580.297 431.76 581.581C432.723 583.828 434.008 585.434 436.576 587.36C439.466 590.25 442.998 592.176 445.245 592.497ZM594.544 545.621C599.36 548.51 601.929 547.868 602.892 544.979C603.855 542.089 602.892 536.952 600.966 531.173C598.718 525.393 596.792 524.751 594.544 525.393C592.297 526.035 590.37 528.283 588.123 527.962C585.875 527.641 585.554 530.851 586.838 534.704C587.481 536.631 588.444 538.878 589.728 540.805C591.333 542.731 592.939 544.337 594.544 545.621ZM305.258 568.096C302.689 564.564 300.12 562.317 296.267 559.106C292.093 555.574 284.709 565.206 291.13 569.059C298.194 573.233 308.147 572.27 305.258 568.096ZM429.513 413.981C433.044 413.66 435.934 412.376 439.466 410.77C443.319 408.844 439.787 400.817 434.329 402.743C427.586 405.312 424.376 414.623 429.513 413.981ZM451.025 407.559C444.603 405.312 442.356 414.623 447.814 415.265C453.593 415.586 457.446 409.807 451.025 407.559ZM428.229 547.226C421.165 547.868 417.633 553.969 423.091 556.216C425.981 557.179 428.228 559.427 430.797 561.032C433.366 562.638 435.934 563.601 439.787 561.674C443.64 560.069 450.061 557.179 453.272 554.611C456.804 551.721 457.125 548.832 449.419 546.905C449.419 546.584 434.971 546.584 428.229 547.226ZM488.911 575.802C489.232 575.481 488.59 573.233 487.627 570.022C487.306 568.417 486.343 566.812 485.379 565.206C484.095 562.959 482.49 560.711 481.206 559.106C477.995 554.611 472.537 553.648 472.216 558.464C471.894 561.032 470.61 563.28 470.61 565.848C470.289 568.417 470.931 570.986 473.5 573.554C476.068 576.123 480.242 579.655 483.453 581.26C486.664 582.865 489.232 582.223 488.911 575.802ZM512.671 573.233C512.35 572.27 510.423 571.628 508.176 570.664C506.57 570.022 504.965 570.022 503.359 570.343C501.112 570.986 499.186 571.949 497.259 572.591C493.406 574.196 491.159 577.407 493.406 579.655C495.012 580.939 495.975 583.186 497.901 584.15C500.149 585.113 502.396 585.434 505.286 584.471C507.855 583.507 511.707 581.581 513.955 579.655C516.203 578.049 516.845 575.802 512.671 573.233ZM543.173 561.674C544.136 560.711 544.457 559.106 544.778 557.179C544.778 555.574 544.136 554.29 542.852 553.327C541.246 552.042 539.32 551.4 537.393 550.758C534.825 549.795 531.614 549.474 530.33 551.4C529.366 553.005 528.082 554.29 528.403 556.216C528.724 558.464 530.009 560.39 531.614 561.674C533.54 562.959 535.788 564.243 538.035 564.885C540.283 565.527 542.53 564.564 543.173 561.674ZM531.614 456.684C535.146 457.005 537.714 456.363 539.962 454.436C541.888 452.51 543.173 449.62 543.815 446.088C545.099 440.63 543.815 439.346 540.604 439.025C540.283 439.025 539.962 439.025 539.962 439.025C536.751 439.025 532.898 440.309 529.366 439.667C523.266 438.704 521.661 440.309 521.661 442.556C521.661 444.483 523.266 447.372 523.908 450.583C524.229 454.436 527.761 456.363 531.614 456.684ZM548.952 541.768C552.484 542.089 555.052 541.447 557.3 539.52C559.226 537.594 560.51 534.704 561.153 531.173C562.437 525.714 561.153 524.43 557.942 524.109C557.621 524.109 557.3 524.109 557.3 524.109C554.089 524.109 550.236 525.393 546.704 524.751C540.604 523.788 538.999 525.393 538.999 527.641C538.999 529.567 540.604 532.457 541.246 535.668C541.888 539.52 545.099 541.447 548.952 541.768ZM561.795 434.208C562.116 436.135 565.006 438.382 566.29 441.914C567.574 445.446 571.748 446.409 575.922 445.125C577.848 444.483 579.775 443.199 581.701 441.272C583.307 439.346 584.591 437.098 585.233 434.208C586.517 428.429 584.591 427.145 581.38 427.466C578.17 427.787 573.996 429.714 570.464 430.035C563.079 431.319 561.474 432.603 561.795 434.208ZM405.753 574.196C408.322 573.875 408.001 571.628 406.717 564.564C406.395 562.638 406.074 560.711 405.753 558.464C405.111 555.253 403.827 553.648 402.221 551.721C399.974 549.153 398.369 546.584 396.763 544.979C393.232 541.768 390.663 541.768 389.7 547.868C389.379 551.079 388.737 553.969 388.094 556.537C384.242 559.427 386.168 561.996 387.131 565.527C388.094 569.38 389.7 571.307 394.516 572.27C399.011 572.912 403.185 574.517 405.753 574.196ZM557.3 557.822C557.942 560.39 559.226 562.959 560.832 565.206C562.116 567.133 564.042 568.738 565.648 570.022C568.858 572.27 572.069 572.27 573.353 568.738C574.638 565.206 575.28 562.317 575.922 559.427C576.564 556.216 577.206 553.005 577.848 549.153C578.491 544.979 572.711 544.658 566.932 546.584C564.042 547.547 561.474 549.153 559.547 551.079C557.621 552.684 556.658 555.253 557.3 557.822ZM340.897 590.571C345.713 590.25 348.602 588.645 349.887 585.434C351.171 582.544 350.85 578.691 349.566 574.196C348.281 568.738 346.355 568.096 343.465 569.059C343.144 569.059 342.823 569.38 342.823 569.38C339.933 570.664 336.402 573.554 332.87 573.875C327.412 574.517 326.769 577.086 328.054 579.976C328.696 581.902 330.622 584.15 332.228 586.718C334.154 589.929 337.365 590.892 340.897 590.571ZM154.032 378.342C157.564 377.7 159.811 376.415 161.417 374.168C163.022 371.92 163.343 368.71 163.022 365.178C163.022 359.72 161.417 358.756 158.206 359.077C157.885 359.077 157.564 359.077 157.564 359.399C154.674 360.362 150.821 362.288 147.611 362.609C141.189 363.251 140.226 364.857 140.868 367.425C141.51 369.352 143.437 371.599 145.042 374.81C146.648 378.021 150.179 378.984 154.032 378.342ZM85.9647 420.402C83.7172 416.55 82.112 413.339 80.5066 410.77C78.9013 407.881 77.2958 405.633 76.0115 404.028C73.1219 400.817 69.9112 399.854 64.453 402.422C59.3158 404.991 53.8574 405.954 52.252 407.559C50.3256 409.165 51.6099 411.733 59.3157 416.871C63.1686 419.439 67.3426 421.687 71.1954 423.613C75.0483 425.54 78.5801 426.824 81.4698 427.466C87.2491 429.071 89.8176 427.466 85.9647 420.402ZM829.248 263.719C828.285 264.682 827.964 265.966 829.248 268.214C830.212 269.819 834.386 272.709 836.954 273.672C839.202 274.314 841.449 273.03 841.128 270.461C841.128 268.856 840.807 266.93 840.165 265.645C839.523 264.04 838.239 262.756 836.312 262.435C833.744 261.792 830.533 261.792 829.248 263.719ZM725.542 126.942C728.432 125.658 722.652 120.199 720.726 122.768C718.157 126.621 722.652 128.226 725.542 126.942ZM704.03 154.554C704.03 155.838 704.672 157.123 705.314 157.765C705.956 158.407 706.92 159.049 707.883 159.049C708.846 159.049 709.809 158.728 710.772 158.086C711.736 157.444 712.057 156.159 711.736 154.875C711.415 153.591 710.773 151.985 710.13 151.022C709.167 149.738 708.204 148.775 707.241 148.454C706.277 148.133 705.314 148.454 704.993 149.738C704.351 151.664 704.03 153.27 704.03 154.554ZM727.147 137.858C727.147 139.143 727.789 140.427 728.431 141.069C729.074 141.711 730.037 142.353 731 142.353C731.963 142.353 732.927 142.032 733.89 141.39C734.853 140.748 735.174 139.464 734.853 138.179C734.532 136.895 733.89 135.29 733.248 134.326C732.284 133.042 731.321 132.079 730.358 131.758C729.395 131.437 728.432 131.758 728.11 133.042C727.468 134.969 727.147 136.574 727.147 137.858ZM676.097 124.373C680.271 120.52 680.271 117.952 678.023 116.025C675.455 114.42 670.317 113.457 664.217 113.778C658.116 114.099 656.832 116.025 657.153 118.273C657.153 120.52 658.759 123.089 657.474 125.336C656.511 127.263 659.401 128.547 663.575 128.547C665.501 128.547 668.07 128.226 670.317 127.584C672.565 126.942 674.491 125.979 676.097 124.373ZM697.288 158.086C690.545 158.407 691.829 168.039 697.288 166.113C702.425 164.507 704.03 157.765 697.288 158.086ZM720.084 179.277C719.763 181.524 720.084 182.808 724.579 183.13C725.863 183.13 733.569 180.561 737.101 178.635C740.311 176.708 740.953 172.855 737.422 171.892C735.495 171.25 733.569 170.287 731.321 169.966C729.074 169.644 727.147 169.966 724.9 171.571C722.973 173.497 720.405 176.708 720.084 179.277ZM684.445 143.959C685.087 145.564 686.05 146.848 687.334 147.49C688.619 148.454 690.545 148.775 692.15 148.775C693.756 148.775 695.361 148.454 696.967 147.812C698.251 147.169 698.572 145.564 697.609 144.28C696.966 142.674 695.361 141.069 693.756 139.785C692.15 138.5 689.903 137.216 688.297 136.895C686.692 136.574 685.087 136.895 684.766 138.179C683.802 140.427 683.802 142.353 684.445 143.959ZM812.874 240.602C810.947 241.565 809.663 243.491 809.984 247.023C809.342 248.949 809.021 251.518 809.021 254.087C809.342 258.903 811.269 260.187 813.837 259.866C815.121 260.508 816.727 260.829 818.332 260.829C820.579 261.15 822.185 260.508 823.148 258.261C823.79 256.655 824.754 255.371 825.396 254.408C835.67 250.234 829.248 248.628 826.359 243.17C825.074 240.923 823.469 239.638 820.58 239.638C817.369 239.638 814.8 239.638 812.874 240.602ZM748.98 154.233C746.091 154.233 744.485 155.196 743.522 156.159C742.559 157.123 742.238 158.728 742.88 160.012C743.201 161.297 744.485 162.581 745.769 163.223C747.375 163.865 749.302 164.186 751.228 163.865C753.475 163.223 755.081 162.581 756.044 161.297C757.007 160.333 757.649 159.049 757.649 158.086C757.649 157.123 756.686 156.159 755.402 155.196C753.796 154.233 751.87 153.912 748.98 154.233ZM580.417 138.179C584.591 138.179 588.444 138.5 591.654 138.822C594.865 138.822 597.434 138.822 599.681 138.5C604.176 137.858 606.424 135.611 607.387 129.831C608.35 124.052 609.956 119.236 609.635 116.667C609.314 114.099 606.424 114.099 597.755 117.631C593.581 119.557 589.086 121.805 585.554 124.052C581.701 126.3 578.812 128.547 576.564 130.795C572.39 134.648 572.39 137.858 580.417 138.179ZM114.861 409.486C115.824 412.054 117.751 413.018 120.641 411.091C122.888 409.807 125.136 408.202 127.383 406.275C130.273 403.707 133.163 400.817 136.052 397.927C138.942 395.038 137.979 391.185 135.731 388.295C135.41 384.763 133.163 382.837 128.025 384.442C122.567 386.048 118.393 387.653 116.146 389.9C113.577 392.469 112.614 395.359 113.256 399.212C113.898 403.707 113.898 407.238 114.861 409.486ZM168.159 410.128C171.37 411.091 173.939 410.128 173.939 406.596C173.939 403.386 173.939 400.817 173.618 397.606C173.297 394.074 172.655 390.543 172.012 386.369C171.37 382.195 166.554 382.195 162.38 384.121C159.491 384.121 156.922 385.727 155.638 389.579C154.353 393.432 153.711 396.964 154.674 399.854C155.638 402.743 157.564 404.991 160.454 406.596C163.343 408.202 166.233 409.486 168.159 410.128ZM134.447 411.733C132.199 413.339 130.273 415.265 128.989 417.513C127.704 419.439 126.741 421.687 126.099 423.613C125.136 427.466 126.42 430.356 129.952 430.356C133.484 430.356 136.694 430.035 139.584 429.392C142.795 429.071 146.005 428.429 149.858 427.466C154.032 426.824 152.106 421.045 148.253 416.549C146.326 414.302 143.758 412.376 141.51 411.091C138.942 410.128 136.373 410.128 134.447 411.733ZM498.222 414.302C497.901 415.265 497.901 417.834 498.543 420.081C499.185 421.687 500.149 423.292 501.433 424.255C503.36 425.861 507.212 426.182 510.102 423.292C512.029 421.366 514.276 419.439 514.918 417.513C515.881 415.586 515.881 413.66 514.276 412.055C512.029 409.807 507.855 408.202 503.681 409.165C501.433 409.807 499.186 410.77 498.222 414.302ZM550.557 486.222C550.557 486.543 551.842 491.038 553.447 495.855C554.731 499.065 556.016 502.276 557.3 504.523C560.19 509.661 568.858 509.661 570.785 503.56C571.748 500.35 574.317 496.818 575.601 493.607C576.885 490.396 577.206 487.507 573.995 484.938C570.464 482.369 564.684 478.517 559.868 477.874C555.052 477.232 551.841 478.517 550.557 486.222ZM484.416 535.668C492.122 536.952 498.222 527.32 492.443 521.861C489.553 519.293 487.948 514.798 485.7 511.266C483.453 507.734 480.563 505.487 476.068 507.092C471.252 509.019 463.546 511.587 459.051 515.119C454.556 518.972 453.272 523.467 461.299 529.567C460.978 530.209 476.711 534.704 484.416 535.668Z" fill="#250056"/>
</g>
</g>
<path d="M427.266 456.042C449.099 455.079 386.49 421.687 386.49 421.687L310.074 401.139C348.924 456.042 405.433 457.326 427.266 456.042Z" fill="#DFC6FF"/>
<path d="M178.791 185.414C157.922 188.304 161.132 197.294 136.41 201.468C112.008 205.642 106.229 155.234 85.0381 135.327C77.0112 127.621 79.2587 123.126 50.6832 146.244C50.6832 146.244 42.9775 154.27 41.6932 157.481C40.73 160.692 54.8572 192.799 58.7101 199.221C53.2518 198.257 45.5461 196.973 34.3086 195.689C38.1615 196.331 64.4893 205.321 75.7269 209.495C78.6165 210.779 80.8642 211.421 80.8642 211.421C82.4695 213.348 100.771 238.392 111.687 248.987C122.604 259.261 165.306 297.148 165.306 297.148L155.032 278.205L171.086 289.763C171.086 289.763 158.564 268.572 155.032 256.051C152.142 245.134 156.958 239.997 158.243 239.034C164.664 241.281 171.728 243.208 177.828 243.208C191.955 243.529 206.725 231.007 206.725 231.007C206.725 231.007 210.899 229.08 216.357 221.696C221.815 213.99 229.2 199.863 229.842 196.973C230.163 196.973 197.093 182.846 178.791 185.414Z" fill="#DFC6FF"/>
<path d="M839.844 502.276C835.992 507.093 831.818 511.909 827.323 516.083C808.058 539.842 815.443 568.417 848.513 540.805C860.714 528.926 871.952 512.551 880.3 492.644C866.493 511.267 820.259 529.889 839.844 502.276Z" fill="#45108A"/>
<path d="M752.512 209.137C758.612 212.99 765.034 217.164 771.134 221.98C815.442 247.666 839.844 230.649 815.121 196.615C800.673 179.598 784.94 165.792 769.208 154.876C769.85 155.839 818.011 235.786 752.512 209.137Z" fill="#45108A"/>
<path d="M821.545 283.305C821.224 282.984 821.224 282.984 821.545 283.305C824.756 288.763 827.646 294.542 830.536 300.001C831.178 300.322 831.82 300.964 832.783 302.248C850.442 329.218 888.65 379.948 885.439 333.713C883.513 326.65 881.265 319.586 879.018 312.522C885.76 338.85 842.415 310.596 821.545 283.305Z" fill="#45108A"/>
<path d="M791.685 567.776C792.97 567.455 793.933 567.134 795.217 567.134C762.789 568.739 733.892 549.475 757.009 546.906C757.651 546.906 758.294 546.585 758.615 546.585C755.725 547.227 752.835 547.548 749.946 547.869C740.956 549.154 732.287 549.796 723.618 550.117C664.219 574.518 762.789 570.023 791.685 567.776Z" fill="#45108A"/>
<path d="M587.484 277.204C645.598 284.589 655.23 265.646 647.204 231.933C647.204 231.933 659.726 254.087 651.699 269.178C651.699 269.178 672.889 252.803 661.973 221.98C651.056 191.157 665.826 188.588 675.458 186.341C680.274 185.056 701.144 186.341 726.829 196.615C624.086 138.18 546.387 173.498 564.688 136.574C534.186 165.15 529.37 269.82 587.484 277.204Z" fill="#45108A"/>
<path opacity="0.35" d="M33.6289 195.01C33.6289 195.01 111.007 238.676 127.382 242.529C143.757 246.381 157.884 238.034 157.884 238.034C157.884 238.034 111.65 213.953 89.4957 206.247C67.3416 198.22 33.6289 195.01 33.6289 195.01Z" fill="#21005B"/>
<path opacity="0.45" d="M710.13 160.334C635.32 155.197 649.448 249.592 625.046 230.328C600.966 211.705 561.153 134.006 544.136 184.735C538.356 224.548 548.952 272.388 587.48 277.204C645.595 284.589 655.227 265.646 647.2 231.933C647.2 231.933 659.722 254.087 651.695 269.177C651.695 269.177 672.886 252.803 661.969 221.98C651.053 191.157 665.822 188.588 675.454 186.341C685.087 183.772 761.502 190.836 810.626 265.646C858.466 338.529 867.777 409.486 857.182 462.463V462.142C892.821 311.238 784.94 165.15 710.13 160.334Z" fill="#21005B"/>
<path opacity="0.35" d="M386.488 421.687C454.235 443.841 500.148 485.26 500.148 485.26C500.148 485.26 498.543 467.601 486.021 456.363C473.82 444.805 386.488 421.687 386.488 421.687Z" fill="#21005B"/>
<path opacity="0.35" d="M169.444 323.76C146.648 343.024 126.741 375.774 126.099 398.249C125.457 420.724 131.879 441.273 131.879 441.273C131.879 441.273 102.34 404.028 104.908 375.132C107.156 346.235 169.444 323.76 169.444 323.76Z" fill="#21005B"/>
<path opacity="0.35" d="M98.4863 448.978C98.4863 448.978 85.0013 417.834 75.0481 407.239C65.4159 396.644 33.3086 373.847 33.3086 373.847C33.3086 373.847 62.2051 374.49 75.0481 381.232C87.891 387.975 98.4863 448.978 98.4863 448.978Z" fill="#21005B"/>
<path opacity="0.35" d="M449.099 536.952C421.808 540.805 270.262 579.013 217.606 568.739C133.806 552.364 118.394 496.497 104.909 493.287C91.1031 490.076 14.0456 462.143 6.33984 425.861C12.1192 462.785 24.6411 505.487 44.5476 523.789C80.1867 556.859 152.749 572.592 200.91 578.692C249.071 584.792 557.622 580.618 575.281 579.013C592.94 577.408 621.837 568.739 621.837 568.739C516.846 595.388 476.07 533.1 449.099 536.952Z" fill="#370A77"/>
<path d="M10.5117 448.979C30.7393 492.002 72.4789 508.698 87.8904 520.257C123.851 547.227 134.446 563.28 135.088 571.628C135.409 573.876 73.1209 571.307 57.0673 569.06C41.0136 567.133 25.9234 535.668 19.5019 516.083C13.7226 496.176 10.5117 448.979 10.5117 448.979Z" fill="#45108A"/>
<path opacity="0.35" d="M133.485 565.849C129.311 556.538 116.789 541.769 87.8922 520.257C77.9389 512.872 56.748 503.24 37.8047 485.581C95.2767 571.629 115.826 576.124 133.485 565.849Z" fill="#21005B"/>
<path opacity="0.35" d="M310.073 401.139L259.344 388.617C259.344 388.617 273.471 384.443 280.856 384.443C288.24 384.443 310.073 401.139 310.073 401.139Z" fill="#4D003E"/>
<path d="M120.961 134.327C120.961 134.327 125.135 185.377 154.031 179.598C163.985 177.672 165.911 160.334 165.911 160.334L120.961 134.327Z" fill="#DFC6FF"/>
<path opacity="0.5" d="M121.926 136.575C132.2 157.444 142.153 172.856 151.465 173.498C161.097 174.14 165.271 163.545 165.271 163.545C165.271 160.013 121.926 136.575 121.926 136.575Z" fill="#21005B"/>
<g opacity="0.72">
<mask id="mask1_2793_5294" style="mask-type:luminance" maskUnits="userSpaceOnUse" x="2" y="10" width="230" height="244">
<path d="M36.5574 201.864C36.5574 201.864 33.6739 200.435 31.4312 198.65C29.1885 196.865 12.528 154.733 13.4892 150.805C14.4503 146.877 22.4603 138.308 22.4603 138.308L6.12021 143.307C23.101 124.74 32.7126 82.6078 32.7126 82.6078C32.7126 82.6078 14.13 73.3245 7.72217 67.9687C1.63474 62.9699 1.6347 60.8276 2.27548 39.0474C2.59587 17.2671 13.8097 13.6966 18.6156 10.8402C23.4214 7.98376 32.3923 12.9825 39.7613 17.2671C47.1303 21.9088 82.053 37.9762 82.053 37.9762C82.053 37.9762 147.733 46.5455 179.131 66.5404C184.899 70.111 208.287 101.175 208.608 104.388C208.928 107.244 194.51 149.377 194.51 149.377L200.598 160.802C200.598 160.802 203.481 168.301 202.84 171.871C202.2 175.442 213.093 178.655 213.093 178.655C213.093 178.655 232.316 199.364 231.996 202.578C231.676 205.791 223.986 221.501 218.54 230.071C213.093 238.64 208.928 240.425 208.928 240.425C208.928 240.425 194.19 254.35 180.093 253.993C165.995 253.636 143.248 241.496 143.248 241.496L36.5574 201.864Z" fill="white"/>
</mask>
<g mask="url(#mask1_2793_5294)">
<path opacity="0.54" d="M176.881 141.838C177.843 144.724 185.219 140.555 182.653 138.63C180.088 136.706 175.278 137.347 176.881 141.838ZM149.623 66.1433C134.55 63.5774 142.247 68.0677 148.34 75.4447C154.433 82.8217 158.923 80.2558 170.788 77.3692C181.371 74.8032 164.695 68.7092 149.623 66.1433ZM50.5299 115.537C50.8506 116.82 51.4919 117.462 52.4539 117.141C53.416 117.141 54.6988 116.179 55.6608 115.216C56.6229 114.254 57.9058 112.971 58.2265 111.688C58.8679 110.405 58.8679 109.122 58.2265 108.16C57.5851 107.198 56.6229 106.877 55.6608 106.556C54.6988 106.556 53.7368 106.556 52.7748 107.198C51.8127 107.839 51.1712 108.802 50.8505 110.085C50.5298 111.688 50.2092 113.613 50.5299 115.537ZM186.822 133.178C187.143 134.461 187.784 135.102 188.746 134.781C189.708 134.781 190.991 133.819 191.953 132.857C192.915 131.895 194.198 130.612 194.519 129.329C195.16 128.046 195.16 126.763 194.519 125.801C193.878 124.839 192.915 124.518 191.953 124.197C190.991 124.197 190.029 124.197 189.067 124.839C188.105 125.48 187.464 126.442 187.143 127.725C186.502 129.329 186.502 130.933 186.822 133.178ZM75.8643 112.971C75.5437 114.575 75.2228 116.499 75.5435 118.745C75.8642 120.99 76.8262 121.952 78.109 121.31C79.3918 120.669 80.9953 120.348 82.2781 119.386C83.5609 118.424 84.5229 117.141 84.8436 114.575C85.1643 112.971 85.1642 111.368 84.2022 110.085C83.5608 108.802 82.5986 107.839 81.3159 107.519C80.0331 106.877 78.7504 107.198 77.147 108.802C77.147 110.085 76.185 111.368 75.8643 112.971ZM114.668 69.9922C114.347 71.9166 114.347 73.841 114.668 76.0862C114.988 78.9729 116.271 80.5766 117.874 79.6143C119.157 78.6521 121.402 78.6521 123.005 78.0106C124.609 77.3692 125.892 75.7655 125.892 71.9166C125.892 69.9922 125.571 68.0677 124.93 66.464C123.968 64.8603 123.005 63.5774 122.043 62.6152C120.44 61.6529 118.837 61.9737 116.912 64.8603C115.63 66.7848 114.988 68.3885 114.668 69.9922ZM117.554 169.742C117.233 167.176 117.554 163.969 117.233 161.724C116.912 159.478 115.63 157.875 112.423 157.554C110.819 157.554 109.537 158.195 108.895 159.158C108.254 160.12 107.612 161.403 107.612 162.686C107.612 165.572 108.895 168.78 111.14 170.384C113.706 171.987 115.63 174.553 116.592 175.195C117.874 176.157 118.195 175.195 117.554 169.742ZM75.2229 94.6891C75.5436 97.255 75.8642 99.1794 76.5056 101.104C76.8262 102.387 77.4676 103.349 78.109 103.991C79.0711 105.273 80.3538 105.273 82.9193 102.387C84.8435 102.066 86.1264 100.142 87.0884 97.5757C88.0505 95.3306 88.6918 93.0854 87.409 90.8402C87.0883 90.1987 86.447 89.2365 85.8056 88.2743C84.5228 86.6706 83.2401 86.0291 81.9573 85.3876C80.3539 83.7839 79.0711 84.1047 77.7884 85.0669C75.8643 87.6328 74.9022 91.4817 75.2229 94.6891ZM120.761 190.59C123.968 195.722 131.664 190.911 129.74 187.062C128.136 183.534 126.533 180.968 123.968 178.402C119.799 174.874 116.912 184.496 120.761 190.59ZM47.323 97.255C42.5127 94.0476 38.9851 103.67 45.0782 105.594C51.4919 107.198 52.1333 100.142 47.323 97.255ZM139.361 188.345C134.55 185.138 131.023 194.76 137.116 196.684C143.529 198.609 143.85 191.232 139.361 188.345ZM174.636 93.4061C176.24 95.6513 178.164 96.6135 180.409 96.6135C182.333 96.6135 184.578 95.972 186.822 95.972C190.671 95.6513 190.991 91.4817 188.105 88.9158C185.219 86.0291 178.484 81.8595 177.202 81.5388C172.712 80.5766 172.071 81.8595 171.75 84.1047C171.429 86.6706 173.033 90.8402 174.636 93.4061ZM90.6159 92.7646C92.2194 95.972 96.0676 99.8209 98.6331 102.387C101.199 104.953 103.764 105.273 106.33 104.953C108.895 104.632 111.461 103.028 113.706 102.708C118.516 102.066 117.233 96.2928 112.743 93.4061C111.14 92.4439 108.895 90.8402 106.65 89.5573C105.047 88.595 103.443 87.9536 101.84 87.6328C98.6331 86.9913 96.3883 86.3499 96.0677 86.6706C89.6539 86.9913 89.0125 89.5573 90.6159 92.7646ZM91.5779 60.6907C89.6538 62.9359 88.0505 66.7848 87.0884 69.6714C86.1264 72.5581 86.447 74.8032 87.409 77.0484C88.3711 78.9729 90.616 80.2558 91.8988 81.5388C94.4643 84.1047 97.671 81.218 98.9537 77.3692C99.5951 75.4447 100.557 73.5203 101.199 70.9544C101.519 69.3507 101.519 67.4262 100.878 66.1433C99.9159 63.5774 98.9539 61.6529 98.3125 61.6529C95.747 58.1248 93.5021 58.4456 91.5779 60.6907ZM28.0817 122.593C28.4024 124.197 29.3645 124.839 31.2886 124.839C32.892 124.839 35.1369 124.197 37.3818 123.235C39.6266 122.273 41.2299 120.99 42.5127 119.386C43.4748 118.103 43.7954 116.499 42.8333 115.537C41.5505 114.575 40.2679 113.933 38.3438 113.613C36.7403 113.292 34.8162 113.292 33.5335 113.933C31.93 114.575 30.6472 115.537 29.6852 116.82C28.4024 118.103 27.761 120.027 28.0817 122.593Z" fill="#250056"/>
</g>
</g>
<path d="M117.43 132.4L105.871 122.126L118.393 127.263C118.393 127.263 143.437 116.668 161.417 120.521C179.397 124.374 173.296 145.885 166.554 162.581C166.554 162.581 171.049 174.14 169.765 184.735C167.196 206.247 146.647 197.899 136.052 202.715C127.704 206.568 121.925 207.852 124.493 221.659L110.687 217.164C110.687 217.164 115.503 207.21 126.099 203.679C136.694 200.147 156.601 197.257 163.985 182.488C168.48 173.177 163.343 157.765 163.343 157.765L125.457 144.28L117.43 132.4Z" fill="#150143"/>
<path d="M211.506 212.348C211.506 212.348 208.937 220.053 201.874 226.796C201.874 226.796 193.847 226.154 181.004 230.649C181.004 230.649 198.342 227.759 200.91 228.722C203.479 229.364 203.479 230.328 203.479 230.328C203.479 230.328 203.8 230.328 202.837 227.438C202.837 227.438 209.9 220.695 214.074 213.632C215.359 211.705 211.506 212.348 211.506 212.348Z" fill="#150143"/>
<path opacity="0.45" d="M140.857 231.734C140.857 231.734 163.56 242.672 177.629 242.994C191.698 243.316 206.407 230.769 206.407 230.769C206.407 230.769 210.564 228.838 216 221.439C208.965 227.23 205.128 225.943 205.128 225.943C205.128 225.943 191.059 226.908 182.745 216.935C173.152 205.353 176.35 178.329 178.908 165.461C182.106 151.305 186.262 141.654 192.658 149.375L203.529 116.56C191.698 123.316 168.676 120.099 154.606 108.517C140.537 96.6138 103.125 118.49 103.125 118.49C103.125 118.49 80.1025 97.5789 82.021 84.3886C83.9396 71.1983 106.323 64.764 90.6545 50.2869C83.9396 49 79.7829 49 79.7829 49C79.7829 49 77.2248 52.8606 70.1901 61.8686C63.1554 70.8766 39.8129 67.3377 29.2608 88.2492C29.9003 88.5709 30.5399 88.8926 30.5399 88.8926C30.5399 88.8926 20.9472 126.533 4 143.584L20.3076 139.08C20.3076 139.08 12.6334 147.123 11.3544 150.34C10.3951 153.879 27.0225 191.841 29.2608 193.45C31.4991 195.058 34.3771 196.345 34.3771 196.345L140.857 231.734ZM144.374 191.841C132.863 186.372 128.386 176.077 121.671 134.898C120.072 125.246 164.839 152.27 164.839 152.27C164.839 152.27 168.036 163.852 165.798 178.973C164.519 186.694 155.885 197.31 144.374 191.841Z" fill="#21005B"/>
<path d="M212.148 212.989C208.616 212.347 203.8 199.504 195.131 176.387C194.81 165.792 197.058 162.581 203.479 163.865C213.111 165.792 232.376 199.183 232.376 199.183C232.376 199.183 220.175 214.595 212.148 212.989Z" fill="#45108A"/>
<path d="M232.376 198.862C226.597 200.789 207.653 190.193 206.048 189.872C204.443 189.23 200.269 191.478 204.122 200.789C207.974 207.531 209.58 213.311 211.506 213.632C219.533 215.237 232.376 198.862 232.376 198.862Z" fill="#150143"/>
<path d="M204.764 201.752C200.911 193.404 214.075 200.789 216.643 204.321C218.891 207.532 209.259 211.063 209.259 211.063C209.259 211.063 207.653 208.495 204.764 201.752Z" fill="#21005B"/>
<path opacity="0.5" d="M199.304 163.865C203.478 161.939 200.909 183.13 206.046 189.872C214.394 197.899 228.521 204.963 220.816 210.1C213.431 214.916 211.826 214.916 211.826 214.916C211.826 214.916 198.983 199.505 196.414 186.341C191.919 166.113 196.735 165.15 199.304 163.865Z" fill="#21005B"/>
<path opacity="0.19" d="M207.333 190.835C205.406 189.23 232.377 198.862 232.377 198.862C232.377 198.862 231.413 202.073 207.333 190.835Z" fill="white"/>
<path opacity="0.19" d="M152.598 107.499C120.169 86.3083 107.15 54.1957 125.13 58.3696C143.11 62.5436 165.12 69.6125 175.073 73.7864C180.531 76.0339 199.795 97.8669 206.217 108.462L204.611 114.563C198.832 120.663 178.926 124.837 152.598 107.499Z" fill="white"/>
<mask id="mask2_2793_5294" style="mask-type:luminance" maskUnits="userSpaceOnUse" x="120" y="121" width="48" height="50">
<path d="M120.964 134.327C119.679 131.437 141.833 118.594 154.676 121.805C167.84 125.016 170.409 151.344 165.272 163.544C160.134 176.066 137.98 176.066 120.964 134.327Z" fill="white"/>
</mask>
<g mask="url(#mask2_2793_5294)">
<path d="M120.963 134.326C119.679 131.437 143.76 117.952 156.924 121.163C170.088 124.373 173.619 145.885 168.482 158.086C163.024 170.608 146.007 186.019 120.963 134.326Z" fill="url(#paint0_linear_2793_5294)"/>
</g>
<mask id="mask3_2793_5294" style="mask-type:luminance" maskUnits="userSpaceOnUse" x="120" y="121" width="48" height="50">
<path d="M120.964 134.327C119.679 131.437 141.833 118.594 154.676 121.805C167.84 125.016 170.409 151.344 165.272 163.544C160.134 176.066 137.98 176.066 120.964 134.327Z" fill="white"/>
</mask>
<g mask="url(#mask3_2793_5294)">
<path d="M171.691 134.327C174.26 146.528 169.764 159.05 161.417 161.939C153.069 164.829 144.079 157.123 141.51 144.922C138.942 132.722 143.436 120.2 151.784 117.31C159.811 114.42 168.801 122.126 171.691 134.327Z" fill="url(#paint1_linear_2793_5294)"/>
</g>
<mask id="mask4_2793_5294" style="mask-type:luminance" maskUnits="userSpaceOnUse" x="120" y="121" width="48" height="50">
<path d="M120.964 134.327C119.679 131.437 141.833 118.594 154.676 121.805C167.84 125.016 170.409 151.344 165.272 163.544C160.134 176.066 137.98 176.066 120.964 134.327Z" fill="white"/>
</mask>
<g mask="url(#mask4_2793_5294)">
<path opacity="0.56" d="M122.57 139.464C119.68 131.758 152.751 122.768 162.062 134.327C171.052 145.564 165.915 169.324 165.915 169.324C165.915 169.324 190.637 122.768 189.995 121.484C189.353 120.199 157.246 103.825 154.356 103.504C151.466 103.183 108.122 121.805 107.801 122.768C107.479 124.052 104.59 150.701 105.874 151.022C107.158 151.665 122.57 139.464 122.57 139.464Z" fill="#ABAEEC"/>
</g>
<mask id="mask5_2793_5294" style="mask-type:luminance" maskUnits="userSpaceOnUse" x="120" y="121" width="48" height="50">
<path d="M120.964 134.327C119.679 131.437 141.833 118.594 154.676 121.805C167.84 125.016 170.409 151.344 165.272 163.544C160.134 176.066 137.98 176.066 120.964 134.327Z" fill="white"/>
</mask>
<g mask="url(#mask5_2793_5294)">
<path opacity="0.21" d="M165.592 163.223C163.023 171.25 155.639 176.387 148.896 175.103C142.154 173.498 138.943 165.792 141.512 157.765C144.08 149.738 151.465 144.601 158.207 145.885C164.95 147.491 168.161 155.196 165.592 163.223Z" fill="url(#paint2_linear_2793_5294)"/>
</g>
<mask id="mask6_2793_5294" style="mask-type:luminance" maskUnits="userSpaceOnUse" x="120" y="121" width="48" height="50">
<path d="M120.964 134.327C119.679 131.437 141.833 118.594 154.676 121.805C167.84 125.016 170.409 151.344 165.272 163.544C160.134 176.066 137.98 176.066 120.964 134.327Z" fill="white"/>
</mask>
<g mask="url(#mask6_2793_5294)">
<path d="M138.621 132.4C137.337 135.611 150.822 132.079 151.464 130.153C152.106 128.226 140.869 126.3 138.621 132.4Z" fill="white"/>
</g>
<path d="M53.8576 70.4335C99.1289 79.7446 95.2762 57.5906 86.9283 45.0687C86.9283 45.0687 60.9212 7.18214 53.8576 3.32926C46.794 -0.523614 33.9513 -0.844687 29.1352 1.40282C24.6401 3.65033 9.87063 27.0886 8.90742 45.3898C7.9442 63.3699 16.9344 81.0289 22.7137 85.5239C28.493 89.6978 29.4562 88.7346 29.4562 88.7346C33.309 78.4603 53.8576 70.4335 53.8576 70.4335Z" fill="#45108A"/>
<path opacity="0.5" d="M37.483 21.3093C44.5466 18.0986 34.5934 8.46638 26.8876 9.75067C21.7504 10.7139 13.0814 25.1622 9.5496 40.5737C9.22853 42.179 8.90742 43.7844 8.90742 45.7108C7.9442 63.6909 16.9344 81.3499 22.7137 85.8449C28.493 90.0189 29.4562 89.0557 29.4562 89.0557C32.988 78.4603 53.5366 70.7545 53.5366 70.7545C19.1818 60.1591 30.4194 24.52 37.483 21.3093Z" fill="#21005B"/>
<path opacity="0.5" d="M35.8755 79.4237C15.3268 83.2766 28.1698 29.3363 30.0962 40.895C32.0226 52.1325 32.9857 62.7279 53.8555 70.7547C53.8555 70.4337 39.0862 78.7816 35.8755 79.4237Z" fill="#140628"/>
<path opacity="0.19" d="M55.4623 4.93422C43.2616 -3.0926 46.7935 45.3894 64.4525 58.5534C82.1115 71.7174 101.376 65.9381 86.6064 45.3894C72.1582 24.8407 55.4623 4.93422 55.4623 4.93422Z" fill="white"/>
<path opacity="0.3" d="M614.239 543.043C601.075 528.916 564.473 511.257 533.65 441.263C508.606 383.791 427.696 375.122 410.037 382.507C399.762 391.818 386.598 421.677 386.598 421.677C386.598 421.677 454.024 452.5 381.782 469.838C309.541 486.855 233.768 447.042 235.373 442.868C236.978 438.694 251.106 398.239 247.895 388.928C244.684 379.617 200.697 298.385 182.396 299.67C164.095 300.954 134.556 302.88 124.924 292.285C115.292 281.69 90.2481 235.776 90.2481 235.776L111.439 248.298C143.546 268.205 147.399 249.261 155.105 242.519C156.389 239.308 158.316 238.024 158.316 238.024C158.316 238.024 136.483 227.749 125.245 221.328C113.687 214.907 95.3853 215.87 80.616 210.733C56.8566 202.385 34.0604 195 34.0604 195C34.0604 195 44.9768 234.171 44.6558 247.335C44.3347 260.82 45.9401 325.356 44.3348 328.887C40.4819 347.831 13.5117 360.353 8.37457 377.69C3.23741 395.028 14.1538 461.811 14.1538 461.811C21.2174 487.176 31.1707 510.936 44.6558 523.457C80.2948 556.528 152.857 572.261 201.018 578.361C249.179 584.461 557.73 580.287 575.389 578.682C593.048 577.077 621.945 568.408 621.945 568.408C621.945 568.408 765.785 585.103 825.184 556.849C828.394 555.244 831.284 553.638 834.174 551.712C784.087 581.572 623.229 552.675 614.239 543.043Z" fill="#370A77"/>
<path opacity="0.19" d="M98.4885 450.905C99.1307 446.731 87.8931 423.614 77.6188 410.45C67.3444 397.286 36.5215 375.774 32.3476 373.848C28.1736 371.921 32.3474 411.413 47.4379 429.072C62.5283 447.052 97.8464 455.079 98.4885 450.905Z" fill="white"/>
<path opacity="0.19" d="M132.843 440.31C134.448 438.704 145.043 388.296 155.639 361.326C161.739 345.593 182.93 320.228 179.398 319.907C175.867 319.586 159.492 330.503 143.438 355.546C127.384 380.59 125.458 391.186 127.705 411.413C129.311 431.962 130.595 442.878 132.843 440.31Z" fill="white"/>
<path opacity="0.19" d="M255.172 392.791C245.219 392.791 293.059 460.537 320.671 467.28C348.284 474.022 375.254 469.206 380.391 467.28C385.528 465.353 326.13 420.724 313.608 413.018C301.728 404.991 255.172 392.791 255.172 392.791Z" fill="url(#paint3_linear_2793_5294)"/>
<path opacity="0.19" d="M526.479 419.44C531.938 437.741 543.496 481.728 581.383 503.561C619.27 525.715 635.644 529.889 637.571 527.32C639.497 524.751 585.236 429.714 556.018 421.366C527.122 413.66 522.627 406.276 526.479 419.44Z" fill="url(#paint4_linear_2793_5294)"/>
<path d="M3.58376 34.2492C-4.79946 23.932 14.1489 13.6035 15.3234 20.9246L13.3046 26.7103C13.2362 26.9076 13.1968 27.1141 13.1887 27.3229C13.0967 29.6906 14.7684 31.7622 17.1049 32.1776L23.3478 33.2872C24.3151 39.3164 11.967 44.5664 3.58376 34.2492Z" fill="#A0D910"/>
<path d="M17.3604 37.3643C16.5858 43.5002 5.84737 36.8059 8.96769 34.796C10.6647 33.7029 14.5533 34.9754 16.572 34.9884C17.2118 34.9925 17.5807 35.6196 17.3604 37.3643Z" fill="#C2FF1C"/>
<path d="M8.73079 26.8474C4.00446 22.8529 15.4921 17.5253 15.4739 21.2307C15.4635 23.2461 12.2707 25.803 11.1559 27.4843C10.8032 28.0172 10.0753 27.9831 8.73079 26.8474Z" fill="#649D00"/>
<path opacity="0.45" d="M7.23009 27.8594C4.9231 21.4254 15.3907 21.3555 14.7349 22.7858C14.0792 24.2163 13.2266 26.8974 13.2266 26.8974C13.2266 26.8974 9.53794 34.2932 7.23009 27.8594Z" fill="#649D00"/>
<defs>
<linearGradient id="paint0_linear_2793_5294" x1="137.66" y1="167.053" x2="148.611" y2="119.352" gradientUnits="userSpaceOnUse">
<stop stop-color="#FFF4FF"/>
<stop offset="0.2368" stop-color="#F0E8FC"/>
<stop offset="0.6895" stop-color="#C9C7F3"/>
<stop offset="1" stop-color="#ABAEEC"/>
</linearGradient>
<linearGradient id="paint1_linear_2793_5294" x1="156.601" y1="116.703" x2="156.601" y2="162.547" gradientUnits="userSpaceOnUse">
<stop stop-color="#4F18A6"/>
<stop offset="1" stop-color="#260560"/>
</linearGradient>
<linearGradient id="paint2_linear_2793_5294" x1="153.552" y1="145.689" x2="153.552" y2="175.299" gradientUnits="userSpaceOnUse">
<stop stop-color="#7E69C5"/>
<stop offset="1" stop-color="#220750"/>
</linearGradient>
<linearGradient id="paint3_linear_2793_5294" x1="279.001" y1="393" x2="347.001" y2="477" gradientUnits="userSpaceOnUse">
<stop stop-color="white"/>
<stop offset="1" stop-color="#21005B"/>
</linearGradient>
<linearGradient id="paint4_linear_2793_5294" x1="536.001" y1="412" x2="638.001" y2="533.5" gradientUnits="userSpaceOnUse">
<stop stop-color="white"/>
<stop offset="1" stop-color="#21005B"/>
</linearGradient>
</defs>
</svg>
