<svg width="61" height="62" viewBox="0 0 61 62" fill="none" xmlns="http://www.w3.org/2000/svg">
<path d="M60.2345 37.7093C63.9387 21.5615 53.8512 5.4682 37.7034 1.76392C21.5556 -1.94036 5.46225 8.14713 1.75797 24.295C-1.94631 40.4428 8.14119 56.5361 24.289 60.2404C40.4369 63.9447 56.5302 53.8572 60.2345 37.7093Z" fill="#DDDDEC"/>
<path d="M30.9965 43.324C37.4407 43.324 42.6648 36.0882 42.6648 27.1625C42.6648 18.2367 37.4407 11.001 30.9965 11.001C24.5522 11.001 19.3281 18.2367 19.3281 27.1625C19.3281 36.0882 24.5522 43.324 30.9965 43.324Z" fill="white"/>
<path d="M30.8172 42.291C21.0481 42.291 12.3165 44.6302 6.50781 48.3082C11.9413 55.9836 20.8813 60.9956 31.0025 60.9956C41.1237 60.9956 49.934 56.0531 55.3814 48.4703C49.5774 44.6997 40.73 42.291 30.8219 42.291H30.8172Z" fill="white"/>
<path d="M32.7753 30.9976H29.2178C26.7568 30.9976 24.7617 32.9926 24.7617 35.4537V45.5934C24.7617 48.0544 26.7568 50.0495 29.2178 50.0495H32.7753C35.2363 50.0495 37.2314 48.0544 37.2314 45.5934V35.4537C37.2314 32.9926 35.2363 30.9976 32.7753 30.9976Z" fill="white"/>
<path d="M21.1711 28.0794C21.5186 30.6687 20.9442 32.9153 19.888 33.096C18.8273 33.2766 17.6878 31.3219 17.3357 28.7279C16.9883 26.1385 17.5627 23.8919 18.6188 23.7113C19.6796 23.5306 20.8191 25.4854 21.1711 28.0794Z" fill="white"/>
<path d="M40.8279 28.0794C40.4805 30.6687 41.0549 32.9153 42.111 33.096C43.1718 33.2766 44.3113 31.3219 44.6633 28.7279C45.0107 26.1385 44.4364 23.8919 43.3802 23.7113C42.3241 23.5306 41.18 25.4854 40.8279 28.0794Z" fill="white"/>
<path d="M19.7376 26.5278C19.3439 23.9384 18.9548 21.3537 18.561 18.7643C18.4174 17.824 18.2831 16.8327 18.6259 15.948C18.9687 15.0632 19.9738 14.3545 20.8632 14.688C20.5065 12.8861 22.4983 11.5567 24.2354 10.9592C27.1444 9.95862 30.2618 9.44908 33.3097 9.84281C36.3577 10.2365 39.3361 11.5845 41.3928 13.8728C42.0413 14.5954 42.6018 15.4199 42.9121 16.3417C43.5097 18.1158 43.1299 20.0567 42.7454 21.8864C42.4397 23.3408 42.1339 24.8 41.8282 26.2545C41.7587 26.588 41.68 26.9354 41.453 27.1901C41.0917 27.5931 40.4803 27.6209 39.9383 27.6256L22.5771 27.6626C21.4885 27.6626 20.0665 27.3986 19.9229 26.3193" fill="white"/>
</svg>
