<svg width="1410" height="445" viewBox="0 0 1410 445" fill="none" xmlns="http://www.w3.org/2000/svg">
<path d="M20 455C21.3732 431.524 31.6436 409.333 41.1136 388.286C67.0923 330.551 101.751 275.178 142.678 227.352C180.893 182.695 227.172 149.467 277.611 120.934C308.568 103.421 339.95 84.6284 373.714 73.3878C428.132 55.2715 478.723 42.7692 536.192 42.7692C575.16 42.7692 625.73 45.5303 637.149 92.0577C650.966 148.353 621.168 206.323 596.621 254.361C583.786 279.48 496.169 418.285 550.268 431.849C588.475 441.429 634.084 425.381 669.184 412.184C789.739 366.855 900.505 295.953 1010.64 229.468C1155.43 142.068 1302.85 61.8292 1455 -11" stroke="#B287FD" stroke-width="110" stroke-linecap="round"/>
</svg>
