<svg width="245" height="35" viewBox="0 0 245 35" fill="none" xmlns="http://www.w3.org/2000/svg">
<path d="M24.7592 7.34437C24.7592 9.34437 21.6164 11.6301 19.0449 12.7729C18.4735 13.0587 18.1878 13.3444 17.6164 13.0587C17.0449 13.0587 16.1878 12.7729 15.9021 12.4872C15.6164 12.2015 15.6163 11.9158 15.3306 11.9158L15.0449 11.3444C10.7592 12.7729 10.7592 11.3444 10.7592 11.3444L14.1878 9.05866C15.3306 8.48723 16.1878 8.20151 17.3306 7.9158L28.4735 5.34437C27.0449 6.20151 25.9021 6.77294 24.7592 7.34437ZM45.9021 14.7729C48.1878 13.3444 50.1878 11.6301 51.0449 8.20151C52.1878 3.63009 47.9021 -0.655629 43.6164 0.772943C41.9021 1.34437 40.4735 1.9158 38.4735 2.77294C25.6164 -1.79849 14.4735 0.487227 5.33064 10.7729L4.75921 14.2015L1.04492 17.0587L7.90206 15.9158C8.47349 15.6301 8.75921 16.4872 8.47349 17.0587L4.75921 20.7729C4.47349 21.0587 4.47349 21.0587 4.18778 21.0587H3.90206V21.3444C3.61635 21.3444 3.33064 21.0587 3.04492 21.0587L1.90206 19.9158L3.90206 26.4872C4.18778 26.4872 4.18778 26.7729 4.47349 27.0587C4.75921 27.0587 5.04492 27.3444 5.33064 27.0587H6.47349L6.75921 28.4872C7.04492 29.9158 8.47349 30.4872 9.90206 30.2015L17.9021 28.4872C27.9021 40.2015 29.9021 30.7729 35.9021 27.6301C41.3306 24.2015 51.6164 27.3444 45.9021 14.7729Z" fill="#B287FD"/>
<path d="M4.47293 20.7729L5.33008 22.7729L9.9015 25.0586C10.4729 25.3443 11.0444 25.3443 11.6158 25.3443C12.1872 25.3443 12.7586 25.0586 13.3301 24.4872L19.0444 19.9158L19.6158 20.7729L13.9015 25.3443C13.3301 25.9158 12.4729 26.2015 11.9015 26.4872C11.0444 26.4872 10.1872 26.4872 9.33008 25.9158L4.47293 23.6301L3.33008 21.0586L4.47293 20.7729Z" fill="#434242"/>
<path d="M28.1869 5.34448C27.0441 5.91591 25.6155 6.77305 24.4727 7.34448C22.4727 8.20163 20.4727 9.05877 19.0441 9.91591C17.6155 10.4873 16.1869 10.7731 15.3298 11.0588L15.0441 11.3445C10.7584 12.4873 10.4727 11.3445 10.4727 11.3445L14.1869 9.05877C15.0441 8.48734 16.1869 7.91591 17.3298 7.91591L28.1869 5.34448Z" fill="#434242"/>
<path d="M5.33147 23.0586L4.76004 26.7729H3.61719L4.18862 23.0586H5.33147Z" fill="#434242"/>
<path d="M8.18767 16.773L4.47339 20.773L4.18767 21.0587H3.90196H3.61624C3.33053 21.0587 3.33053 21.0587 3.04482 20.773L1.90196 19.6301L0.187673 18.2016C-0.0980415 17.9158 -0.0980418 17.3444 0.473387 17.0587H1.04482L7.61624 15.6301C8.47339 15.6301 8.7591 16.4873 8.18767 16.773Z" fill="#434242"/>
<path d="M5.32997 10.7729L0.472829 13.3444C0.187114 13.6301 0.187115 14.2015 0.758543 14.2015L4.47283 13.9158L5.32997 10.7729Z" fill="#434242"/>
<path d="M19.3306 11.0586C19.3306 12.2015 18.4735 13.0586 17.6164 13.0586C16.7592 13.0586 16.1878 12.7729 15.9021 12.2015C15.6164 12.2015 15.3306 11.9158 15.3306 11.6301L15.0449 11.3443L15.3306 11.0586C16.1878 10.7729 17.6164 10.4872 19.0449 9.91577C19.3306 10.2015 19.3306 10.4872 19.3306 11.0586Z" fill="#434242"/>
<path d="M64.4732 15.9159H76.7589V19.6302H64.4732V15.9159ZM77.0446 8.77302V12.4873H64.4732L66.4732 10.4873V25.9159H62.1875L62.4732 8.77302H77.0446ZM81.3304 22.4873V19.0587H93.0446V22.4873H81.3304ZM89.9018 8.77302L97.9018 25.9159H93.3304L86.4732 10.773H87.9018L81.0446 25.9159H76.4732L84.4732 8.77302H89.9018ZM97.9018 20.2016H102.187C102.187 20.773 102.473 21.3444 103.045 21.6302C103.33 22.2016 103.902 22.4873 104.473 22.4873C105.045 22.773 105.902 22.773 106.759 22.773C108.187 22.773 109.045 22.773 109.902 22.4873C110.473 21.9159 110.759 21.6302 110.759 21.0587C110.759 20.4873 110.759 20.2016 110.187 19.9159C109.902 19.6302 109.045 19.3444 107.902 19.3444L104.759 18.773C102.473 18.773 100.759 18.2016 99.6161 17.3444C98.7589 16.4873 98.1875 15.3444 98.1875 13.9159C98.1875 12.773 98.4732 11.9159 99.0446 11.0587C99.9018 10.2016 100.759 9.63016 101.902 9.05873C103.33 8.77302 104.759 8.4873 106.188 8.4873C107.902 8.4873 109.33 8.77302 110.473 9.34445C111.902 9.63016 112.759 10.4873 113.616 11.0587C114.187 11.9159 114.759 13.0587 114.759 14.2016H110.473C110.188 13.6302 110.187 13.3444 109.616 12.773C109.33 12.4873 109.045 12.2016 108.188 12.2016C107.616 11.9159 107.045 11.9159 106.188 11.9159C105.045 11.9159 104.187 11.9159 103.33 12.2016C102.759 12.773 102.473 13.0587 102.473 13.6302C102.473 14.2016 102.759 14.4873 103.045 14.773C103.33 15.0587 104.188 15.3444 105.33 15.3444L108.759 15.6302C110.188 15.9159 111.616 16.2016 112.473 16.4873C113.33 16.773 114.187 17.3444 114.473 17.9159C115.045 18.773 115.045 19.3444 115.045 20.4873C115.045 21.6302 114.759 22.4873 114.187 23.6302C113.33 24.4873 112.473 25.0587 111.045 25.6302C109.902 25.9159 108.473 26.2016 106.759 26.2016C105.045 26.2016 103.616 25.9159 102.187 25.6302C100.759 25.0587 99.9018 24.2016 99.0446 23.3444C98.4732 22.4873 97.9018 21.6302 97.9018 20.2016ZM122.473 10.773H126.759V25.9159H122.473V10.773ZM115.616 8.77302H133.33V12.773H115.616V8.77302ZM134.188 26.2016C133.616 26.2016 133.33 25.9159 132.759 25.9159C132.473 25.6302 132.188 25.3444 131.902 25.0587C131.616 24.4873 131.616 24.2016 131.616 23.6302C131.616 23.3444 131.616 22.773 131.902 22.4873C132.188 22.2016 132.473 21.9159 132.759 21.6302C133.33 21.3444 133.616 21.3444 134.188 21.3444C134.473 21.3444 135.045 21.3444 135.33 21.6302C135.616 21.9159 135.902 22.2016 136.188 22.4873C136.473 22.773 136.473 23.3444 136.473 23.6302C136.473 24.2016 136.473 24.4873 136.188 25.0587C135.902 25.3444 135.616 25.6302 135.33 25.9159C135.045 25.9159 134.473 26.2016 134.188 26.2016Z" fill="white"/>
<path d="M148.187 26.2016C146.187 26.2016 144.473 25.9159 143.045 25.0587C141.33 24.4873 140.187 23.3444 139.33 21.9159C138.473 20.773 138.188 19.0587 138.188 17.3444C138.188 15.6302 138.473 14.2016 139.33 12.773C140.187 11.3444 141.33 10.4873 143.045 9.63016C144.473 8.77302 146.187 8.4873 148.187 8.4873C150.187 8.4873 151.902 8.77302 153.33 9.63016C155.045 10.4873 156.187 11.3444 157.045 12.773C157.902 14.2016 158.188 15.6302 158.188 17.3444C158.188 19.0587 157.902 20.773 157.045 21.9159C156.187 23.3444 155.045 24.4873 153.33 25.0587C151.902 25.9159 150.187 26.2016 148.187 26.2016ZM148.187 22.4873C149.33 22.4873 150.473 22.2016 151.33 21.9159C152.188 21.3444 152.759 20.773 153.33 20.2016C153.616 19.3444 153.902 18.4873 153.902 17.3444C153.902 16.2016 153.616 15.3444 153.33 14.773C152.759 13.9159 152.188 13.3444 151.33 13.0587C150.473 12.4873 149.33 12.4873 148.187 12.4873C147.045 12.4873 145.902 12.4873 145.045 13.0587C144.473 13.3444 143.616 13.9159 143.33 14.773C142.759 15.3444 142.473 16.2016 142.473 17.3444C142.473 18.4873 142.759 19.3444 143.33 20.2016C143.616 20.773 144.473 21.3444 145.045 21.9159C145.902 22.2016 147.045 22.4873 148.187 22.4873ZM176.473 23.0587L175.045 23.3444V8.77302H179.33V25.9159H173.902L163.616 11.6302L164.759 11.3444V25.9159H160.759V8.77302H166.188L176.473 23.0587ZM186.759 8.77302V23.9159L185.045 22.2016H197.616V25.9159H182.473V8.77302H186.759ZM199.616 8.77302H203.902V25.9159H199.616V8.77302ZM223.045 23.0587L221.616 23.3444V8.77302H225.902V25.9159H220.473L210.188 11.6302L211.33 11.3444V25.9159H207.33V8.77302H212.759L223.045 23.0587ZM243.33 15.9159V19.0587H231.045V15.9159H243.33ZM233.902 24.4873L231.045 22.4873H244.188V25.9159H229.33V8.77302H243.902V12.4873H231.045L232.759 10.4873L233.902 12.2016V24.4873Z" fill="#8A53FF"/>
</svg>
