<svg width="1543" height="695" viewBox="0 0 1543 695" fill="none" xmlns="http://www.w3.org/2000/svg">
<path d="M55 640C56.3713 610.529 66.6273 582.671 76.0842 556.25C102.027 483.771 136.637 414.257 177.507 354.219C215.669 298.158 261.884 256.445 312.252 220.625C343.166 198.64 374.504 175.049 408.221 160.938C462.563 138.195 513.084 122.5 570.473 122.5C609.387 122.5 659.886 125.966 671.289 184.375C685.087 255.046 655.33 327.819 630.817 388.125C618 419.658 530.505 593.909 584.529 610.937C622.683 622.964 668.228 602.818 703.279 586.25C823.667 529.345 934.278 440.338 1044.26 356.875C1188.85 247.156 1336.07 146.427 1488 55" stroke="#F8F8FD" stroke-width="110" stroke-linecap="round"/>
</svg>
