<svg width="427" height="91" viewBox="0 0 427 91" fill="none" xmlns="http://www.w3.org/2000/svg">
<path fill-rule="evenodd" clip-rule="evenodd" d="M423.9 2.3038H419.292V6.91139H423.9V2.3038ZM416.988 0V3.45557H9.21519V0H0V9.21519H3.45508V81H0V90.2152H9.21519V87.5442H417V90.2152H426.215V81H421.594V9.21519H426.203V0H416.988ZM5.75888 9.21519V81H9.21519V85.2404H417V81H419.291V9.21519H416.988V5.75936H9.21519V9.21519H5.75888ZM419.304 83.3038H423.911V87.9114H419.304V83.3038ZM6.91139 83.3038H2.3038V87.9114H6.91139V83.3038ZM2.3038 2.3038H6.91139V6.91139H2.3038V2.3038Z" fill="#8A53FF"/>
</svg>
