<svg width="915" height="1114" viewBox="0 0 915 1114" fill="none" xmlns="http://www.w3.org/2000/svg">
<path fill-rule="evenodd" clip-rule="evenodd" d="M597.5 7.50027C550.353 -10.3936 466.78 5.11312 379.202 60.7324C260.918 135.88 -85.9523 449.421 20.2032 748.971C121.613 1035.13 234.113 1008.4 292.365 994.562C295.092 993.915 297.699 993.295 300.181 992.738C317.138 988.926 336.561 981.278 356.419 973.458C401.572 955.677 448.975 937.01 474.753 960.555C485.64 970.5 497.8 1001.91 514.005 1043.78C534.233 1096.04 656 1135.5 742 1100.5C828 1065.5 796 1047.03 898 898C1000 748.971 597.5 7.50027 597.5 7.50027Z" fill="#B7ED2F"/>
</svg>
